ISO-10303-21;
HEADER;
/* Generated by software containing ST-Developer
 * from STEP Tools, Inc. (www.steptools.com) 
 */

FILE_DESCRIPTION(
/* description */ ('',
'CAx-IF Rec.Pracs.---Representation and Presentation of Product Manufa
cturing Information (PMI)---4.0---2014-10-13'),
/* implementation_level */ '2;1');

FILE_NAME(
/* name */ '9a39e0ca-6577-42d5-85ea-0aa71830a704.stp',
/* time_stamp */ '2024-10-25T21:13:01Z',
/* author */ (''),
/* organization */ (''),
/* preprocessor_version */ 'ST-DEVELOPER v20',
/* originating_system */ 'Autodesk Translation Framework v13.20.0.188',

/* authorisation */ '');

FILE_SCHEMA (('AP242_MANAGED_MODEL_BASED_3D_ENGINEERING_MIM_LF { 1 0 10303 442 1 1 4 }'));
ENDSEC;

DATA;
#10=MECHANICAL_DESIGN_GEOMETRIC_PRESENTATION_REPRESENTATION('',(#13),#1583);
#11=SHAPE_REPRESENTATION_RELATIONSHIP('SRR','None',#1590,#12);
#12=ADVANCED_BREP_SHAPE_REPRESENTATION('',(#14),#1582);
#13=STYLED_ITEM('',(#1599),#14);
#14=MANIFOLD_SOLID_BREP('Body4',#963);
#15=FACE_BOUND('',#154,.T.);
#16=FACE_BOUND('',#157,.T.);
#17=FACE_BOUND('',#160,.T.);
#18=FACE_BOUND('',#163,.T.);
#19=FACE_BOUND('',#166,.T.);
#20=FACE_BOUND('',#167,.T.);
#21=FACE_BOUND('',#168,.T.);
#22=FACE_BOUND('',#169,.T.);
#23=FACE_BOUND('',#171,.T.);
#24=FACE_BOUND('',#172,.T.);
#25=FACE_BOUND('',#173,.T.);
#26=FACE_BOUND('',#174,.T.);
#27=CYLINDRICAL_SURFACE('',#1010,2.);
#28=CYLINDRICAL_SURFACE('',#1013,2.00000000000003);
#29=CYLINDRICAL_SURFACE('',#1015,2.00000000000002);
#30=CYLINDRICAL_SURFACE('',#1019,1.99999999999999);
#31=CYLINDRICAL_SURFACE('',#1025,3.50000000000001);
#32=CYLINDRICAL_SURFACE('',#1028,3.50000000000001);
#33=CYLINDRICAL_SURFACE('',#1031,3.50000000000001);
#34=CYLINDRICAL_SURFACE('',#1034,3.50000000000001);
#35=CYLINDRICAL_SURFACE('',#1038,5.00000000000004);
#36=CYLINDRICAL_SURFACE('',#1041,5.);
#37=CYLINDRICAL_SURFACE('',#1044,5.00000000000002);
#38=CYLINDRICAL_SURFACE('',#1047,5.);
#39=CIRCLE('',#986,5.00000000000004);
#40=CIRCLE('',#987,5.);
#41=CIRCLE('',#988,2.);
#42=CIRCLE('',#989,2.00000000000003);
#43=CIRCLE('',#1011,2.);
#44=CIRCLE('',#1014,2.00000000000003);
#45=CIRCLE('',#1016,2.00000000000002);
#46=CIRCLE('',#1017,2.00000000000002);
#47=CIRCLE('',#1020,1.99999999999999);
#48=CIRCLE('',#1021,1.99999999999999);
#49=CIRCLE('',#1023,5.00000000000002);
#50=CIRCLE('',#1024,5.);
#51=CIRCLE('',#1026,3.50000000000001);
#52=CIRCLE('',#1027,3.50000000000001);
#53=CIRCLE('',#1029,3.50000000000001);
#54=CIRCLE('',#1030,3.50000000000001);
#55=CIRCLE('',#1032,3.50000000000001);
#56=CIRCLE('',#1033,3.50000000000001);
#57=CIRCLE('',#1035,3.50000000000001);
#58=CIRCLE('',#1036,3.50000000000001);
#59=CIRCLE('',#1039,5.00000000000004);
#60=CIRCLE('',#1042,5.);
#61=CIRCLE('',#1045,5.00000000000002);
#62=CIRCLE('',#1048,5.);
#63=FACE_OUTER_BOUND('',#113,.T.);
#64=FACE_OUTER_BOUND('',#114,.T.);
#65=FACE_OUTER_BOUND('',#115,.T.);
#66=FACE_OUTER_BOUND('',#116,.T.);
#67=FACE_OUTER_BOUND('',#117,.T.);
#68=FACE_OUTER_BOUND('',#118,.T.);
#69=FACE_OUTER_BOUND('',#119,.T.);
#70=FACE_OUTER_BOUND('',#120,.T.);
#71=FACE_OUTER_BOUND('',#121,.T.);
#72=FACE_OUTER_BOUND('',#122,.T.);
#73=FACE_OUTER_BOUND('',#123,.T.);
#74=FACE_OUTER_BOUND('',#124,.T.);
#75=FACE_OUTER_BOUND('',#125,.T.);
#76=FACE_OUTER_BOUND('',#126,.T.);
#77=FACE_OUTER_BOUND('',#127,.T.);
#78=FACE_OUTER_BOUND('',#128,.T.);
#79=FACE_OUTER_BOUND('',#129,.T.);
#80=FACE_OUTER_BOUND('',#130,.T.);
#81=FACE_OUTER_BOUND('',#131,.T.);
#82=FACE_OUTER_BOUND('',#132,.T.);
#83=FACE_OUTER_BOUND('',#133,.T.);
#84=FACE_OUTER_BOUND('',#134,.T.);
#85=FACE_OUTER_BOUND('',#135,.T.);
#86=FACE_OUTER_BOUND('',#136,.T.);
#87=FACE_OUTER_BOUND('',#137,.T.);
#88=FACE_OUTER_BOUND('',#138,.T.);
#89=FACE_OUTER_BOUND('',#139,.T.);
#90=FACE_OUTER_BOUND('',#140,.T.);
#91=FACE_OUTER_BOUND('',#141,.T.);
#92=FACE_OUTER_BOUND('',#142,.T.);
#93=FACE_OUTER_BOUND('',#143,.T.);
#94=FACE_OUTER_BOUND('',#144,.T.);
#95=FACE_OUTER_BOUND('',#145,.T.);
#96=FACE_OUTER_BOUND('',#146,.T.);
#97=FACE_OUTER_BOUND('',#147,.T.);
#98=FACE_OUTER_BOUND('',#148,.T.);
#99=FACE_OUTER_BOUND('',#149,.T.);
#100=FACE_OUTER_BOUND('',#150,.T.);
#101=FACE_OUTER_BOUND('',#151,.T.);
#102=FACE_OUTER_BOUND('',#152,.T.);
#103=FACE_OUTER_BOUND('',#153,.T.);
#104=FACE_OUTER_BOUND('',#155,.T.);
#105=FACE_OUTER_BOUND('',#156,.T.);
#106=FACE_OUTER_BOUND('',#158,.T.);
#107=FACE_OUTER_BOUND('',#159,.T.);
#108=FACE_OUTER_BOUND('',#161,.T.);
#109=FACE_OUTER_BOUND('',#162,.T.);
#110=FACE_OUTER_BOUND('',#164,.T.);
#111=FACE_OUTER_BOUND('',#165,.T.);
#112=FACE_OUTER_BOUND('',#170,.T.);
#113=EDGE_LOOP('',(#611,#612,#613,#614));
#114=EDGE_LOOP('',(#615,#616,#617,#618));
#115=EDGE_LOOP('',(#619,#620,#621,#622));
#116=EDGE_LOOP('',(#623,#624,#625,#626));
#117=EDGE_LOOP('',(#627,#628,#629,#630));
#118=EDGE_LOOP('',(#631,#632,#633,#634));
#119=EDGE_LOOP('',(#635,#636,#637,#638,#639,#640,#641,#642));
#120=EDGE_LOOP('',(#643,#644,#645,#646,#647,#648,#649,#650));
#121=EDGE_LOOP('',(#651,#652,#653,#654,#655,#656,#657,#658,#659,#660,#661,
#662));
#122=EDGE_LOOP('',(#663,#664,#665,#666));
#123=EDGE_LOOP('',(#667,#668,#669,#670));
#124=EDGE_LOOP('',(#671,#672,#673,#674));
#125=EDGE_LOOP('',(#675,#676,#677,#678));
#126=EDGE_LOOP('',(#679,#680,#681,#682));
#127=EDGE_LOOP('',(#683,#684,#685,#686));
#128=EDGE_LOOP('',(#687,#688,#689,#690));
#129=EDGE_LOOP('',(#691,#692,#693,#694));
#130=EDGE_LOOP('',(#695,#696,#697,#698));
#131=EDGE_LOOP('',(#699,#700,#701,#702));
#132=EDGE_LOOP('',(#703,#704,#705,#706));
#133=EDGE_LOOP('',(#707,#708,#709,#710));
#134=EDGE_LOOP('',(#711,#712,#713,#714));
#135=EDGE_LOOP('',(#715,#716,#717,#718));
#136=EDGE_LOOP('',(#719,#720,#721,#722));
#137=EDGE_LOOP('',(#723,#724,#725,#726));
#138=EDGE_LOOP('',(#727,#728,#729,#730));
#139=EDGE_LOOP('',(#731,#732,#733,#734));
#140=EDGE_LOOP('',(#735,#736,#737,#738));
#141=EDGE_LOOP('',(#739,#740,#741,#742));
#142=EDGE_LOOP('',(#743,#744,#745,#746));
#143=EDGE_LOOP('',(#747,#748,#749,#750));
#144=EDGE_LOOP('',(#751,#752,#753,#754));
#145=EDGE_LOOP('',(#755,#756,#757,#758));
#146=EDGE_LOOP('',(#759,#760,#761,#762));
#147=EDGE_LOOP('',(#763,#764,#765,#766));
#148=EDGE_LOOP('',(#767,#768,#769,#770,#771,#772,#773,#774,#775,#776,#777,
#778));
#149=EDGE_LOOP('',(#779,#780,#781,#782));
#150=EDGE_LOOP('',(#783,#784,#785,#786));
#151=EDGE_LOOP('',(#787,#788,#789,#790));
#152=EDGE_LOOP('',(#791,#792,#793,#794));
#153=EDGE_LOOP('',(#795,#796,#797,#798));
#154=EDGE_LOOP('',(#799,#800,#801,#802));
#155=EDGE_LOOP('',(#803,#804,#805,#806));
#156=EDGE_LOOP('',(#807,#808,#809,#810,#811,#812,#813,#814));
#157=EDGE_LOOP('',(#815,#816,#817,#818));
#158=EDGE_LOOP('',(#819,#820,#821,#822));
#159=EDGE_LOOP('',(#823,#824,#825,#826));
#160=EDGE_LOOP('',(#827,#828,#829,#830));
#161=EDGE_LOOP('',(#831,#832,#833,#834));
#162=EDGE_LOOP('',(#835,#836,#837,#838,#839,#840,#841,#842));
#163=EDGE_LOOP('',(#843,#844,#845,#846));
#164=EDGE_LOOP('',(#847,#848,#849,#850));
#165=EDGE_LOOP('',(#851,#852,#853,#854,#855,#856,#857,#858));
#166=EDGE_LOOP('',(#859));
#167=EDGE_LOOP('',(#860));
#168=EDGE_LOOP('',(#861));
#169=EDGE_LOOP('',(#862));
#170=EDGE_LOOP('',(#863,#864,#865,#866,#867,#868,#869,#870));
#171=EDGE_LOOP('',(#871));
#172=EDGE_LOOP('',(#872));
#173=EDGE_LOOP('',(#873));
#174=EDGE_LOOP('',(#874));
#175=LINE('',#1313,#283);
#176=LINE('',#1315,#284);
#177=LINE('',#1317,#285);
#178=LINE('',#1318,#286);
#179=LINE('',#1322,#287);
#180=LINE('',#1324,#288);
#181=LINE('',#1326,#289);
#182=LINE('',#1327,#290);
#183=LINE('',#1330,#291);
#184=LINE('',#1332,#292);
#185=LINE('',#1333,#293);
#186=LINE('',#1336,#294);
#187=LINE('',#1338,#295);
#188=LINE('',#1339,#296);
#189=LINE('',#1342,#297);
#190=LINE('',#1344,#298);
#191=LINE('',#1345,#299);
#192=LINE('',#1348,#300);
#193=LINE('',#1350,#301);
#194=LINE('',#1351,#302);
#195=LINE('',#1354,#303);
#196=LINE('',#1356,#304);
#197=LINE('',#1358,#305);
#198=LINE('',#1360,#306);
#199=LINE('',#1361,#307);
#200=LINE('',#1364,#308);
#201=LINE('',#1366,#309);
#202=LINE('',#1368,#310);
#203=LINE('',#1370,#311);
#204=LINE('',#1371,#312);
#205=LINE('',#1374,#313);
#206=LINE('',#1378,#314);
#207=LINE('',#1381,#315);
#208=LINE('',#1385,#316);
#209=LINE('',#1390,#317);
#210=LINE('',#1392,#318);
#211=LINE('',#1394,#319);
#212=LINE('',#1395,#320);
#213=LINE('',#1398,#321);
#214=LINE('',#1400,#322);
#215=LINE('',#1401,#323);
#216=LINE('',#1404,#324);
#217=LINE('',#1406,#325);
#218=LINE('',#1407,#326);
#219=LINE('',#1409,#327);
#220=LINE('',#1410,#328);
#221=LINE('',#1415,#329);
#222=LINE('',#1417,#330);
#223=LINE('',#1419,#331);
#224=LINE('',#1420,#332);
#225=LINE('',#1423,#333);
#226=LINE('',#1425,#334);
#227=LINE('',#1426,#335);
#228=LINE('',#1429,#336);
#229=LINE('',#1431,#337);
#230=LINE('',#1432,#338);
#231=LINE('',#1434,#339);
#232=LINE('',#1435,#340);
#233=LINE('',#1440,#341);
#234=LINE('',#1442,#342);
#235=LINE('',#1444,#343);
#236=LINE('',#1445,#344);
#237=LINE('',#1448,#345);
#238=LINE('',#1450,#346);
#239=LINE('',#1451,#347);
#240=LINE('',#1454,#348);
#241=LINE('',#1456,#349);
#242=LINE('',#1457,#350);
#243=LINE('',#1459,#351);
#244=LINE('',#1460,#352);
#245=LINE('',#1465,#353);
#246=LINE('',#1467,#354);
#247=LINE('',#1469,#355);
#248=LINE('',#1470,#356);
#249=LINE('',#1473,#357);
#250=LINE('',#1475,#358);
#251=LINE('',#1476,#359);
#252=LINE('',#1479,#360);
#253=LINE('',#1481,#361);
#254=LINE('',#1482,#362);
#255=LINE('',#1484,#363);
#256=LINE('',#1485,#364);
#257=LINE('',#1490,#365);
#258=LINE('',#1493,#366);
#259=LINE('',#1494,#367);
#260=LINE('',#1502,#368);
#261=LINE('',#1505,#369);
#262=LINE('',#1507,#370);
#263=LINE('',#1508,#371);
#264=LINE('',#1514,#372);
#265=LINE('',#1518,#373);
#266=LINE('',#1521,#374);
#267=LINE('',#1526,#375);
#268=LINE('',#1532,#376);
#269=LINE('',#1538,#377);
#270=LINE('',#1544,#378);
#271=LINE('',#1549,#379);
#272=LINE('',#1550,#380);
#273=LINE('',#1551,#381);
#274=LINE('',#1555,#382);
#275=LINE('',#1558,#383);
#276=LINE('',#1559,#384);
#277=LINE('',#1563,#385);
#278=LINE('',#1566,#386);
#279=LINE('',#1567,#387);
#280=LINE('',#1571,#388);
#281=LINE('',#1574,#389);
#282=LINE('',#1575,#390);
#283=VECTOR('',#1055,10.);
#284=VECTOR('',#1056,10.);
#285=VECTOR('',#1057,10.);
#286=VECTOR('',#1058,10.);
#287=VECTOR('',#1061,10.);
#288=VECTOR('',#1062,10.);
#289=VECTOR('',#1063,10.);
#290=VECTOR('',#1064,10.);
#291=VECTOR('',#1067,10.);
#292=VECTOR('',#1068,10.);
#293=VECTOR('',#1069,10.);
#294=VECTOR('',#1072,10.);
#295=VECTOR('',#1073,10.);
#296=VECTOR('',#1074,10.);
#297=VECTOR('',#1077,10.);
#298=VECTOR('',#1078,10.);
#299=VECTOR('',#1079,10.);
#300=VECTOR('',#1082,10.);
#301=VECTOR('',#1083,10.);
#302=VECTOR('',#1084,10.);
#303=VECTOR('',#1087,10.);
#304=VECTOR('',#1088,10.);
#305=VECTOR('',#1089,10.);
#306=VECTOR('',#1090,10.);
#307=VECTOR('',#1091,10.);
#308=VECTOR('',#1094,10.);
#309=VECTOR('',#1095,10.);
#310=VECTOR('',#1096,10.);
#311=VECTOR('',#1097,10.);
#312=VECTOR('',#1098,10.);
#313=VECTOR('',#1101,10.);
#314=VECTOR('',#1104,10.);
#315=VECTOR('',#1107,10.);
#316=VECTOR('',#1110,10.);
#317=VECTOR('',#1115,10.);
#318=VECTOR('',#1116,10.);
#319=VECTOR('',#1117,10.);
#320=VECTOR('',#1118,10.);
#321=VECTOR('',#1121,10.);
#322=VECTOR('',#1122,10.);
#323=VECTOR('',#1123,10.);
#324=VECTOR('',#1126,10.);
#325=VECTOR('',#1127,10.);
#326=VECTOR('',#1128,10.);
#327=VECTOR('',#1131,10.);
#328=VECTOR('',#1132,10.);
#329=VECTOR('',#1137,10.);
#330=VECTOR('',#1138,10.);
#331=VECTOR('',#1139,10.);
#332=VECTOR('',#1140,10.);
#333=VECTOR('',#1143,10.);
#334=VECTOR('',#1144,10.);
#335=VECTOR('',#1145,10.);
#336=VECTOR('',#1148,10.);
#337=VECTOR('',#1149,10.);
#338=VECTOR('',#1150,10.);
#339=VECTOR('',#1153,10.);
#340=VECTOR('',#1154,10.);
#341=VECTOR('',#1159,10.);
#342=VECTOR('',#1160,10.);
#343=VECTOR('',#1161,10.);
#344=VECTOR('',#1162,10.);
#345=VECTOR('',#1165,10.);
#346=VECTOR('',#1166,10.);
#347=VECTOR('',#1167,10.);
#348=VECTOR('',#1170,10.);
#349=VECTOR('',#1171,10.);
#350=VECTOR('',#1172,10.);
#351=VECTOR('',#1175,10.);
#352=VECTOR('',#1176,10.);
#353=VECTOR('',#1181,10.);
#354=VECTOR('',#1182,10.);
#355=VECTOR('',#1183,10.);
#356=VECTOR('',#1184,10.);
#357=VECTOR('',#1187,10.);
#358=VECTOR('',#1188,10.);
#359=VECTOR('',#1189,10.);
#360=VECTOR('',#1192,10.);
#361=VECTOR('',#1193,10.);
#362=VECTOR('',#1194,10.);
#363=VECTOR('',#1197,10.);
#364=VECTOR('',#1198,10.);
#365=VECTOR('',#1205,10.);
#366=VECTOR('',#1208,10.);
#367=VECTOR('',#1209,10.);
#368=VECTOR('',#1220,10.);
#369=VECTOR('',#1223,10.);
#370=VECTOR('',#1224,10.);
#371=VECTOR('',#1225,10.);
#372=VECTOR('',#1234,10.);
#373=VECTOR('',#1237,10.);
#374=VECTOR('',#1240,10.);
#375=VECTOR('',#1245,3.50000000000001);
#376=VECTOR('',#1252,3.50000000000001);
#377=VECTOR('',#1259,3.50000000000001);
#378=VECTOR('',#1266,3.50000000000001);
#379=VECTOR('',#1271,10.);
#380=VECTOR('',#1272,10.);
#381=VECTOR('',#1273,10.);
#382=VECTOR('',#1278,10.);
#383=VECTOR('',#1281,10.);
#384=VECTOR('',#1282,10.);
#385=VECTOR('',#1287,10.);
#386=VECTOR('',#1290,10.);
#387=VECTOR('',#1291,10.);
#388=VECTOR('',#1296,10.);
#389=VECTOR('',#1299,10.);
#390=VECTOR('',#1300,10.);
#391=VERTEX_POINT('',#1311);
#392=VERTEX_POINT('',#1312);
#393=VERTEX_POINT('',#1314);
#394=VERTEX_POINT('',#1316);
#395=VERTEX_POINT('',#1320);
#396=VERTEX_POINT('',#1321);
#397=VERTEX_POINT('',#1323);
#398=VERTEX_POINT('',#1325);
#399=VERTEX_POINT('',#1329);
#400=VERTEX_POINT('',#1331);
#401=VERTEX_POINT('',#1335);
#402=VERTEX_POINT('',#1337);
#403=VERTEX_POINT('',#1341);
#404=VERTEX_POINT('',#1343);
#405=VERTEX_POINT('',#1347);
#406=VERTEX_POINT('',#1349);
#407=VERTEX_POINT('',#1353);
#408=VERTEX_POINT('',#1355);
#409=VERTEX_POINT('',#1357);
#410=VERTEX_POINT('',#1359);
#411=VERTEX_POINT('',#1363);
#412=VERTEX_POINT('',#1365);
#413=VERTEX_POINT('',#1367);
#414=VERTEX_POINT('',#1369);
#415=VERTEX_POINT('',#1373);
#416=VERTEX_POINT('',#1375);
#417=VERTEX_POINT('',#1377);
#418=VERTEX_POINT('',#1379);
#419=VERTEX_POINT('',#1382);
#420=VERTEX_POINT('',#1384);
#421=VERTEX_POINT('',#1388);
#422=VERTEX_POINT('',#1389);
#423=VERTEX_POINT('',#1391);
#424=VERTEX_POINT('',#1393);
#425=VERTEX_POINT('',#1397);
#426=VERTEX_POINT('',#1399);
#427=VERTEX_POINT('',#1403);
#428=VERTEX_POINT('',#1405);
#429=VERTEX_POINT('',#1413);
#430=VERTEX_POINT('',#1414);
#431=VERTEX_POINT('',#1416);
#432=VERTEX_POINT('',#1418);
#433=VERTEX_POINT('',#1422);
#434=VERTEX_POINT('',#1424);
#435=VERTEX_POINT('',#1428);
#436=VERTEX_POINT('',#1430);
#437=VERTEX_POINT('',#1438);
#438=VERTEX_POINT('',#1439);
#439=VERTEX_POINT('',#1441);
#440=VERTEX_POINT('',#1443);
#441=VERTEX_POINT('',#1447);
#442=VERTEX_POINT('',#1449);
#443=VERTEX_POINT('',#1453);
#444=VERTEX_POINT('',#1455);
#445=VERTEX_POINT('',#1463);
#446=VERTEX_POINT('',#1464);
#447=VERTEX_POINT('',#1466);
#448=VERTEX_POINT('',#1468);
#449=VERTEX_POINT('',#1472);
#450=VERTEX_POINT('',#1474);
#451=VERTEX_POINT('',#1478);
#452=VERTEX_POINT('',#1480);
#453=VERTEX_POINT('',#1488);
#454=VERTEX_POINT('',#1492);
#455=VERTEX_POINT('',#1498);
#456=VERTEX_POINT('',#1500);
#457=VERTEX_POINT('',#1504);
#458=VERTEX_POINT('',#1506);
#459=VERTEX_POINT('',#1513);
#460=VERTEX_POINT('',#1515);
#461=VERTEX_POINT('',#1517);
#462=VERTEX_POINT('',#1519);
#463=VERTEX_POINT('',#1523);
#464=VERTEX_POINT('',#1525);
#465=VERTEX_POINT('',#1529);
#466=VERTEX_POINT('',#1531);
#467=VERTEX_POINT('',#1535);
#468=VERTEX_POINT('',#1537);
#469=VERTEX_POINT('',#1541);
#470=VERTEX_POINT('',#1543);
#471=VERTEX_POINT('',#1547);
#472=VERTEX_POINT('',#1548);
#473=VERTEX_POINT('',#1553);
#474=VERTEX_POINT('',#1557);
#475=VERTEX_POINT('',#1561);
#476=VERTEX_POINT('',#1565);
#477=VERTEX_POINT('',#1569);
#478=VERTEX_POINT('',#1573);
#479=EDGE_CURVE('',#391,#392,#175,.T.);
#480=EDGE_CURVE('',#393,#391,#176,.T.);
#481=EDGE_CURVE('',#394,#393,#177,.T.);
#482=EDGE_CURVE('',#394,#392,#178,.T.);
#483=EDGE_CURVE('',#395,#396,#179,.T.);
#484=EDGE_CURVE('',#395,#397,#180,.T.);
#485=EDGE_CURVE('',#398,#397,#181,.T.);
#486=EDGE_CURVE('',#396,#398,#182,.T.);
#487=EDGE_CURVE('',#399,#391,#183,.T.);
#488=EDGE_CURVE('',#400,#399,#184,.T.);
#489=EDGE_CURVE('',#393,#400,#185,.T.);
#490=EDGE_CURVE('',#396,#401,#186,.T.);
#491=EDGE_CURVE('',#402,#398,#187,.T.);
#492=EDGE_CURVE('',#401,#402,#188,.T.);
#493=EDGE_CURVE('',#392,#403,#189,.T.);
#494=EDGE_CURVE('',#404,#394,#190,.T.);
#495=EDGE_CURVE('',#403,#404,#191,.T.);
#496=EDGE_CURVE('',#405,#395,#192,.T.);
#497=EDGE_CURVE('',#406,#405,#193,.T.);
#498=EDGE_CURVE('',#397,#406,#194,.T.);
#499=EDGE_CURVE('',#407,#401,#195,.T.);
#500=EDGE_CURVE('',#408,#407,#196,.T.);
#501=EDGE_CURVE('',#409,#408,#197,.T.);
#502=EDGE_CURVE('',#409,#410,#198,.T.);
#503=EDGE_CURVE('',#405,#410,#199,.T.);
#504=EDGE_CURVE('',#411,#403,#200,.T.);
#505=EDGE_CURVE('',#412,#411,#201,.T.);
#506=EDGE_CURVE('',#413,#412,#202,.T.);
#507=EDGE_CURVE('',#413,#414,#203,.T.);
#508=EDGE_CURVE('',#399,#414,#204,.T.);
#509=EDGE_CURVE('',#402,#415,#205,.T.);
#510=EDGE_CURVE('',#415,#416,#39,.T.);
#511=EDGE_CURVE('',#416,#417,#206,.T.);
#512=EDGE_CURVE('',#417,#418,#40,.T.);
#513=EDGE_CURVE('',#418,#400,#207,.T.);
#514=EDGE_CURVE('',#414,#419,#41,.T.);
#515=EDGE_CURVE('',#419,#420,#208,.T.);
#516=EDGE_CURVE('',#420,#407,#42,.T.);
#517=EDGE_CURVE('',#421,#422,#209,.T.);
#518=EDGE_CURVE('',#421,#423,#210,.T.);
#519=EDGE_CURVE('',#423,#424,#211,.T.);
#520=EDGE_CURVE('',#422,#424,#212,.T.);
#521=EDGE_CURVE('',#425,#421,#213,.T.);
#522=EDGE_CURVE('',#425,#426,#214,.T.);
#523=EDGE_CURVE('',#426,#423,#215,.T.);
#524=EDGE_CURVE('',#427,#425,#216,.T.);
#525=EDGE_CURVE('',#427,#428,#217,.T.);
#526=EDGE_CURVE('',#428,#426,#218,.T.);
#527=EDGE_CURVE('',#422,#427,#219,.T.);
#528=EDGE_CURVE('',#424,#428,#220,.T.);
#529=EDGE_CURVE('',#429,#430,#221,.T.);
#530=EDGE_CURVE('',#429,#431,#222,.T.);
#531=EDGE_CURVE('',#431,#432,#223,.T.);
#532=EDGE_CURVE('',#430,#432,#224,.T.);
#533=EDGE_CURVE('',#433,#429,#225,.T.);
#534=EDGE_CURVE('',#433,#434,#226,.T.);
#535=EDGE_CURVE('',#434,#431,#227,.T.);
#536=EDGE_CURVE('',#435,#433,#228,.T.);
#537=EDGE_CURVE('',#435,#436,#229,.T.);
#538=EDGE_CURVE('',#436,#434,#230,.T.);
#539=EDGE_CURVE('',#430,#435,#231,.T.);
#540=EDGE_CURVE('',#432,#436,#232,.T.);
#541=EDGE_CURVE('',#437,#438,#233,.T.);
#542=EDGE_CURVE('',#437,#439,#234,.T.);
#543=EDGE_CURVE('',#439,#440,#235,.T.);
#544=EDGE_CURVE('',#438,#440,#236,.T.);
#545=EDGE_CURVE('',#441,#437,#237,.T.);
#546=EDGE_CURVE('',#441,#442,#238,.T.);
#547=EDGE_CURVE('',#442,#439,#239,.T.);
#548=EDGE_CURVE('',#443,#441,#240,.T.);
#549=EDGE_CURVE('',#443,#444,#241,.T.);
#550=EDGE_CURVE('',#444,#442,#242,.T.);
#551=EDGE_CURVE('',#438,#443,#243,.T.);
#552=EDGE_CURVE('',#440,#444,#244,.T.);
#553=EDGE_CURVE('',#445,#446,#245,.T.);
#554=EDGE_CURVE('',#445,#447,#246,.T.);
#555=EDGE_CURVE('',#447,#448,#247,.T.);
#556=EDGE_CURVE('',#446,#448,#248,.T.);
#557=EDGE_CURVE('',#449,#445,#249,.T.);
#558=EDGE_CURVE('',#449,#450,#250,.T.);
#559=EDGE_CURVE('',#450,#447,#251,.T.);
#560=EDGE_CURVE('',#451,#449,#252,.T.);
#561=EDGE_CURVE('',#451,#452,#253,.T.);
#562=EDGE_CURVE('',#452,#450,#254,.T.);
#563=EDGE_CURVE('',#446,#451,#255,.T.);
#564=EDGE_CURVE('',#448,#452,#256,.T.);
#565=EDGE_CURVE('',#453,#413,#43,.T.);
#566=EDGE_CURVE('',#453,#419,#257,.T.);
#567=EDGE_CURVE('',#454,#453,#258,.T.);
#568=EDGE_CURVE('',#454,#420,#259,.T.);
#569=EDGE_CURVE('',#408,#454,#44,.T.);
#570=EDGE_CURVE('',#412,#455,#45,.T.);
#571=EDGE_CURVE('',#456,#411,#46,.T.);
#572=EDGE_CURVE('',#455,#456,#260,.T.);
#573=EDGE_CURVE('',#455,#457,#261,.T.);
#574=EDGE_CURVE('',#458,#456,#262,.T.);
#575=EDGE_CURVE('',#457,#458,#263,.T.);
#576=EDGE_CURVE('',#457,#409,#47,.T.);
#577=EDGE_CURVE('',#410,#458,#48,.T.);
#578=EDGE_CURVE('',#404,#459,#264,.T.);
#579=EDGE_CURVE('',#459,#460,#49,.T.);
#580=EDGE_CURVE('',#460,#461,#265,.T.);
#581=EDGE_CURVE('',#461,#462,#50,.T.);
#582=EDGE_CURVE('',#462,#406,#266,.T.);
#583=EDGE_CURVE('',#463,#463,#51,.T.);
#584=EDGE_CURVE('',#463,#464,#267,.T.);
#585=EDGE_CURVE('',#464,#464,#52,.T.);
#586=EDGE_CURVE('',#465,#465,#53,.T.);
#587=EDGE_CURVE('',#465,#466,#268,.T.);
#588=EDGE_CURVE('',#466,#466,#54,.T.);
#589=EDGE_CURVE('',#467,#467,#55,.T.);
#590=EDGE_CURVE('',#467,#468,#269,.T.);
#591=EDGE_CURVE('',#468,#468,#56,.T.);
#592=EDGE_CURVE('',#469,#469,#57,.T.);
#593=EDGE_CURVE('',#469,#470,#270,.T.);
#594=EDGE_CURVE('',#470,#470,#58,.T.);
#595=EDGE_CURVE('',#471,#472,#271,.T.);
#596=EDGE_CURVE('',#471,#417,#272,.T.);
#597=EDGE_CURVE('',#472,#416,#273,.T.);
#598=EDGE_CURVE('',#473,#472,#59,.T.);
#599=EDGE_CURVE('',#473,#415,#274,.T.);
#600=EDGE_CURVE('',#474,#462,#275,.T.);
#601=EDGE_CURVE('',#473,#474,#276,.T.);
#602=EDGE_CURVE('',#475,#474,#60,.T.);
#603=EDGE_CURVE('',#475,#461,#277,.T.);
#604=EDGE_CURVE('',#475,#476,#278,.T.);
#605=EDGE_CURVE('',#476,#460,#279,.T.);
#606=EDGE_CURVE('',#477,#476,#61,.T.);
#607=EDGE_CURVE('',#477,#459,#280,.T.);
#608=EDGE_CURVE('',#478,#418,#281,.T.);
#609=EDGE_CURVE('',#477,#478,#282,.T.);
#610=EDGE_CURVE('',#471,#478,#62,.T.);
#611=ORIENTED_EDGE('',*,*,#479,.F.);
#612=ORIENTED_EDGE('',*,*,#480,.F.);
#613=ORIENTED_EDGE('',*,*,#481,.F.);
#614=ORIENTED_EDGE('',*,*,#482,.T.);
#615=ORIENTED_EDGE('',*,*,#483,.F.);
#616=ORIENTED_EDGE('',*,*,#484,.T.);
#617=ORIENTED_EDGE('',*,*,#485,.F.);
#618=ORIENTED_EDGE('',*,*,#486,.F.);
#619=ORIENTED_EDGE('',*,*,#487,.F.);
#620=ORIENTED_EDGE('',*,*,#488,.F.);
#621=ORIENTED_EDGE('',*,*,#489,.F.);
#622=ORIENTED_EDGE('',*,*,#480,.T.);
#623=ORIENTED_EDGE('',*,*,#490,.F.);
#624=ORIENTED_EDGE('',*,*,#486,.T.);
#625=ORIENTED_EDGE('',*,*,#491,.F.);
#626=ORIENTED_EDGE('',*,*,#492,.F.);
#627=ORIENTED_EDGE('',*,*,#493,.F.);
#628=ORIENTED_EDGE('',*,*,#482,.F.);
#629=ORIENTED_EDGE('',*,*,#494,.F.);
#630=ORIENTED_EDGE('',*,*,#495,.F.);
#631=ORIENTED_EDGE('',*,*,#496,.F.);
#632=ORIENTED_EDGE('',*,*,#497,.F.);
#633=ORIENTED_EDGE('',*,*,#498,.F.);
#634=ORIENTED_EDGE('',*,*,#484,.F.);
#635=ORIENTED_EDGE('',*,*,#496,.T.);
#636=ORIENTED_EDGE('',*,*,#483,.T.);
#637=ORIENTED_EDGE('',*,*,#490,.T.);
#638=ORIENTED_EDGE('',*,*,#499,.F.);
#639=ORIENTED_EDGE('',*,*,#500,.F.);
#640=ORIENTED_EDGE('',*,*,#501,.F.);
#641=ORIENTED_EDGE('',*,*,#502,.T.);
#642=ORIENTED_EDGE('',*,*,#503,.F.);
#643=ORIENTED_EDGE('',*,*,#487,.T.);
#644=ORIENTED_EDGE('',*,*,#479,.T.);
#645=ORIENTED_EDGE('',*,*,#493,.T.);
#646=ORIENTED_EDGE('',*,*,#504,.F.);
#647=ORIENTED_EDGE('',*,*,#505,.F.);
#648=ORIENTED_EDGE('',*,*,#506,.F.);
#649=ORIENTED_EDGE('',*,*,#507,.T.);
#650=ORIENTED_EDGE('',*,*,#508,.F.);
#651=ORIENTED_EDGE('',*,*,#492,.T.);
#652=ORIENTED_EDGE('',*,*,#509,.T.);
#653=ORIENTED_EDGE('',*,*,#510,.T.);
#654=ORIENTED_EDGE('',*,*,#511,.T.);
#655=ORIENTED_EDGE('',*,*,#512,.T.);
#656=ORIENTED_EDGE('',*,*,#513,.T.);
#657=ORIENTED_EDGE('',*,*,#488,.T.);
#658=ORIENTED_EDGE('',*,*,#508,.T.);
#659=ORIENTED_EDGE('',*,*,#514,.T.);
#660=ORIENTED_EDGE('',*,*,#515,.T.);
#661=ORIENTED_EDGE('',*,*,#516,.T.);
#662=ORIENTED_EDGE('',*,*,#499,.T.);
#663=ORIENTED_EDGE('',*,*,#517,.F.);
#664=ORIENTED_EDGE('',*,*,#518,.T.);
#665=ORIENTED_EDGE('',*,*,#519,.T.);
#666=ORIENTED_EDGE('',*,*,#520,.F.);
#667=ORIENTED_EDGE('',*,*,#521,.F.);
#668=ORIENTED_EDGE('',*,*,#522,.T.);
#669=ORIENTED_EDGE('',*,*,#523,.T.);
#670=ORIENTED_EDGE('',*,*,#518,.F.);
#671=ORIENTED_EDGE('',*,*,#524,.F.);
#672=ORIENTED_EDGE('',*,*,#525,.T.);
#673=ORIENTED_EDGE('',*,*,#526,.T.);
#674=ORIENTED_EDGE('',*,*,#522,.F.);
#675=ORIENTED_EDGE('',*,*,#527,.F.);
#676=ORIENTED_EDGE('',*,*,#520,.T.);
#677=ORIENTED_EDGE('',*,*,#528,.T.);
#678=ORIENTED_EDGE('',*,*,#525,.F.);
#679=ORIENTED_EDGE('',*,*,#528,.F.);
#680=ORIENTED_EDGE('',*,*,#519,.F.);
#681=ORIENTED_EDGE('',*,*,#523,.F.);
#682=ORIENTED_EDGE('',*,*,#526,.F.);
#683=ORIENTED_EDGE('',*,*,#529,.F.);
#684=ORIENTED_EDGE('',*,*,#530,.T.);
#685=ORIENTED_EDGE('',*,*,#531,.T.);
#686=ORIENTED_EDGE('',*,*,#532,.F.);
#687=ORIENTED_EDGE('',*,*,#533,.F.);
#688=ORIENTED_EDGE('',*,*,#534,.T.);
#689=ORIENTED_EDGE('',*,*,#535,.T.);
#690=ORIENTED_EDGE('',*,*,#530,.F.);
#691=ORIENTED_EDGE('',*,*,#536,.F.);
#692=ORIENTED_EDGE('',*,*,#537,.T.);
#693=ORIENTED_EDGE('',*,*,#538,.T.);
#694=ORIENTED_EDGE('',*,*,#534,.F.);
#695=ORIENTED_EDGE('',*,*,#539,.F.);
#696=ORIENTED_EDGE('',*,*,#532,.T.);
#697=ORIENTED_EDGE('',*,*,#540,.T.);
#698=ORIENTED_EDGE('',*,*,#537,.F.);
#699=ORIENTED_EDGE('',*,*,#540,.F.);
#700=ORIENTED_EDGE('',*,*,#531,.F.);
#701=ORIENTED_EDGE('',*,*,#535,.F.);
#702=ORIENTED_EDGE('',*,*,#538,.F.);
#703=ORIENTED_EDGE('',*,*,#541,.F.);
#704=ORIENTED_EDGE('',*,*,#542,.T.);
#705=ORIENTED_EDGE('',*,*,#543,.T.);
#706=ORIENTED_EDGE('',*,*,#544,.F.);
#707=ORIENTED_EDGE('',*,*,#545,.F.);
#708=ORIENTED_EDGE('',*,*,#546,.T.);
#709=ORIENTED_EDGE('',*,*,#547,.T.);
#710=ORIENTED_EDGE('',*,*,#542,.F.);
#711=ORIENTED_EDGE('',*,*,#548,.F.);
#712=ORIENTED_EDGE('',*,*,#549,.T.);
#713=ORIENTED_EDGE('',*,*,#550,.T.);
#714=ORIENTED_EDGE('',*,*,#546,.F.);
#715=ORIENTED_EDGE('',*,*,#551,.F.);
#716=ORIENTED_EDGE('',*,*,#544,.T.);
#717=ORIENTED_EDGE('',*,*,#552,.T.);
#718=ORIENTED_EDGE('',*,*,#549,.F.);
#719=ORIENTED_EDGE('',*,*,#552,.F.);
#720=ORIENTED_EDGE('',*,*,#543,.F.);
#721=ORIENTED_EDGE('',*,*,#547,.F.);
#722=ORIENTED_EDGE('',*,*,#550,.F.);
#723=ORIENTED_EDGE('',*,*,#553,.F.);
#724=ORIENTED_EDGE('',*,*,#554,.T.);
#725=ORIENTED_EDGE('',*,*,#555,.T.);
#726=ORIENTED_EDGE('',*,*,#556,.F.);
#727=ORIENTED_EDGE('',*,*,#557,.F.);
#728=ORIENTED_EDGE('',*,*,#558,.T.);
#729=ORIENTED_EDGE('',*,*,#559,.T.);
#730=ORIENTED_EDGE('',*,*,#554,.F.);
#731=ORIENTED_EDGE('',*,*,#560,.F.);
#732=ORIENTED_EDGE('',*,*,#561,.T.);
#733=ORIENTED_EDGE('',*,*,#562,.T.);
#734=ORIENTED_EDGE('',*,*,#558,.F.);
#735=ORIENTED_EDGE('',*,*,#563,.F.);
#736=ORIENTED_EDGE('',*,*,#556,.T.);
#737=ORIENTED_EDGE('',*,*,#564,.T.);
#738=ORIENTED_EDGE('',*,*,#561,.F.);
#739=ORIENTED_EDGE('',*,*,#564,.F.);
#740=ORIENTED_EDGE('',*,*,#555,.F.);
#741=ORIENTED_EDGE('',*,*,#559,.F.);
#742=ORIENTED_EDGE('',*,*,#562,.F.);
#743=ORIENTED_EDGE('',*,*,#565,.F.);
#744=ORIENTED_EDGE('',*,*,#566,.T.);
#745=ORIENTED_EDGE('',*,*,#514,.F.);
#746=ORIENTED_EDGE('',*,*,#507,.F.);
#747=ORIENTED_EDGE('',*,*,#567,.F.);
#748=ORIENTED_EDGE('',*,*,#568,.T.);
#749=ORIENTED_EDGE('',*,*,#515,.F.);
#750=ORIENTED_EDGE('',*,*,#566,.F.);
#751=ORIENTED_EDGE('',*,*,#569,.F.);
#752=ORIENTED_EDGE('',*,*,#500,.T.);
#753=ORIENTED_EDGE('',*,*,#516,.F.);
#754=ORIENTED_EDGE('',*,*,#568,.F.);
#755=ORIENTED_EDGE('',*,*,#570,.F.);
#756=ORIENTED_EDGE('',*,*,#505,.T.);
#757=ORIENTED_EDGE('',*,*,#571,.F.);
#758=ORIENTED_EDGE('',*,*,#572,.F.);
#759=ORIENTED_EDGE('',*,*,#573,.F.);
#760=ORIENTED_EDGE('',*,*,#572,.T.);
#761=ORIENTED_EDGE('',*,*,#574,.F.);
#762=ORIENTED_EDGE('',*,*,#575,.F.);
#763=ORIENTED_EDGE('',*,*,#576,.F.);
#764=ORIENTED_EDGE('',*,*,#575,.T.);
#765=ORIENTED_EDGE('',*,*,#577,.F.);
#766=ORIENTED_EDGE('',*,*,#502,.F.);
#767=ORIENTED_EDGE('',*,*,#497,.T.);
#768=ORIENTED_EDGE('',*,*,#503,.T.);
#769=ORIENTED_EDGE('',*,*,#577,.T.);
#770=ORIENTED_EDGE('',*,*,#574,.T.);
#771=ORIENTED_EDGE('',*,*,#571,.T.);
#772=ORIENTED_EDGE('',*,*,#504,.T.);
#773=ORIENTED_EDGE('',*,*,#495,.T.);
#774=ORIENTED_EDGE('',*,*,#578,.T.);
#775=ORIENTED_EDGE('',*,*,#579,.T.);
#776=ORIENTED_EDGE('',*,*,#580,.T.);
#777=ORIENTED_EDGE('',*,*,#581,.T.);
#778=ORIENTED_EDGE('',*,*,#582,.T.);
#779=ORIENTED_EDGE('',*,*,#583,.F.);
#780=ORIENTED_EDGE('',*,*,#584,.T.);
#781=ORIENTED_EDGE('',*,*,#585,.T.);
#782=ORIENTED_EDGE('',*,*,#584,.F.);
#783=ORIENTED_EDGE('',*,*,#586,.F.);
#784=ORIENTED_EDGE('',*,*,#587,.T.);
#785=ORIENTED_EDGE('',*,*,#588,.T.);
#786=ORIENTED_EDGE('',*,*,#587,.F.);
#787=ORIENTED_EDGE('',*,*,#589,.F.);
#788=ORIENTED_EDGE('',*,*,#590,.T.);
#789=ORIENTED_EDGE('',*,*,#591,.T.);
#790=ORIENTED_EDGE('',*,*,#590,.F.);
#791=ORIENTED_EDGE('',*,*,#592,.F.);
#792=ORIENTED_EDGE('',*,*,#593,.T.);
#793=ORIENTED_EDGE('',*,*,#594,.T.);
#794=ORIENTED_EDGE('',*,*,#593,.F.);
#795=ORIENTED_EDGE('',*,*,#595,.F.);
#796=ORIENTED_EDGE('',*,*,#596,.T.);
#797=ORIENTED_EDGE('',*,*,#511,.F.);
#798=ORIENTED_EDGE('',*,*,#597,.F.);
#799=ORIENTED_EDGE('',*,*,#553,.T.);
#800=ORIENTED_EDGE('',*,*,#563,.T.);
#801=ORIENTED_EDGE('',*,*,#560,.T.);
#802=ORIENTED_EDGE('',*,*,#557,.T.);
#803=ORIENTED_EDGE('',*,*,#598,.T.);
#804=ORIENTED_EDGE('',*,*,#597,.T.);
#805=ORIENTED_EDGE('',*,*,#510,.F.);
#806=ORIENTED_EDGE('',*,*,#599,.F.);
#807=ORIENTED_EDGE('',*,*,#498,.T.);
#808=ORIENTED_EDGE('',*,*,#582,.F.);
#809=ORIENTED_EDGE('',*,*,#600,.F.);
#810=ORIENTED_EDGE('',*,*,#601,.F.);
#811=ORIENTED_EDGE('',*,*,#599,.T.);
#812=ORIENTED_EDGE('',*,*,#509,.F.);
#813=ORIENTED_EDGE('',*,*,#491,.T.);
#814=ORIENTED_EDGE('',*,*,#485,.T.);
#815=ORIENTED_EDGE('',*,*,#541,.T.);
#816=ORIENTED_EDGE('',*,*,#551,.T.);
#817=ORIENTED_EDGE('',*,*,#548,.T.);
#818=ORIENTED_EDGE('',*,*,#545,.T.);
#819=ORIENTED_EDGE('',*,*,#602,.T.);
#820=ORIENTED_EDGE('',*,*,#600,.T.);
#821=ORIENTED_EDGE('',*,*,#581,.F.);
#822=ORIENTED_EDGE('',*,*,#603,.F.);
#823=ORIENTED_EDGE('',*,*,#604,.F.);
#824=ORIENTED_EDGE('',*,*,#603,.T.);
#825=ORIENTED_EDGE('',*,*,#580,.F.);
#826=ORIENTED_EDGE('',*,*,#605,.F.);
#827=ORIENTED_EDGE('',*,*,#517,.T.);
#828=ORIENTED_EDGE('',*,*,#527,.T.);
#829=ORIENTED_EDGE('',*,*,#524,.T.);
#830=ORIENTED_EDGE('',*,*,#521,.T.);
#831=ORIENTED_EDGE('',*,*,#606,.T.);
#832=ORIENTED_EDGE('',*,*,#605,.T.);
#833=ORIENTED_EDGE('',*,*,#579,.F.);
#834=ORIENTED_EDGE('',*,*,#607,.F.);
#835=ORIENTED_EDGE('',*,*,#489,.T.);
#836=ORIENTED_EDGE('',*,*,#513,.F.);
#837=ORIENTED_EDGE('',*,*,#608,.F.);
#838=ORIENTED_EDGE('',*,*,#609,.F.);
#839=ORIENTED_EDGE('',*,*,#607,.T.);
#840=ORIENTED_EDGE('',*,*,#578,.F.);
#841=ORIENTED_EDGE('',*,*,#494,.T.);
#842=ORIENTED_EDGE('',*,*,#481,.T.);
#843=ORIENTED_EDGE('',*,*,#529,.T.);
#844=ORIENTED_EDGE('',*,*,#539,.T.);
#845=ORIENTED_EDGE('',*,*,#536,.T.);
#846=ORIENTED_EDGE('',*,*,#533,.T.);
#847=ORIENTED_EDGE('',*,*,#610,.T.);
#848=ORIENTED_EDGE('',*,*,#608,.T.);
#849=ORIENTED_EDGE('',*,*,#512,.F.);
#850=ORIENTED_EDGE('',*,*,#596,.F.);
#851=ORIENTED_EDGE('',*,*,#501,.T.);
#852=ORIENTED_EDGE('',*,*,#569,.T.);
#853=ORIENTED_EDGE('',*,*,#567,.T.);
#854=ORIENTED_EDGE('',*,*,#565,.T.);
#855=ORIENTED_EDGE('',*,*,#506,.T.);
#856=ORIENTED_EDGE('',*,*,#570,.T.);
#857=ORIENTED_EDGE('',*,*,#573,.T.);
#858=ORIENTED_EDGE('',*,*,#576,.T.);
#859=ORIENTED_EDGE('',*,*,#592,.T.);
#860=ORIENTED_EDGE('',*,*,#589,.T.);
#861=ORIENTED_EDGE('',*,*,#586,.T.);
#862=ORIENTED_EDGE('',*,*,#583,.T.);
#863=ORIENTED_EDGE('',*,*,#610,.F.);
#864=ORIENTED_EDGE('',*,*,#595,.T.);
#865=ORIENTED_EDGE('',*,*,#598,.F.);
#866=ORIENTED_EDGE('',*,*,#601,.T.);
#867=ORIENTED_EDGE('',*,*,#602,.F.);
#868=ORIENTED_EDGE('',*,*,#604,.T.);
#869=ORIENTED_EDGE('',*,*,#606,.F.);
#870=ORIENTED_EDGE('',*,*,#609,.T.);
#871=ORIENTED_EDGE('',*,*,#594,.F.);
#872=ORIENTED_EDGE('',*,*,#591,.F.);
#873=ORIENTED_EDGE('',*,*,#588,.F.);
#874=ORIENTED_EDGE('',*,*,#585,.F.);
#875=PLANE('',#977);
#876=PLANE('',#978);
#877=PLANE('',#979);
#878=PLANE('',#980);
#879=PLANE('',#981);
#880=PLANE('',#982);
#881=PLANE('',#983);
#882=PLANE('',#984);
#883=PLANE('',#985);
#884=PLANE('',#990);
#885=PLANE('',#991);
#886=PLANE('',#992);
#887=PLANE('',#993);
#888=PLANE('',#994);
#889=PLANE('',#995);
#890=PLANE('',#996);
#891=PLANE('',#997);
#892=PLANE('',#998);
#893=PLANE('',#999);
#894=PLANE('',#1000);
#895=PLANE('',#1001);
#896=PLANE('',#1002);
#897=PLANE('',#1003);
#898=PLANE('',#1004);
#899=PLANE('',#1005);
#900=PLANE('',#1006);
#901=PLANE('',#1007);
#902=PLANE('',#1008);
#903=PLANE('',#1009);
#904=PLANE('',#1012);
#905=PLANE('',#1018);
#906=PLANE('',#1022);
#907=PLANE('',#1037);
#908=PLANE('',#1040);
#909=PLANE('',#1043);
#910=PLANE('',#1046);
#911=PLANE('',#1049);
#912=PLANE('',#1050);
#913=ADVANCED_FACE('',(#63),#875,.F.);
#914=ADVANCED_FACE('',(#64),#876,.F.);
#915=ADVANCED_FACE('',(#65),#877,.F.);
#916=ADVANCED_FACE('',(#66),#878,.F.);
#917=ADVANCED_FACE('',(#67),#879,.F.);
#918=ADVANCED_FACE('',(#68),#880,.F.);
#919=ADVANCED_FACE('',(#69),#881,.T.);
#920=ADVANCED_FACE('',(#70),#882,.T.);
#921=ADVANCED_FACE('',(#71),#883,.T.);
#922=ADVANCED_FACE('',(#72),#884,.F.);
#923=ADVANCED_FACE('',(#73),#885,.F.);
#924=ADVANCED_FACE('',(#74),#886,.F.);
#925=ADVANCED_FACE('',(#75),#887,.F.);
#926=ADVANCED_FACE('',(#76),#888,.F.);
#927=ADVANCED_FACE('',(#77),#889,.F.);
#928=ADVANCED_FACE('',(#78),#890,.F.);
#929=ADVANCED_FACE('',(#79),#891,.F.);
#930=ADVANCED_FACE('',(#80),#892,.F.);
#931=ADVANCED_FACE('',(#81),#893,.F.);
#932=ADVANCED_FACE('',(#82),#894,.F.);
#933=ADVANCED_FACE('',(#83),#895,.F.);
#934=ADVANCED_FACE('',(#84),#896,.F.);
#935=ADVANCED_FACE('',(#85),#897,.F.);
#936=ADVANCED_FACE('',(#86),#898,.F.);
#937=ADVANCED_FACE('',(#87),#899,.F.);
#938=ADVANCED_FACE('',(#88),#900,.F.);
#939=ADVANCED_FACE('',(#89),#901,.F.);
#940=ADVANCED_FACE('',(#90),#902,.F.);
#941=ADVANCED_FACE('',(#91),#903,.F.);
#942=ADVANCED_FACE('',(#92),#27,.F.);
#943=ADVANCED_FACE('',(#93),#904,.T.);
#944=ADVANCED_FACE('',(#94),#28,.F.);
#945=ADVANCED_FACE('',(#95),#29,.F.);
#946=ADVANCED_FACE('',(#96),#905,.T.);
#947=ADVANCED_FACE('',(#97),#30,.F.);
#948=ADVANCED_FACE('',(#98),#906,.T.);
#949=ADVANCED_FACE('',(#99),#31,.F.);
#950=ADVANCED_FACE('',(#100),#32,.F.);
#951=ADVANCED_FACE('',(#101),#33,.F.);
#952=ADVANCED_FACE('',(#102),#34,.F.);
#953=ADVANCED_FACE('',(#103,#15),#907,.T.);
#954=ADVANCED_FACE('',(#104),#35,.T.);
#955=ADVANCED_FACE('',(#105,#16),#908,.T.);
#956=ADVANCED_FACE('',(#106),#36,.T.);
#957=ADVANCED_FACE('',(#107,#17),#909,.T.);
#958=ADVANCED_FACE('',(#108),#37,.T.);
#959=ADVANCED_FACE('',(#109,#18),#910,.T.);
#960=ADVANCED_FACE('',(#110),#38,.T.);
#961=ADVANCED_FACE('',(#111,#19,#20,#21,#22),#911,.T.);
#962=ADVANCED_FACE('',(#112,#23,#24,#25,#26),#912,.F.);
#963=CLOSED_SHELL('',(#913,#914,#915,#916,#917,#918,#919,#920,#921,#922,
#923,#924,#925,#926,#927,#928,#929,#930,#931,#932,#933,#934,#935,#936,#937,
#938,#939,#940,#941,#942,#943,#944,#945,#946,#947,#948,#949,#950,#951,#952,
#953,#954,#955,#956,#957,#958,#959,#960,#961,#962));
#964=DERIVED_UNIT_ELEMENT(#966,1.);
#965=DERIVED_UNIT_ELEMENT(#1585,-3.);
#966=(
MASS_UNIT()
NAMED_UNIT(*)
SI_UNIT(.KILO.,.GRAM.)
);
#967=DERIVED_UNIT((#964,#965));
#968=MEASURE_REPRESENTATION_ITEM('density measure',
POSITIVE_RATIO_MEASURE(7850.),#967);
#969=PROPERTY_DEFINITION_REPRESENTATION(#974,#971);
#970=PROPERTY_DEFINITION_REPRESENTATION(#975,#972);
#971=REPRESENTATION('material name',(#973),#1582);
#972=REPRESENTATION('density',(#968),#1582);
#973=DESCRIPTIVE_REPRESENTATION_ITEM('Steel','Steel');
#974=PROPERTY_DEFINITION('material property','material name',#1592);
#975=PROPERTY_DEFINITION('material property','density of part',#1592);
#976=AXIS2_PLACEMENT_3D('',#1309,#1051,#1052);
#977=AXIS2_PLACEMENT_3D('',#1310,#1053,#1054);
#978=AXIS2_PLACEMENT_3D('',#1319,#1059,#1060);
#979=AXIS2_PLACEMENT_3D('',#1328,#1065,#1066);
#980=AXIS2_PLACEMENT_3D('',#1334,#1070,#1071);
#981=AXIS2_PLACEMENT_3D('',#1340,#1075,#1076);
#982=AXIS2_PLACEMENT_3D('',#1346,#1080,#1081);
#983=AXIS2_PLACEMENT_3D('',#1352,#1085,#1086);
#984=AXIS2_PLACEMENT_3D('',#1362,#1092,#1093);
#985=AXIS2_PLACEMENT_3D('',#1372,#1099,#1100);
#986=AXIS2_PLACEMENT_3D('',#1376,#1102,#1103);
#987=AXIS2_PLACEMENT_3D('',#1380,#1105,#1106);
#988=AXIS2_PLACEMENT_3D('',#1383,#1108,#1109);
#989=AXIS2_PLACEMENT_3D('',#1386,#1111,#1112);
#990=AXIS2_PLACEMENT_3D('',#1387,#1113,#1114);
#991=AXIS2_PLACEMENT_3D('',#1396,#1119,#1120);
#992=AXIS2_PLACEMENT_3D('',#1402,#1124,#1125);
#993=AXIS2_PLACEMENT_3D('',#1408,#1129,#1130);
#994=AXIS2_PLACEMENT_3D('',#1411,#1133,#1134);
#995=AXIS2_PLACEMENT_3D('',#1412,#1135,#1136);
#996=AXIS2_PLACEMENT_3D('',#1421,#1141,#1142);
#997=AXIS2_PLACEMENT_3D('',#1427,#1146,#1147);
#998=AXIS2_PLACEMENT_3D('',#1433,#1151,#1152);
#999=AXIS2_PLACEMENT_3D('',#1436,#1155,#1156);
#1000=AXIS2_PLACEMENT_3D('',#1437,#1157,#1158);
#1001=AXIS2_PLACEMENT_3D('',#1446,#1163,#1164);
#1002=AXIS2_PLACEMENT_3D('',#1452,#1168,#1169);
#1003=AXIS2_PLACEMENT_3D('',#1458,#1173,#1174);
#1004=AXIS2_PLACEMENT_3D('',#1461,#1177,#1178);
#1005=AXIS2_PLACEMENT_3D('',#1462,#1179,#1180);
#1006=AXIS2_PLACEMENT_3D('',#1471,#1185,#1186);
#1007=AXIS2_PLACEMENT_3D('',#1477,#1190,#1191);
#1008=AXIS2_PLACEMENT_3D('',#1483,#1195,#1196);
#1009=AXIS2_PLACEMENT_3D('',#1486,#1199,#1200);
#1010=AXIS2_PLACEMENT_3D('',#1487,#1201,#1202);
#1011=AXIS2_PLACEMENT_3D('',#1489,#1203,#1204);
#1012=AXIS2_PLACEMENT_3D('',#1491,#1206,#1207);
#1013=AXIS2_PLACEMENT_3D('',#1495,#1210,#1211);
#1014=AXIS2_PLACEMENT_3D('',#1496,#1212,#1213);
#1015=AXIS2_PLACEMENT_3D('',#1497,#1214,#1215);
#1016=AXIS2_PLACEMENT_3D('',#1499,#1216,#1217);
#1017=AXIS2_PLACEMENT_3D('',#1501,#1218,#1219);
#1018=AXIS2_PLACEMENT_3D('',#1503,#1221,#1222);
#1019=AXIS2_PLACEMENT_3D('',#1509,#1226,#1227);
#1020=AXIS2_PLACEMENT_3D('',#1510,#1228,#1229);
#1021=AXIS2_PLACEMENT_3D('',#1511,#1230,#1231);
#1022=AXIS2_PLACEMENT_3D('',#1512,#1232,#1233);
#1023=AXIS2_PLACEMENT_3D('',#1516,#1235,#1236);
#1024=AXIS2_PLACEMENT_3D('',#1520,#1238,#1239);
#1025=AXIS2_PLACEMENT_3D('',#1522,#1241,#1242);
#1026=AXIS2_PLACEMENT_3D('',#1524,#1243,#1244);
#1027=AXIS2_PLACEMENT_3D('',#1527,#1246,#1247);
#1028=AXIS2_PLACEMENT_3D('',#1528,#1248,#1249);
#1029=AXIS2_PLACEMENT_3D('',#1530,#1250,#1251);
#1030=AXIS2_PLACEMENT_3D('',#1533,#1253,#1254);
#1031=AXIS2_PLACEMENT_3D('',#1534,#1255,#1256);
#1032=AXIS2_PLACEMENT_3D('',#1536,#1257,#1258);
#1033=AXIS2_PLACEMENT_3D('',#1539,#1260,#1261);
#1034=AXIS2_PLACEMENT_3D('',#1540,#1262,#1263);
#1035=AXIS2_PLACEMENT_3D('',#1542,#1264,#1265);
#1036=AXIS2_PLACEMENT_3D('',#1545,#1267,#1268);
#1037=AXIS2_PLACEMENT_3D('',#1546,#1269,#1270);
#1038=AXIS2_PLACEMENT_3D('',#1552,#1274,#1275);
#1039=AXIS2_PLACEMENT_3D('',#1554,#1276,#1277);
#1040=AXIS2_PLACEMENT_3D('',#1556,#1279,#1280);
#1041=AXIS2_PLACEMENT_3D('',#1560,#1283,#1284);
#1042=AXIS2_PLACEMENT_3D('',#1562,#1285,#1286);
#1043=AXIS2_PLACEMENT_3D('',#1564,#1288,#1289);
#1044=AXIS2_PLACEMENT_3D('',#1568,#1292,#1293);
#1045=AXIS2_PLACEMENT_3D('',#1570,#1294,#1295);
#1046=AXIS2_PLACEMENT_3D('',#1572,#1297,#1298);
#1047=AXIS2_PLACEMENT_3D('',#1576,#1301,#1302);
#1048=AXIS2_PLACEMENT_3D('',#1577,#1303,#1304);
#1049=AXIS2_PLACEMENT_3D('',#1578,#1305,#1306);
#1050=AXIS2_PLACEMENT_3D('',#1579,#1307,#1308);
#1051=DIRECTION('axis',(0.,0.,1.));
#1052=DIRECTION('refdir',(1.,0.,0.));
#1053=DIRECTION('center_axis',(0.,0.,-1.));
#1054=DIRECTION('ref_axis',(-1.,0.,0.));
#1055=DIRECTION('',(1.,0.,0.));
#1056=DIRECTION('',(0.,1.,0.));
#1057=DIRECTION('',(-1.,0.,0.));
#1058=DIRECTION('',(0.,1.,0.));
#1059=DIRECTION('center_axis',(0.,0.,-1.));
#1060=DIRECTION('ref_axis',(-1.,0.,0.));
#1061=DIRECTION('',(-1.,-2.24045006771203E-15,0.));
#1062=DIRECTION('',(0.,1.,0.));
#1063=DIRECTION('',(1.,2.24045006771203E-15,0.));
#1064=DIRECTION('',(0.,1.,0.));
#1065=DIRECTION('center_axis',(-1.,0.,0.));
#1066=DIRECTION('ref_axis',(0.,0.,1.));
#1067=DIRECTION('',(0.,0.,-1.));
#1068=DIRECTION('',(0.,1.,0.));
#1069=DIRECTION('',(0.,0.,1.));
#1070=DIRECTION('center_axis',(-1.,0.,0.));
#1071=DIRECTION('ref_axis',(0.,0.,1.));
#1072=DIRECTION('',(0.,0.,1.));
#1073=DIRECTION('',(0.,0.,-1.));
#1074=DIRECTION('',(0.,1.,0.));
#1075=DIRECTION('center_axis',(1.,0.,0.));
#1076=DIRECTION('ref_axis',(0.,0.,-1.));
#1077=DIRECTION('',(0.,0.,1.));
#1078=DIRECTION('',(0.,0.,-1.));
#1079=DIRECTION('',(0.,-1.,0.));
#1080=DIRECTION('center_axis',(1.,0.,0.));
#1081=DIRECTION('ref_axis',(0.,0.,-1.));
#1082=DIRECTION('',(0.,0.,-1.));
#1083=DIRECTION('',(0.,-1.,0.));
#1084=DIRECTION('',(0.,0.,1.));
#1085=DIRECTION('center_axis',(2.24045006771203E-15,-1.,0.));
#1086=DIRECTION('ref_axis',(1.,2.24045006771203E-15,0.));
#1087=DIRECTION('',(1.,2.24045006771203E-15,0.));
#1088=DIRECTION('',(0.,0.,1.));
#1089=DIRECTION('',(-1.,-2.24045006771203E-15,0.));
#1090=DIRECTION('',(0.,0.,1.));
#1091=DIRECTION('',(1.,2.24045006771203E-15,0.));
#1092=DIRECTION('center_axis',(0.,1.,0.));
#1093=DIRECTION('ref_axis',(-1.,0.,0.));
#1094=DIRECTION('',(-1.,0.,0.));
#1095=DIRECTION('',(0.,0.,1.));
#1096=DIRECTION('',(1.,0.,0.));
#1097=DIRECTION('',(0.,0.,1.));
#1098=DIRECTION('',(-1.,0.,0.));
#1099=DIRECTION('center_axis',(0.,0.,1.));
#1100=DIRECTION('ref_axis',(1.,0.,0.));
#1101=DIRECTION('',(-1.,-2.24045006771203E-15,0.));
#1102=DIRECTION('center_axis',(0.,0.,1.));
#1103=DIRECTION('ref_axis',(0.,1.,0.));
#1104=DIRECTION('',(0.,-1.,0.));
#1105=DIRECTION('center_axis',(0.,0.,1.));
#1106=DIRECTION('ref_axis',(-1.,0.,0.));
#1107=DIRECTION('',(1.,0.,0.));
#1108=DIRECTION('center_axis',(0.,0.,-1.));
#1109=DIRECTION('ref_axis',(-1.,0.,0.));
#1110=DIRECTION('',(0.,1.,0.));
#1111=DIRECTION('center_axis',(0.,0.,-1.));
#1112=DIRECTION('ref_axis',(3.33066907387542E-15,1.,0.));
#1113=DIRECTION('center_axis',(0.,-1.,8.88178419700125E-15));
#1114=DIRECTION('ref_axis',(-8.91368254487017E-31,8.88178419700125E-15,
1.));
#1115=DIRECTION('',(-8.91368254487017E-31,8.88178419700125E-15,1.));
#1116=DIRECTION('',(-1.,0.,0.));
#1117=DIRECTION('',(-8.91368254487017E-31,8.88178419700125E-15,1.));
#1118=DIRECTION('',(-1.,0.,0.));
#1119=DIRECTION('center_axis',(0.,2.70786103567111E-17,-1.));
#1120=DIRECTION('ref_axis',(1.00359143468941E-16,-1.,-2.70786103567111E-17));
#1121=DIRECTION('',(1.00359143468941E-16,-1.,-2.70786103567111E-17));
#1122=DIRECTION('',(-1.,0.,0.));
#1123=DIRECTION('',(1.00359143468941E-16,-1.,-2.70786103567111E-17));
#1124=DIRECTION('center_axis',(0.,1.,0.));
#1125=DIRECTION('ref_axis',(0.,0.,-1.));
#1126=DIRECTION('',(0.,0.,-1.));
#1127=DIRECTION('',(-1.,0.,0.));
#1128=DIRECTION('',(0.,0.,-1.));
#1129=DIRECTION('center_axis',(0.,-2.70786103567111E-17,1.));
#1130=DIRECTION('ref_axis',(-1.00359143468941E-16,1.,2.70786103567111E-17));
#1131=DIRECTION('',(-1.00359143468941E-16,1.,2.70786103567111E-17));
#1132=DIRECTION('',(-1.00359143468941E-16,1.,2.70786103567111E-17));
#1133=DIRECTION('center_axis',(-1.,0.,0.));
#1134=DIRECTION('ref_axis',(0.,0.,1.));
#1135=DIRECTION('center_axis',(0.,0.,1.));
#1136=DIRECTION('ref_axis',(1.,0.,0.));
#1137=DIRECTION('',(1.,0.,0.));
#1138=DIRECTION('',(0.,1.,0.));
#1139=DIRECTION('',(1.,0.,0.));
#1140=DIRECTION('',(0.,1.,0.));
#1141=DIRECTION('center_axis',(-1.,0.,0.));
#1142=DIRECTION('ref_axis',(0.,0.,1.));
#1143=DIRECTION('',(0.,0.,1.));
#1144=DIRECTION('',(0.,1.,0.));
#1145=DIRECTION('',(0.,0.,1.));
#1146=DIRECTION('center_axis',(-2.70786103567111E-17,0.,-1.));
#1147=DIRECTION('ref_axis',(-1.,0.,2.70786103567111E-17));
#1148=DIRECTION('',(-1.,0.,2.70786103567111E-17));
#1149=DIRECTION('',(0.,1.,0.));
#1150=DIRECTION('',(-1.,0.,2.70786103567111E-17));
#1151=DIRECTION('center_axis',(1.,0.,0.));
#1152=DIRECTION('ref_axis',(0.,0.,-1.));
#1153=DIRECTION('',(0.,0.,-1.));
#1154=DIRECTION('',(0.,0.,-1.));
#1155=DIRECTION('center_axis',(0.,1.,0.));
#1156=DIRECTION('ref_axis',(0.,0.,1.));
#1157=DIRECTION('center_axis',(0.,0.,1.));
#1158=DIRECTION('ref_axis',(-1.,-2.24045006771203E-15,0.));
#1159=DIRECTION('',(-1.,-2.24045006771203E-15,0.));
#1160=DIRECTION('',(3.5527136788005E-15,-1.,0.));
#1161=DIRECTION('',(-1.,-2.24045006771203E-15,0.));
#1162=DIRECTION('',(3.5527136788005E-15,-1.,0.));
#1163=DIRECTION('center_axis',(1.,3.5527136788005E-15,0.));
#1164=DIRECTION('ref_axis',(0.,0.,1.));
#1165=DIRECTION('',(0.,0.,1.));
#1166=DIRECTION('',(3.5527136788005E-15,-1.,0.));
#1167=DIRECTION('',(0.,0.,1.));
#1168=DIRECTION('center_axis',(0.,0.,-1.));
#1169=DIRECTION('ref_axis',(1.,2.24045006771203E-15,0.));
#1170=DIRECTION('',(1.,2.24045006771203E-15,0.));
#1171=DIRECTION('',(3.5527136788005E-15,-1.,0.));
#1172=DIRECTION('',(1.,2.24045006771203E-15,0.));
#1173=DIRECTION('center_axis',(-1.,-3.5527136788005E-15,-4.44089209850062E-15));
#1174=DIRECTION('ref_axis',(4.44089209850062E-15,9.94959700278753E-30,-1.));
#1175=DIRECTION('',(4.44089209850062E-15,9.94959700278753E-30,-1.));
#1176=DIRECTION('',(4.44089209850062E-15,9.94959700278753E-30,-1.));
#1177=DIRECTION('center_axis',(3.5527136788005E-15,-1.,0.));
#1178=DIRECTION('ref_axis',(0.,0.,-1.));
#1179=DIRECTION('center_axis',(0.,-2.70786103567111E-17,1.));
#1180=DIRECTION('ref_axis',(0.,-1.,-2.70786103567111E-17));
#1181=DIRECTION('',(0.,-1.,-2.70786103567111E-17));
#1182=DIRECTION('',(1.,0.,0.));
#1183=DIRECTION('',(0.,-1.,-2.70786103567111E-17));
#1184=DIRECTION('',(1.,0.,0.));
#1185=DIRECTION('center_axis',(0.,1.,0.));
#1186=DIRECTION('ref_axis',(0.,0.,1.));
#1187=DIRECTION('',(0.,0.,1.));
#1188=DIRECTION('',(1.,0.,0.));
#1189=DIRECTION('',(0.,0.,1.));
#1190=DIRECTION('center_axis',(0.,-2.70786103567111E-17,-1.));
#1191=DIRECTION('ref_axis',(0.,1.,-2.70786103567111E-17));
#1192=DIRECTION('',(0.,1.,-2.70786103567111E-17));
#1193=DIRECTION('',(1.,0.,0.));
#1194=DIRECTION('',(0.,1.,-2.70786103567111E-17));
#1195=DIRECTION('center_axis',(0.,-1.,8.88178419700125E-15));
#1196=DIRECTION('ref_axis',(0.,-8.88178419700125E-15,-1.));
#1197=DIRECTION('',(0.,-8.88178419700125E-15,-1.));
#1198=DIRECTION('',(0.,-8.88178419700125E-15,-1.));
#1199=DIRECTION('center_axis',(1.,0.,0.));
#1200=DIRECTION('ref_axis',(0.,0.,-1.));
#1201=DIRECTION('center_axis',(0.,0.,1.));
#1202=DIRECTION('ref_axis',(-1.,0.,0.));
#1203=DIRECTION('center_axis',(0.,0.,1.));
#1204=DIRECTION('ref_axis',(-1.,0.,0.));
#1205=DIRECTION('',(0.,0.,1.));
#1206=DIRECTION('center_axis',(1.,0.,0.));
#1207=DIRECTION('ref_axis',(0.,1.,0.));
#1208=DIRECTION('',(0.,-1.,0.));
#1209=DIRECTION('',(0.,0.,1.));
#1210=DIRECTION('center_axis',(0.,0.,1.));
#1211=DIRECTION('ref_axis',(3.33066907387542E-15,1.,0.));
#1212=DIRECTION('center_axis',(0.,0.,1.));
#1213=DIRECTION('ref_axis',(3.33066907387542E-15,1.,0.));
#1214=DIRECTION('center_axis',(0.,0.,1.));
#1215=DIRECTION('ref_axis',(0.,-1.,0.));
#1216=DIRECTION('center_axis',(0.,0.,1.));
#1217=DIRECTION('ref_axis',(0.,-1.,0.));
#1218=DIRECTION('center_axis',(0.,0.,-1.));
#1219=DIRECTION('ref_axis',(0.,-1.,0.));
#1220=DIRECTION('',(0.,0.,1.));
#1221=DIRECTION('center_axis',(-1.,-1.00359143468941E-16,0.));
#1222=DIRECTION('ref_axis',(1.00359143468941E-16,-1.,0.));
#1223=DIRECTION('',(-1.00359143468941E-16,1.,0.));
#1224=DIRECTION('',(1.00359143468941E-16,-1.,0.));
#1225=DIRECTION('',(0.,0.,1.));
#1226=DIRECTION('center_axis',(0.,0.,1.));
#1227=DIRECTION('ref_axis',(1.,0.,0.));
#1228=DIRECTION('center_axis',(0.,0.,1.));
#1229=DIRECTION('ref_axis',(1.,0.,0.));
#1230=DIRECTION('center_axis',(0.,0.,-1.));
#1231=DIRECTION('ref_axis',(1.,0.,0.));
#1232=DIRECTION('center_axis',(0.,0.,1.));
#1233=DIRECTION('ref_axis',(1.,0.,0.));
#1234=DIRECTION('',(1.,0.,0.));
#1235=DIRECTION('center_axis',(0.,0.,1.));
#1236=DIRECTION('ref_axis',(0.,-1.,0.));
#1237=DIRECTION('',(-1.00359143468941E-16,1.,0.));
#1238=DIRECTION('center_axis',(0.,0.,1.));
#1239=DIRECTION('ref_axis',(1.,0.,0.));
#1240=DIRECTION('',(-1.,-2.24045006771203E-15,0.));
#1241=DIRECTION('center_axis',(0.,0.,1.));
#1242=DIRECTION('ref_axis',(1.,0.,0.));
#1243=DIRECTION('center_axis',(0.,0.,-1.));
#1244=DIRECTION('ref_axis',(1.,0.,0.));
#1245=DIRECTION('',(0.,0.,-1.));
#1246=DIRECTION('center_axis',(0.,0.,-1.));
#1247=DIRECTION('ref_axis',(1.,0.,0.));
#1248=DIRECTION('center_axis',(0.,0.,1.));
#1249=DIRECTION('ref_axis',(1.,0.,0.));
#1250=DIRECTION('center_axis',(0.,0.,-1.));
#1251=DIRECTION('ref_axis',(1.,0.,0.));
#1252=DIRECTION('',(0.,0.,-1.));
#1253=DIRECTION('center_axis',(0.,0.,-1.));
#1254=DIRECTION('ref_axis',(1.,0.,0.));
#1255=DIRECTION('center_axis',(0.,0.,1.));
#1256=DIRECTION('ref_axis',(1.,0.,0.));
#1257=DIRECTION('center_axis',(0.,0.,-1.));
#1258=DIRECTION('ref_axis',(1.,0.,0.));
#1259=DIRECTION('',(0.,0.,-1.));
#1260=DIRECTION('center_axis',(0.,0.,-1.));
#1261=DIRECTION('ref_axis',(1.,0.,0.));
#1262=DIRECTION('center_axis',(0.,0.,1.));
#1263=DIRECTION('ref_axis',(1.,0.,0.));
#1264=DIRECTION('center_axis',(0.,0.,-1.));
#1265=DIRECTION('ref_axis',(1.,0.,0.));
#1266=DIRECTION('',(0.,0.,-1.));
#1267=DIRECTION('center_axis',(0.,0.,-1.));
#1268=DIRECTION('ref_axis',(1.,0.,0.));
#1269=DIRECTION('center_axis',(-1.,0.,0.));
#1270=DIRECTION('ref_axis',(0.,-1.,0.));
#1271=DIRECTION('',(0.,1.,0.));
#1272=DIRECTION('',(0.,0.,1.));
#1273=DIRECTION('',(0.,0.,1.));
#1274=DIRECTION('center_axis',(0.,0.,1.));
#1275=DIRECTION('ref_axis',(0.,1.,0.));
#1276=DIRECTION('center_axis',(0.,0.,1.));
#1277=DIRECTION('ref_axis',(0.,1.,0.));
#1278=DIRECTION('',(0.,0.,1.));
#1279=DIRECTION('center_axis',(-2.24045006771203E-15,1.,0.));
#1280=DIRECTION('ref_axis',(-1.,-2.24045006771203E-15,0.));
#1281=DIRECTION('',(0.,0.,1.));
#1282=DIRECTION('',(1.,2.24045006771203E-15,0.));
#1283=DIRECTION('center_axis',(0.,0.,1.));
#1284=DIRECTION('ref_axis',(1.,0.,0.));
#1285=DIRECTION('center_axis',(0.,0.,1.));
#1286=DIRECTION('ref_axis',(1.,0.,0.));
#1287=DIRECTION('',(0.,0.,1.));
#1288=DIRECTION('center_axis',(1.,1.00359143468941E-16,0.));
#1289=DIRECTION('ref_axis',(-1.00359143468941E-16,1.,0.));
#1290=DIRECTION('',(1.00359143468941E-16,-1.,0.));
#1291=DIRECTION('',(0.,0.,1.));
#1292=DIRECTION('center_axis',(0.,0.,1.));
#1293=DIRECTION('ref_axis',(0.,-1.,0.));
#1294=DIRECTION('center_axis',(0.,0.,1.));
#1295=DIRECTION('ref_axis',(0.,-1.,0.));
#1296=DIRECTION('',(0.,0.,1.));
#1297=DIRECTION('center_axis',(0.,-1.,0.));
#1298=DIRECTION('ref_axis',(1.,0.,0.));
#1299=DIRECTION('',(0.,0.,1.));
#1300=DIRECTION('',(-1.,0.,0.));
#1301=DIRECTION('center_axis',(0.,0.,1.));
#1302=DIRECTION('ref_axis',(-1.,0.,0.));
#1303=DIRECTION('center_axis',(0.,0.,1.));
#1304=DIRECTION('ref_axis',(-1.,0.,0.));
#1305=DIRECTION('center_axis',(0.,0.,1.));
#1306=DIRECTION('ref_axis',(1.,0.,0.));
#1307=DIRECTION('center_axis',(0.,0.,1.));
#1308=DIRECTION('ref_axis',(1.,0.,0.));
#1309=CARTESIAN_POINT('',(0.,0.,0.));
#1310=CARTESIAN_POINT('Origin',(68.,2.49999999999979,6.25));
#1311=CARTESIAN_POINT('',(58.,5.49999999999979,6.25));
#1312=CARTESIAN_POINT('',(68.,5.49999999999979,6.25));
#1313=CARTESIAN_POINT('',(93.25,5.49999999999979,6.25));
#1314=CARTESIAN_POINT('',(58.,2.49999999999979,6.25));
#1315=CARTESIAN_POINT('',(58.,2.49999999999979,6.25));
#1316=CARTESIAN_POINT('',(68.,2.49999999999979,6.25));
#1317=CARTESIAN_POINT('',(37.75,2.49999999999979,6.25));
#1318=CARTESIAN_POINT('',(68.,2.49999999999979,6.25));
#1319=CARTESIAN_POINT('Origin',(68.,2.49999999999979,6.25));
#1320=CARTESIAN_POINT('',(68.,186.5,6.25));
#1321=CARTESIAN_POINT('',(58.,186.5,6.25));
#1322=CARTESIAN_POINT('',(37.7499999999998,186.5,6.25));
#1323=CARTESIAN_POINT('',(68.,189.5,6.25));
#1324=CARTESIAN_POINT('',(68.,2.49999999999979,6.25));
#1325=CARTESIAN_POINT('',(58.,189.5,6.25));
#1326=CARTESIAN_POINT('',(93.2499999999998,189.5,6.25));
#1327=CARTESIAN_POINT('',(58.,2.49999999999979,6.25));
#1328=CARTESIAN_POINT('Origin',(58.,2.49999999999979,6.25));
#1329=CARTESIAN_POINT('',(58.,5.49999999999979,7.));
#1330=CARTESIAN_POINT('',(58.,5.49999999999979,3.125));
#1331=CARTESIAN_POINT('',(58.,2.49999999999979,7.));
#1332=CARTESIAN_POINT('',(58.,49.2499999999998,7.));
#1333=CARTESIAN_POINT('',(58.,2.49999999999979,3.125));
#1334=CARTESIAN_POINT('Origin',(58.,2.49999999999979,6.25));
#1335=CARTESIAN_POINT('',(58.,186.5,7.));
#1336=CARTESIAN_POINT('',(58.,186.5,3.125));
#1337=CARTESIAN_POINT('',(58.,189.5,7.));
#1338=CARTESIAN_POINT('',(58.,189.5,3.125));
#1339=CARTESIAN_POINT('',(58.,49.2499999999998,7.));
#1340=CARTESIAN_POINT('Origin',(68.,2.49999999999979,7.));
#1341=CARTESIAN_POINT('',(68.,5.49999999999979,7.));
#1342=CARTESIAN_POINT('',(68.,5.49999999999979,3.5));
#1343=CARTESIAN_POINT('',(68.,2.49999999999979,7.));
#1344=CARTESIAN_POINT('',(68.,2.49999999999979,3.5));
#1345=CARTESIAN_POINT('',(68.,49.2499999999998,7.));
#1346=CARTESIAN_POINT('Origin',(68.,2.49999999999979,7.));
#1347=CARTESIAN_POINT('',(68.,186.5,7.));
#1348=CARTESIAN_POINT('',(68.,186.5,3.5));
#1349=CARTESIAN_POINT('',(68.,189.5,7.));
#1350=CARTESIAN_POINT('',(68.,49.2499999999998,7.));
#1351=CARTESIAN_POINT('',(68.,189.5,3.5));
#1352=CARTESIAN_POINT('Origin',(7.50000000000002,186.5,0.));
#1353=CARTESIAN_POINT('',(7.50000000000002,186.5,7.));
#1354=CARTESIAN_POINT('',(7.50000000000002,186.5,7.));
#1355=CARTESIAN_POINT('',(7.50000000000002,186.5,2.));
#1356=CARTESIAN_POINT('',(7.50000000000002,186.5,0.));
#1357=CARTESIAN_POINT('',(118.5,186.5,2.));
#1358=CARTESIAN_POINT('',(35.2499999999999,186.5,2.));
#1359=CARTESIAN_POINT('',(118.5,186.5,7.));
#1360=CARTESIAN_POINT('',(118.5,186.5,0.));
#1361=CARTESIAN_POINT('',(7.50000000000002,186.5,7.));
#1362=CARTESIAN_POINT('Origin',(118.5,5.49999999999979,0.));
#1363=CARTESIAN_POINT('',(118.5,5.49999999999979,7.));
#1364=CARTESIAN_POINT('',(118.5,5.49999999999979,7.));
#1365=CARTESIAN_POINT('',(118.5,5.49999999999979,2.));
#1366=CARTESIAN_POINT('',(118.5,5.49999999999979,0.));
#1367=CARTESIAN_POINT('',(7.49999999999998,5.49999999999979,2.));
#1368=CARTESIAN_POINT('',(90.75,5.49999999999979,2.));
#1369=CARTESIAN_POINT('',(7.49999999999998,5.49999999999979,7.));
#1370=CARTESIAN_POINT('',(7.49999999999998,5.49999999999979,0.));
#1371=CARTESIAN_POINT('',(118.5,5.49999999999979,7.));
#1372=CARTESIAN_POINT('Origin',(63.,95.9999999999999,7.));
#1373=CARTESIAN_POINT('',(7.50000000000002,189.5,7.));
#1374=CARTESIAN_POINT('',(7.50000000000002,189.5,7.));
#1375=CARTESIAN_POINT('',(2.49999999999998,184.5,7.));
#1376=CARTESIAN_POINT('Origin',(7.50000000000002,184.5,7.));
#1377=CARTESIAN_POINT('',(2.49999999999998,7.49999999999979,7.));
#1378=CARTESIAN_POINT('',(2.49999999999998,7.49999999999979,7.));
#1379=CARTESIAN_POINT('',(7.49999999999998,2.49999999999979,7.));
#1380=CARTESIAN_POINT('Origin',(7.49999999999998,7.49999999999979,7.));
#1381=CARTESIAN_POINT('',(118.5,2.49999999999979,7.));
#1382=CARTESIAN_POINT('',(5.49999999999999,7.49999999999979,7.));
#1383=CARTESIAN_POINT('Origin',(7.49999999999998,7.49999999999979,7.));
#1384=CARTESIAN_POINT('',(5.49999999999999,184.5,7.));
#1385=CARTESIAN_POINT('',(5.49999999999998,7.49999999999979,7.));
#1386=CARTESIAN_POINT('Origin',(7.50000000000002,184.5,7.));
#1387=CARTESIAN_POINT('Origin',(123.5,85.7499999999999,2.5));
#1388=CARTESIAN_POINT('',(123.5,85.7499999999999,2.5));
#1389=CARTESIAN_POINT('',(123.5,85.7499999999999,4.5));
#1390=CARTESIAN_POINT('',(123.5,85.7499999999999,1.24999999999965));
#1391=CARTESIAN_POINT('',(121.,85.7499999999999,2.5));
#1392=CARTESIAN_POINT('',(123.5,85.7499999999999,2.5));
#1393=CARTESIAN_POINT('',(121.,85.7499999999999,4.5));
#1394=CARTESIAN_POINT('',(121.,85.7499999999999,2.5));
#1395=CARTESIAN_POINT('',(123.5,85.7499999999999,4.5));
#1396=CARTESIAN_POINT('Origin',(123.5,106.25,2.5));
#1397=CARTESIAN_POINT('',(123.5,106.25,2.5));
#1398=CARTESIAN_POINT('',(123.5,56.8749999999999,2.5));
#1399=CARTESIAN_POINT('',(121.,106.25,2.5));
#1400=CARTESIAN_POINT('',(123.5,106.25,2.5));
#1401=CARTESIAN_POINT('',(121.,106.25,2.5));
#1402=CARTESIAN_POINT('Origin',(123.5,106.25,4.5));
#1403=CARTESIAN_POINT('',(123.5,106.25,4.5));
#1404=CARTESIAN_POINT('',(123.5,106.25,2.25));
#1405=CARTESIAN_POINT('',(121.,106.25,4.5));
#1406=CARTESIAN_POINT('',(123.5,106.25,4.5));
#1407=CARTESIAN_POINT('',(121.,106.25,4.5));
#1408=CARTESIAN_POINT('Origin',(123.5,85.7499999999999,4.5));
#1409=CARTESIAN_POINT('',(123.5,46.6249999999999,4.5));
#1410=CARTESIAN_POINT('',(121.,85.7499999999999,4.5));
#1411=CARTESIAN_POINT('Origin',(121.,95.9999999999999,3.5));
#1412=CARTESIAN_POINT('Origin',(52.75,2.49999999999979,4.5));
#1413=CARTESIAN_POINT('',(52.75,2.49999999999979,4.5));
#1414=CARTESIAN_POINT('',(73.25,2.49999999999979,4.5));
#1415=CARTESIAN_POINT('',(30.125,2.49999999999979,4.5));
#1416=CARTESIAN_POINT('',(52.75,4.99999999999979,4.5));
#1417=CARTESIAN_POINT('',(52.75,2.49999999999979,4.5));
#1418=CARTESIAN_POINT('',(73.25,4.99999999999979,4.5));
#1419=CARTESIAN_POINT('',(73.25,4.99999999999979,4.5));
#1420=CARTESIAN_POINT('',(73.25,2.49999999999979,4.5));
#1421=CARTESIAN_POINT('Origin',(52.75,2.49999999999979,2.5));
#1422=CARTESIAN_POINT('',(52.75,2.49999999999979,2.5));
#1423=CARTESIAN_POINT('',(52.75,2.49999999999979,1.25));
#1424=CARTESIAN_POINT('',(52.75,4.99999999999979,2.5));
#1425=CARTESIAN_POINT('',(52.75,2.49999999999979,2.5));
#1426=CARTESIAN_POINT('',(52.75,4.99999999999979,4.5));
#1427=CARTESIAN_POINT('Origin',(73.25,2.49999999999979,2.5));
#1428=CARTESIAN_POINT('',(73.25,2.49999999999979,2.5));
#1429=CARTESIAN_POINT('',(40.375,2.49999999999979,2.5));
#1430=CARTESIAN_POINT('',(73.25,4.99999999999979,2.5));
#1431=CARTESIAN_POINT('',(73.25,2.49999999999979,2.5));
#1432=CARTESIAN_POINT('',(52.75,4.99999999999979,2.5));
#1433=CARTESIAN_POINT('Origin',(73.25,2.49999999999979,4.5));
#1434=CARTESIAN_POINT('',(73.25,2.49999999999979,2.25));
#1435=CARTESIAN_POINT('',(73.25,4.99999999999979,2.5));
#1436=CARTESIAN_POINT('Origin',(63.,4.99999999999979,3.5));
#1437=CARTESIAN_POINT('Origin',(73.25,189.5,4.5));
#1438=CARTESIAN_POINT('',(73.25,189.5,4.5));
#1439=CARTESIAN_POINT('',(52.75,189.5,4.5));
#1440=CARTESIAN_POINT('',(95.875,189.5,4.5));
#1441=CARTESIAN_POINT('',(73.25,187.,4.5));
#1442=CARTESIAN_POINT('',(73.25,189.5,4.5));
#1443=CARTESIAN_POINT('',(52.75,187.,4.5));
#1444=CARTESIAN_POINT('',(52.75,187.,4.5));
#1445=CARTESIAN_POINT('',(52.75,189.5,4.5));
#1446=CARTESIAN_POINT('Origin',(73.25,189.5,2.5));
#1447=CARTESIAN_POINT('',(73.25,189.5,2.5));
#1448=CARTESIAN_POINT('',(73.25,189.5,1.25));
#1449=CARTESIAN_POINT('',(73.25,187.,2.5));
#1450=CARTESIAN_POINT('',(73.25,189.5,2.5));
#1451=CARTESIAN_POINT('',(73.25,187.,4.5));
#1452=CARTESIAN_POINT('Origin',(52.75,189.5,2.5));
#1453=CARTESIAN_POINT('',(52.75,189.5,2.5));
#1454=CARTESIAN_POINT('',(85.625,189.5,2.5));
#1455=CARTESIAN_POINT('',(52.75,187.,2.5));
#1456=CARTESIAN_POINT('',(52.75,189.5,2.5));
#1457=CARTESIAN_POINT('',(73.25,187.,2.5));
#1458=CARTESIAN_POINT('Origin',(52.75,189.5,4.5));
#1459=CARTESIAN_POINT('',(52.75,189.5,2.24999999999985));
#1460=CARTESIAN_POINT('',(52.75,187.,2.5));
#1461=CARTESIAN_POINT('Origin',(63.,187.,3.5));
#1462=CARTESIAN_POINT('Origin',(2.49999999999998,106.25,4.5));
#1463=CARTESIAN_POINT('',(2.49999999999998,106.25,4.5));
#1464=CARTESIAN_POINT('',(2.49999999999998,85.7499999999997,4.5));
#1465=CARTESIAN_POINT('',(2.49999999999998,145.375,4.5));
#1466=CARTESIAN_POINT('',(4.99999999999998,106.25,4.5));
#1467=CARTESIAN_POINT('',(2.49999999999998,106.25,4.5));
#1468=CARTESIAN_POINT('',(4.99999999999998,85.7499999999997,4.5));
#1469=CARTESIAN_POINT('',(4.99999999999998,85.7499999999997,4.5));
#1470=CARTESIAN_POINT('',(2.49999999999998,85.7499999999997,4.5));
#1471=CARTESIAN_POINT('Origin',(2.49999999999998,106.25,2.5));
#1472=CARTESIAN_POINT('',(2.49999999999998,106.25,2.5));
#1473=CARTESIAN_POINT('',(2.49999999999998,106.25,1.25));
#1474=CARTESIAN_POINT('',(4.99999999999998,106.25,2.5));
#1475=CARTESIAN_POINT('',(2.49999999999998,106.25,2.5));
#1476=CARTESIAN_POINT('',(4.99999999999998,106.25,4.5));
#1477=CARTESIAN_POINT('Origin',(2.49999999999998,85.7499999999997,2.5));
#1478=CARTESIAN_POINT('',(2.49999999999998,85.7499999999997,2.5));
#1479=CARTESIAN_POINT('',(2.49999999999998,135.125,2.5));
#1480=CARTESIAN_POINT('',(4.99999999999998,85.7499999999997,2.5));
#1481=CARTESIAN_POINT('',(2.49999999999998,85.7499999999997,2.5));
#1482=CARTESIAN_POINT('',(4.99999999999998,106.25,2.5));
#1483=CARTESIAN_POINT('Origin',(2.49999999999998,85.7499999999997,4.5));
#1484=CARTESIAN_POINT('',(2.49999999999998,85.7499999999997,2.25000000000044));
#1485=CARTESIAN_POINT('',(4.99999999999998,85.7499999999997,2.5));
#1486=CARTESIAN_POINT('Origin',(4.99999999999998,95.9999999999997,3.5));
#1487=CARTESIAN_POINT('Origin',(7.49999999999998,7.49999999999979,0.));
#1488=CARTESIAN_POINT('',(5.49999999999998,7.49999999999979,2.));
#1489=CARTESIAN_POINT('Origin',(7.49999999999998,7.49999999999979,2.));
#1490=CARTESIAN_POINT('',(5.49999999999998,7.49999999999979,0.));
#1491=CARTESIAN_POINT('Origin',(5.49999999999998,7.49999999999979,0.));
#1492=CARTESIAN_POINT('',(5.49999999999998,184.5,2.));
#1493=CARTESIAN_POINT('',(5.49999999999998,51.7499999999998,2.));
#1494=CARTESIAN_POINT('',(5.49999999999998,184.5,0.));
#1495=CARTESIAN_POINT('Origin',(7.50000000000002,184.5,0.));
#1496=CARTESIAN_POINT('Origin',(7.50000000000002,184.5,2.));
#1497=CARTESIAN_POINT('Origin',(118.5,7.4999999999998,0.));
#1498=CARTESIAN_POINT('',(120.5,7.49999999999979,2.));
#1499=CARTESIAN_POINT('Origin',(118.5,7.4999999999998,2.));
#1500=CARTESIAN_POINT('',(120.5,7.49999999999979,7.));
#1501=CARTESIAN_POINT('Origin',(118.5,7.4999999999998,7.));
#1502=CARTESIAN_POINT('',(120.5,7.49999999999979,0.));
#1503=CARTESIAN_POINT('Origin',(120.5,184.5,0.));
#1504=CARTESIAN_POINT('',(120.5,184.5,2.));
#1505=CARTESIAN_POINT('',(120.5,140.25,2.));
#1506=CARTESIAN_POINT('',(120.5,184.5,7.));
#1507=CARTESIAN_POINT('',(120.5,184.5,7.));
#1508=CARTESIAN_POINT('',(120.5,184.5,0.));
#1509=CARTESIAN_POINT('Origin',(118.5,184.5,0.));
#1510=CARTESIAN_POINT('Origin',(118.5,184.5,2.));
#1511=CARTESIAN_POINT('Origin',(118.5,184.5,7.));
#1512=CARTESIAN_POINT('Origin',(63.,95.9999999999999,7.));
#1513=CARTESIAN_POINT('',(118.5,2.49999999999979,7.));
#1514=CARTESIAN_POINT('',(118.5,2.49999999999979,7.));
#1515=CARTESIAN_POINT('',(123.5,7.49999999999982,7.));
#1516=CARTESIAN_POINT('Origin',(118.5,7.4999999999998,7.));
#1517=CARTESIAN_POINT('',(123.5,184.5,7.));
#1518=CARTESIAN_POINT('',(123.5,184.5,7.));
#1519=CARTESIAN_POINT('',(118.5,189.5,7.));
#1520=CARTESIAN_POINT('Origin',(118.5,184.5,7.));
#1521=CARTESIAN_POINT('',(7.50000000000002,189.5,7.));
#1522=CARTESIAN_POINT('Origin',(111.5,177.5,0.));
#1523=CARTESIAN_POINT('',(108.,177.5,2.));
#1524=CARTESIAN_POINT('Origin',(111.5,177.5,2.));
#1525=CARTESIAN_POINT('',(108.,177.5,0.));
#1526=CARTESIAN_POINT('',(108.,177.5,0.));
#1527=CARTESIAN_POINT('Origin',(111.5,177.5,0.));
#1528=CARTESIAN_POINT('Origin',(111.5,14.4999999999999,0.));
#1529=CARTESIAN_POINT('',(108.,14.4999999999999,2.));
#1530=CARTESIAN_POINT('Origin',(111.5,14.4999999999999,2.));
#1531=CARTESIAN_POINT('',(108.,14.4999999999999,0.));
#1532=CARTESIAN_POINT('',(108.,14.4999999999999,0.));
#1533=CARTESIAN_POINT('Origin',(111.5,14.4999999999999,0.));
#1534=CARTESIAN_POINT('Origin',(14.5000000000002,14.4999999999998,0.));
#1535=CARTESIAN_POINT('',(11.0000000000002,14.4999999999998,2.));
#1536=CARTESIAN_POINT('Origin',(14.5000000000002,14.4999999999998,2.));
#1537=CARTESIAN_POINT('',(11.0000000000002,14.4999999999998,0.));
#1538=CARTESIAN_POINT('',(11.0000000000002,14.4999999999998,0.));
#1539=CARTESIAN_POINT('Origin',(14.5000000000002,14.4999999999998,0.));
#1540=CARTESIAN_POINT('Origin',(14.5,177.5,0.));
#1541=CARTESIAN_POINT('',(11.,177.5,2.));
#1542=CARTESIAN_POINT('Origin',(14.5,177.5,2.));
#1543=CARTESIAN_POINT('',(11.,177.5,0.));
#1544=CARTESIAN_POINT('',(11.,177.5,0.));
#1545=CARTESIAN_POINT('Origin',(14.5,177.5,0.));
#1546=CARTESIAN_POINT('Origin',(2.49999999999998,184.5,0.));
#1547=CARTESIAN_POINT('',(2.49999999999998,7.49999999999979,0.));
#1548=CARTESIAN_POINT('',(2.49999999999998,184.5,0.));
#1549=CARTESIAN_POINT('',(2.49999999999998,7.49999999999979,0.));
#1550=CARTESIAN_POINT('',(2.49999999999998,7.49999999999979,0.));
#1551=CARTESIAN_POINT('',(2.49999999999998,184.5,0.));
#1552=CARTESIAN_POINT('Origin',(7.50000000000002,184.5,0.));
#1553=CARTESIAN_POINT('',(7.50000000000002,189.5,0.));
#1554=CARTESIAN_POINT('Origin',(7.50000000000002,184.5,0.));
#1555=CARTESIAN_POINT('',(7.50000000000002,189.5,0.));
#1556=CARTESIAN_POINT('Origin',(118.5,189.5,0.));
#1557=CARTESIAN_POINT('',(118.5,189.5,0.));
#1558=CARTESIAN_POINT('',(118.5,189.5,0.));
#1559=CARTESIAN_POINT('',(7.50000000000002,189.5,0.));
#1560=CARTESIAN_POINT('Origin',(118.5,184.5,0.));
#1561=CARTESIAN_POINT('',(123.5,184.5,0.));
#1562=CARTESIAN_POINT('Origin',(118.5,184.5,0.));
#1563=CARTESIAN_POINT('',(123.5,184.5,0.));
#1564=CARTESIAN_POINT('Origin',(123.5,7.49999999999979,0.));
#1565=CARTESIAN_POINT('',(123.5,7.4999999999998,0.));
#1566=CARTESIAN_POINT('',(123.5,184.5,0.));
#1567=CARTESIAN_POINT('',(123.5,7.4999999999998,0.));
#1568=CARTESIAN_POINT('Origin',(118.5,7.4999999999998,0.));
#1569=CARTESIAN_POINT('',(118.5,2.49999999999979,0.));
#1570=CARTESIAN_POINT('Origin',(118.5,7.4999999999998,0.));
#1571=CARTESIAN_POINT('',(118.5,2.49999999999979,0.));
#1572=CARTESIAN_POINT('Origin',(7.49999999999998,2.49999999999979,0.));
#1573=CARTESIAN_POINT('',(7.49999999999998,2.49999999999979,0.));
#1574=CARTESIAN_POINT('',(7.49999999999998,2.49999999999979,0.));
#1575=CARTESIAN_POINT('',(118.5,2.49999999999979,0.));
#1576=CARTESIAN_POINT('Origin',(7.49999999999998,7.49999999999979,0.));
#1577=CARTESIAN_POINT('Origin',(7.49999999999998,7.49999999999979,0.));
#1578=CARTESIAN_POINT('Origin',(63.,95.9999999999999,2.));
#1579=CARTESIAN_POINT('Origin',(63.,95.9999999999999,0.));
#1580=UNCERTAINTY_MEASURE_WITH_UNIT(LENGTH_MEASURE(0.01),#1584,
'DISTANCE_ACCURACY_VALUE',
'Maximum model space distance between geometric entities at asserted c
onnectivities');
#1581=UNCERTAINTY_MEASURE_WITH_UNIT(LENGTH_MEASURE(0.01),#1584,
'DISTANCE_ACCURACY_VALUE',
'Maximum model space distance between geometric entities at asserted c
onnectivities');
#1582=(
GEOMETRIC_REPRESENTATION_CONTEXT(3)
GLOBAL_UNCERTAINTY_ASSIGNED_CONTEXT((#1580))
GLOBAL_UNIT_ASSIGNED_CONTEXT((#1584,#1586,#1587))
REPRESENTATION_CONTEXT('','3D')
);
#1583=(
GEOMETRIC_REPRESENTATION_CONTEXT(3)
GLOBAL_UNCERTAINTY_ASSIGNED_CONTEXT((#1581))
GLOBAL_UNIT_ASSIGNED_CONTEXT((#1584,#1586,#1587))
REPRESENTATION_CONTEXT('','3D')
);
#1584=(
LENGTH_UNIT()
NAMED_UNIT(*)
SI_UNIT(.MILLI.,.METRE.)
);
#1585=(
LENGTH_UNIT()
NAMED_UNIT(*)
SI_UNIT($,.METRE.)
);
#1586=(
NAMED_UNIT(*)
PLANE_ANGLE_UNIT()
SI_UNIT($,.RADIAN.)
);
#1587=(
NAMED_UNIT(*)
SI_UNIT($,.STERADIAN.)
SOLID_ANGLE_UNIT()
);
#1588=SHAPE_DEFINITION_REPRESENTATION(#1589,#1590);
#1589=PRODUCT_DEFINITION_SHAPE('',$,#1592);
#1590=SHAPE_REPRESENTATION('',(#976),#1582);
#1591=PRODUCT_DEFINITION_CONTEXT('part definition',#1596,'design');
#1592=PRODUCT_DEFINITION('Backcover small','Backcover small v6',#1593,#1591);
#1593=PRODUCT_DEFINITION_FORMATION('',$,#1598);
#1594=PRODUCT_RELATED_PRODUCT_CATEGORY('Backcover small v6',
'Backcover small v6',(#1598));
#1595=APPLICATION_PROTOCOL_DEFINITION('international standard',
'ap242_managed_model_based_3d_engineering',2011,#1596);
#1596=APPLICATION_CONTEXT('Managed model based 3d engineering');
#1597=PRODUCT_CONTEXT('part definition',#1596,'mechanical');
#1598=PRODUCT('Backcover small','Backcover small v6',$,(#1597));
#1599=PRESENTATION_STYLE_ASSIGNMENT((#1600));
#1600=SURFACE_STYLE_USAGE(.BOTH.,#1601);
#1601=SURFACE_SIDE_STYLE('',(#1602));
#1602=SURFACE_STYLE_FILL_AREA(#1603);
#1603=FILL_AREA_STYLE('Steel - Satin',(#1604));
#1604=FILL_AREA_STYLE_COLOUR('Steel - Satin',#1605);
#1605=COLOUR_RGB('Steel - Satin',0.627450980392157,0.627450980392157,0.627450980392157);
ENDSEC;
END-ISO-10303-21;
