ISO-10303-21;
HEADER;
/* Generated by software containing ST-Developer
 * from STEP Tools, Inc. (www.steptools.com) 
 */

FILE_DESCRIPTION(
/* description */ ('',
'CAx-IF Rec.Pracs.---Representation and Presentation of Product Manufa
cturing Information (PMI)---4.0---2014-10-13'),
/* implementation_level */ '2;1');

FILE_NAME(
/* name */ '56686ccd-41a5-425f-b220-1ade63f22af7.stp',
/* time_stamp */ '2024-10-25T21:13:09Z',
/* author */ (''),
/* organization */ (''),
/* preprocessor_version */ 'ST-DEVELOPER v20',
/* originating_system */ 'Autodesk Translation Framework v13.20.0.188',

/* authorisation */ '');

FILE_SCHEMA (('AP242_MANAGED_MODEL_BASED_3D_ENGINEERING_MIM_LF { 1 0 10303 442 1 1 4 }'));
ENDSEC;

DATA;
#10=MECHANICAL_DESIGN_GEOMETRIC_PRESENTATION_REPRESENTATION('',(#13),#2093);
#11=SHAPE_REPRESENTATION_RELATIONSHIP('SRR','None',#2100,#12);
#12=ADVANCED_BREP_SHAPE_REPRESENTATION('',(#14),#2092);
#13=STYLED_ITEM('',(#2109),#14);
#14=MANIFOLD_SOLID_BREP('Body2',#1293);
#15=FACE_BOUND('',#172,.T.);
#16=FACE_BOUND('',#175,.T.);
#17=FACE_BOUND('',#177,.T.);
#18=FACE_BOUND('',#180,.T.);
#19=FACE_BOUND('',#181,.T.);
#20=FACE_BOUND('',#189,.T.);
#21=FACE_BOUND('',#193,.T.);
#22=FACE_BOUND('',#195,.T.);
#23=FACE_BOUND('',#198,.T.);
#24=CIRCLE('',#1359,5.);
#25=CIRCLE('',#1360,5.);
#26=CIRCLE('',#1363,5.);
#27=CIRCLE('',#1364,5.);
#28=CIRCLE('',#1368,5.00000000000001);
#29=CIRCLE('',#1369,5.00000000000001);
#30=CIRCLE('',#1372,5.);
#31=CIRCLE('',#1373,5.);
#32=CIRCLE('',#1375,6.99999999999999);
#33=CIRCLE('',#1376,6.99999999999999);
#34=CIRCLE('',#1379,6.99999999999999);
#35=CIRCLE('',#1380,6.99999999999999);
#36=CIRCLE('',#1383,7.00000000000001);
#37=CIRCLE('',#1384,7.00000000000001);
#38=CIRCLE('',#1387,7.);
#39=CIRCLE('',#1388,7.);
#40=CYLINDRICAL_SURFACE('',#1358,5.);
#41=CYLINDRICAL_SURFACE('',#1362,5.);
#42=CYLINDRICAL_SURFACE('',#1367,5.00000000000001);
#43=CYLINDRICAL_SURFACE('',#1371,5.);
#44=CYLINDRICAL_SURFACE('',#1374,6.99999999999999);
#45=CYLINDRICAL_SURFACE('',#1378,6.99999999999999);
#46=CYLINDRICAL_SURFACE('',#1382,7.00000000000001);
#47=CYLINDRICAL_SURFACE('',#1386,7.);
#48=FACE_OUTER_BOUND('',#119,.T.);
#49=FACE_OUTER_BOUND('',#120,.T.);
#50=FACE_OUTER_BOUND('',#121,.T.);
#51=FACE_OUTER_BOUND('',#122,.T.);
#52=FACE_OUTER_BOUND('',#123,.T.);
#53=FACE_OUTER_BOUND('',#124,.T.);
#54=FACE_OUTER_BOUND('',#125,.T.);
#55=FACE_OUTER_BOUND('',#126,.T.);
#56=FACE_OUTER_BOUND('',#127,.T.);
#57=FACE_OUTER_BOUND('',#128,.T.);
#58=FACE_OUTER_BOUND('',#129,.T.);
#59=FACE_OUTER_BOUND('',#130,.T.);
#60=FACE_OUTER_BOUND('',#131,.T.);
#61=FACE_OUTER_BOUND('',#132,.T.);
#62=FACE_OUTER_BOUND('',#133,.T.);
#63=FACE_OUTER_BOUND('',#134,.T.);
#64=FACE_OUTER_BOUND('',#135,.T.);
#65=FACE_OUTER_BOUND('',#136,.T.);
#66=FACE_OUTER_BOUND('',#137,.T.);
#67=FACE_OUTER_BOUND('',#138,.T.);
#68=FACE_OUTER_BOUND('',#139,.T.);
#69=FACE_OUTER_BOUND('',#140,.T.);
#70=FACE_OUTER_BOUND('',#141,.T.);
#71=FACE_OUTER_BOUND('',#142,.T.);
#72=FACE_OUTER_BOUND('',#143,.T.);
#73=FACE_OUTER_BOUND('',#144,.T.);
#74=FACE_OUTER_BOUND('',#145,.T.);
#75=FACE_OUTER_BOUND('',#146,.T.);
#76=FACE_OUTER_BOUND('',#147,.T.);
#77=FACE_OUTER_BOUND('',#148,.T.);
#78=FACE_OUTER_BOUND('',#149,.T.);
#79=FACE_OUTER_BOUND('',#150,.T.);
#80=FACE_OUTER_BOUND('',#151,.T.);
#81=FACE_OUTER_BOUND('',#152,.T.);
#82=FACE_OUTER_BOUND('',#153,.T.);
#83=FACE_OUTER_BOUND('',#154,.T.);
#84=FACE_OUTER_BOUND('',#155,.T.);
#85=FACE_OUTER_BOUND('',#156,.T.);
#86=FACE_OUTER_BOUND('',#157,.T.);
#87=FACE_OUTER_BOUND('',#158,.T.);
#88=FACE_OUTER_BOUND('',#159,.T.);
#89=FACE_OUTER_BOUND('',#160,.T.);
#90=FACE_OUTER_BOUND('',#161,.T.);
#91=FACE_OUTER_BOUND('',#162,.T.);
#92=FACE_OUTER_BOUND('',#163,.T.);
#93=FACE_OUTER_BOUND('',#164,.T.);
#94=FACE_OUTER_BOUND('',#165,.T.);
#95=FACE_OUTER_BOUND('',#166,.T.);
#96=FACE_OUTER_BOUND('',#167,.T.);
#97=FACE_OUTER_BOUND('',#168,.T.);
#98=FACE_OUTER_BOUND('',#169,.T.);
#99=FACE_OUTER_BOUND('',#170,.T.);
#100=FACE_OUTER_BOUND('',#171,.T.);
#101=FACE_OUTER_BOUND('',#173,.T.);
#102=FACE_OUTER_BOUND('',#174,.T.);
#103=FACE_OUTER_BOUND('',#176,.T.);
#104=FACE_OUTER_BOUND('',#178,.T.);
#105=FACE_OUTER_BOUND('',#179,.T.);
#106=FACE_OUTER_BOUND('',#182,.T.);
#107=FACE_OUTER_BOUND('',#183,.T.);
#108=FACE_OUTER_BOUND('',#184,.T.);
#109=FACE_OUTER_BOUND('',#185,.T.);
#110=FACE_OUTER_BOUND('',#186,.T.);
#111=FACE_OUTER_BOUND('',#187,.T.);
#112=FACE_OUTER_BOUND('',#188,.T.);
#113=FACE_OUTER_BOUND('',#190,.T.);
#114=FACE_OUTER_BOUND('',#191,.T.);
#115=FACE_OUTER_BOUND('',#192,.T.);
#116=FACE_OUTER_BOUND('',#194,.T.);
#117=FACE_OUTER_BOUND('',#196,.T.);
#118=FACE_OUTER_BOUND('',#197,.T.);
#119=EDGE_LOOP('',(#807,#808,#809,#810));
#120=EDGE_LOOP('',(#811,#812,#813,#814));
#121=EDGE_LOOP('',(#815,#816,#817,#818));
#122=EDGE_LOOP('',(#819,#820,#821,#822));
#123=EDGE_LOOP('',(#823,#824,#825,#826));
#124=EDGE_LOOP('',(#827,#828,#829,#830));
#125=EDGE_LOOP('',(#831,#832,#833,#834));
#126=EDGE_LOOP('',(#835,#836,#837,#838));
#127=EDGE_LOOP('',(#839,#840,#841,#842));
#128=EDGE_LOOP('',(#843,#844,#845,#846));
#129=EDGE_LOOP('',(#847,#848,#849,#850));
#130=EDGE_LOOP('',(#851,#852,#853,#854));
#131=EDGE_LOOP('',(#855,#856,#857,#858));
#132=EDGE_LOOP('',(#859,#860,#861,#862));
#133=EDGE_LOOP('',(#863,#864,#865,#866));
#134=EDGE_LOOP('',(#867,#868,#869,#870));
#135=EDGE_LOOP('',(#871,#872,#873,#874));
#136=EDGE_LOOP('',(#875,#876,#877,#878));
#137=EDGE_LOOP('',(#879,#880,#881,#882));
#138=EDGE_LOOP('',(#883,#884,#885,#886));
#139=EDGE_LOOP('',(#887,#888,#889,#890));
#140=EDGE_LOOP('',(#891,#892,#893,#894));
#141=EDGE_LOOP('',(#895,#896,#897,#898));
#142=EDGE_LOOP('',(#899,#900,#901,#902));
#143=EDGE_LOOP('',(#903,#904,#905,#906));
#144=EDGE_LOOP('',(#907,#908,#909,#910));
#145=EDGE_LOOP('',(#911,#912,#913,#914));
#146=EDGE_LOOP('',(#915,#916,#917,#918));
#147=EDGE_LOOP('',(#919,#920,#921,#922));
#148=EDGE_LOOP('',(#923,#924,#925,#926));
#149=EDGE_LOOP('',(#927,#928,#929,#930));
#150=EDGE_LOOP('',(#931,#932,#933,#934));
#151=EDGE_LOOP('',(#935,#936,#937,#938));
#152=EDGE_LOOP('',(#939,#940,#941,#942));
#153=EDGE_LOOP('',(#943,#944,#945,#946));
#154=EDGE_LOOP('',(#947,#948,#949,#950));
#155=EDGE_LOOP('',(#951,#952,#953,#954));
#156=EDGE_LOOP('',(#955,#956,#957,#958));
#157=EDGE_LOOP('',(#959,#960,#961,#962));
#158=EDGE_LOOP('',(#963,#964,#965,#966));
#159=EDGE_LOOP('',(#967,#968,#969,#970));
#160=EDGE_LOOP('',(#971,#972,#973,#974));
#161=EDGE_LOOP('',(#975,#976,#977,#978));
#162=EDGE_LOOP('',(#979,#980,#981,#982));
#163=EDGE_LOOP('',(#983,#984,#985,#986));
#164=EDGE_LOOP('',(#987,#988,#989,#990));
#165=EDGE_LOOP('',(#991,#992,#993,#994));
#166=EDGE_LOOP('',(#995,#996,#997,#998));
#167=EDGE_LOOP('',(#999,#1000,#1001,#1002));
#168=EDGE_LOOP('',(#1003,#1004,#1005,#1006));
#169=EDGE_LOOP('',(#1007,#1008,#1009,#1010));
#170=EDGE_LOOP('',(#1011,#1012,#1013,#1014));
#171=EDGE_LOOP('',(#1015,#1016,#1017,#1018));
#172=EDGE_LOOP('',(#1019,#1020,#1021,#1022));
#173=EDGE_LOOP('',(#1023,#1024,#1025,#1026));
#174=EDGE_LOOP('',(#1027,#1028,#1029,#1030,#1031,#1032,#1033,#1034));
#175=EDGE_LOOP('',(#1035,#1036,#1037,#1038));
#176=EDGE_LOOP('',(#1039,#1040,#1041,#1042));
#177=EDGE_LOOP('',(#1043,#1044,#1045,#1046));
#178=EDGE_LOOP('',(#1047,#1048,#1049,#1050));
#179=EDGE_LOOP('',(#1051,#1052,#1053,#1054));
#180=EDGE_LOOP('',(#1055,#1056,#1057,#1058));
#181=EDGE_LOOP('',(#1059,#1060,#1061,#1062));
#182=EDGE_LOOP('',(#1063,#1064,#1065,#1066));
#183=EDGE_LOOP('',(#1067,#1068,#1069,#1070));
#184=EDGE_LOOP('',(#1071,#1072,#1073,#1074));
#185=EDGE_LOOP('',(#1075,#1076,#1077,#1078));
#186=EDGE_LOOP('',(#1079,#1080,#1081,#1082));
#187=EDGE_LOOP('',(#1083,#1084,#1085,#1086));
#188=EDGE_LOOP('',(#1087,#1088,#1089,#1090));
#189=EDGE_LOOP('',(#1091,#1092,#1093,#1094));
#190=EDGE_LOOP('',(#1095,#1096,#1097,#1098));
#191=EDGE_LOOP('',(#1099,#1100,#1101,#1102));
#192=EDGE_LOOP('',(#1103,#1104,#1105,#1106,#1107,#1108,#1109,#1110));
#193=EDGE_LOOP('',(#1111,#1112,#1113,#1114,#1115,#1116,#1117,#1118));
#194=EDGE_LOOP('',(#1119,#1120,#1121,#1122,#1123,#1124,#1125,#1126));
#195=EDGE_LOOP('',(#1127,#1128,#1129,#1130));
#196=EDGE_LOOP('',(#1131,#1132,#1133,#1134,#1135,#1136,#1137,#1138,#1139,
#1140,#1141,#1142,#1143,#1144,#1145,#1146));
#197=EDGE_LOOP('',(#1147,#1148,#1149,#1150,#1151,#1152,#1153,#1154));
#198=EDGE_LOOP('',(#1155,#1156,#1157,#1158));
#199=LINE('',#1734,#359);
#200=LINE('',#1736,#360);
#201=LINE('',#1738,#361);
#202=LINE('',#1739,#362);
#203=LINE('',#1742,#363);
#204=LINE('',#1744,#364);
#205=LINE('',#1745,#365);
#206=LINE('',#1748,#366);
#207=LINE('',#1750,#367);
#208=LINE('',#1751,#368);
#209=LINE('',#1753,#369);
#210=LINE('',#1754,#370);
#211=LINE('',#1757,#371);
#212=LINE('',#1759,#372);
#213=LINE('',#1760,#373);
#214=LINE('',#1763,#374);
#215=LINE('',#1764,#375);
#216=LINE('',#1768,#376);
#217=LINE('',#1769,#377);
#218=LINE('',#1771,#378);
#219=LINE('',#1775,#379);
#220=LINE('',#1777,#380);
#221=LINE('',#1779,#381);
#222=LINE('',#1780,#382);
#223=LINE('',#1783,#383);
#224=LINE('',#1785,#384);
#225=LINE('',#1786,#385);
#226=LINE('',#1789,#386);
#227=LINE('',#1791,#387);
#228=LINE('',#1792,#388);
#229=LINE('',#1794,#389);
#230=LINE('',#1795,#390);
#231=LINE('',#1798,#391);
#232=LINE('',#1800,#392);
#233=LINE('',#1801,#393);
#234=LINE('',#1804,#394);
#235=LINE('',#1805,#395);
#236=LINE('',#1809,#396);
#237=LINE('',#1810,#397);
#238=LINE('',#1812,#398);
#239=LINE('',#1816,#399);
#240=LINE('',#1818,#400);
#241=LINE('',#1820,#401);
#242=LINE('',#1821,#402);
#243=LINE('',#1824,#403);
#244=LINE('',#1826,#404);
#245=LINE('',#1827,#405);
#246=LINE('',#1830,#406);
#247=LINE('',#1832,#407);
#248=LINE('',#1833,#408);
#249=LINE('',#1835,#409);
#250=LINE('',#1836,#410);
#251=LINE('',#1839,#411);
#252=LINE('',#1841,#412);
#253=LINE('',#1842,#413);
#254=LINE('',#1845,#414);
#255=LINE('',#1846,#415);
#256=LINE('',#1850,#416);
#257=LINE('',#1851,#417);
#258=LINE('',#1853,#418);
#259=LINE('',#1857,#419);
#260=LINE('',#1859,#420);
#261=LINE('',#1861,#421);
#262=LINE('',#1862,#422);
#263=LINE('',#1865,#423);
#264=LINE('',#1867,#424);
#265=LINE('',#1868,#425);
#266=LINE('',#1871,#426);
#267=LINE('',#1873,#427);
#268=LINE('',#1874,#428);
#269=LINE('',#1876,#429);
#270=LINE('',#1877,#430);
#271=LINE('',#1880,#431);
#272=LINE('',#1882,#432);
#273=LINE('',#1883,#433);
#274=LINE('',#1886,#434);
#275=LINE('',#1887,#435);
#276=LINE('',#1891,#436);
#277=LINE('',#1892,#437);
#278=LINE('',#1894,#438);
#279=LINE('',#1898,#439);
#280=LINE('',#1900,#440);
#281=LINE('',#1902,#441);
#282=LINE('',#1903,#442);
#283=LINE('',#1906,#443);
#284=LINE('',#1908,#444);
#285=LINE('',#1909,#445);
#286=LINE('',#1912,#446);
#287=LINE('',#1914,#447);
#288=LINE('',#1915,#448);
#289=LINE('',#1917,#449);
#290=LINE('',#1918,#450);
#291=LINE('',#1922,#451);
#292=LINE('',#1924,#452);
#293=LINE('',#1926,#453);
#294=LINE('',#1927,#454);
#295=LINE('',#1930,#455);
#296=LINE('',#1932,#456);
#297=LINE('',#1933,#457);
#298=LINE('',#1936,#458);
#299=LINE('',#1938,#459);
#300=LINE('',#1939,#460);
#301=LINE('',#1941,#461);
#302=LINE('',#1942,#462);
#303=LINE('',#1946,#463);
#304=LINE('',#1948,#464);
#305=LINE('',#1950,#465);
#306=LINE('',#1951,#466);
#307=LINE('',#1954,#467);
#308=LINE('',#1956,#468);
#309=LINE('',#1957,#469);
#310=LINE('',#1960,#470);
#311=LINE('',#1962,#471);
#312=LINE('',#1963,#472);
#313=LINE('',#1966,#473);
#314=LINE('',#1968,#474);
#315=LINE('',#1969,#475);
#316=LINE('',#1972,#476);
#317=LINE('',#1974,#477);
#318=LINE('',#1975,#478);
#319=LINE('',#1978,#479);
#320=LINE('',#1980,#480);
#321=LINE('',#1981,#481);
#322=LINE('',#1984,#482);
#323=LINE('',#1986,#483);
#324=LINE('',#1987,#484);
#325=LINE('',#1993,#485);
#326=LINE('',#1996,#486);
#327=LINE('',#1999,#487);
#328=LINE('',#2001,#488);
#329=LINE('',#2002,#489);
#330=LINE('',#2007,#490);
#331=LINE('',#2010,#491);
#332=LINE('',#2012,#492);
#333=LINE('',#2014,#493);
#334=LINE('',#2015,#494);
#335=LINE('',#2016,#495);
#336=LINE('',#2019,#496);
#337=LINE('',#2021,#497);
#338=LINE('',#2022,#498);
#339=LINE('',#2027,#499);
#340=LINE('',#2031,#500);
#341=LINE('',#2033,#501);
#342=LINE('',#2034,#502);
#343=LINE('',#2043,#503);
#344=LINE('',#2046,#504);
#345=LINE('',#2049,#505);
#346=LINE('',#2051,#506);
#347=LINE('',#2052,#507);
#348=LINE('',#2058,#508);
#349=LINE('',#2061,#509);
#350=LINE('',#2063,#510);
#351=LINE('',#2064,#511);
#352=LINE('',#2070,#512);
#353=LINE('',#2073,#513);
#354=LINE('',#2075,#514);
#355=LINE('',#2076,#515);
#356=LINE('',#2082,#516);
#357=LINE('',#2084,#517);
#358=LINE('',#2085,#518);
#359=VECTOR('',#1398,10.);
#360=VECTOR('',#1399,10.);
#361=VECTOR('',#1400,10.);
#362=VECTOR('',#1401,10.);
#363=VECTOR('',#1404,10.);
#364=VECTOR('',#1405,10.);
#365=VECTOR('',#1406,10.);
#366=VECTOR('',#1409,10.);
#367=VECTOR('',#1410,10.);
#368=VECTOR('',#1411,10.);
#369=VECTOR('',#1414,10.);
#370=VECTOR('',#1415,10.);
#371=VECTOR('',#1418,10.);
#372=VECTOR('',#1419,10.);
#373=VECTOR('',#1420,10.);
#374=VECTOR('',#1423,10.);
#375=VECTOR('',#1424,10.);
#376=VECTOR('',#1429,10.);
#377=VECTOR('',#1430,10.);
#378=VECTOR('',#1433,10.);
#379=VECTOR('',#1436,10.);
#380=VECTOR('',#1437,10.);
#381=VECTOR('',#1438,10.);
#382=VECTOR('',#1439,10.);
#383=VECTOR('',#1442,10.);
#384=VECTOR('',#1443,10.);
#385=VECTOR('',#1444,10.);
#386=VECTOR('',#1447,10.);
#387=VECTOR('',#1448,10.);
#388=VECTOR('',#1449,10.);
#389=VECTOR('',#1452,10.);
#390=VECTOR('',#1453,10.);
#391=VECTOR('',#1456,10.);
#392=VECTOR('',#1457,10.);
#393=VECTOR('',#1458,10.);
#394=VECTOR('',#1461,10.);
#395=VECTOR('',#1462,10.);
#396=VECTOR('',#1467,10.);
#397=VECTOR('',#1468,10.);
#398=VECTOR('',#1471,10.);
#399=VECTOR('',#1474,10.);
#400=VECTOR('',#1475,10.);
#401=VECTOR('',#1476,10.);
#402=VECTOR('',#1477,10.);
#403=VECTOR('',#1480,10.);
#404=VECTOR('',#1481,10.);
#405=VECTOR('',#1482,10.);
#406=VECTOR('',#1485,10.);
#407=VECTOR('',#1486,10.);
#408=VECTOR('',#1487,10.);
#409=VECTOR('',#1490,10.);
#410=VECTOR('',#1491,10.);
#411=VECTOR('',#1494,10.);
#412=VECTOR('',#1495,10.);
#413=VECTOR('',#1496,10.);
#414=VECTOR('',#1499,10.);
#415=VECTOR('',#1500,10.);
#416=VECTOR('',#1505,10.);
#417=VECTOR('',#1506,10.);
#418=VECTOR('',#1509,10.);
#419=VECTOR('',#1512,10.);
#420=VECTOR('',#1513,10.);
#421=VECTOR('',#1514,10.);
#422=VECTOR('',#1515,10.);
#423=VECTOR('',#1518,10.);
#424=VECTOR('',#1519,10.);
#425=VECTOR('',#1520,10.);
#426=VECTOR('',#1523,10.);
#427=VECTOR('',#1524,10.);
#428=VECTOR('',#1525,10.);
#429=VECTOR('',#1528,10.);
#430=VECTOR('',#1529,10.);
#431=VECTOR('',#1532,10.);
#432=VECTOR('',#1533,10.);
#433=VECTOR('',#1534,10.);
#434=VECTOR('',#1537,10.);
#435=VECTOR('',#1538,10.);
#436=VECTOR('',#1543,10.);
#437=VECTOR('',#1544,10.);
#438=VECTOR('',#1547,10.);
#439=VECTOR('',#1550,10.);
#440=VECTOR('',#1551,10.);
#441=VECTOR('',#1552,10.);
#442=VECTOR('',#1553,10.);
#443=VECTOR('',#1556,10.);
#444=VECTOR('',#1557,10.);
#445=VECTOR('',#1558,10.);
#446=VECTOR('',#1561,10.);
#447=VECTOR('',#1562,10.);
#448=VECTOR('',#1563,10.);
#449=VECTOR('',#1566,10.);
#450=VECTOR('',#1567,10.);
#451=VECTOR('',#1570,10.);
#452=VECTOR('',#1571,10.);
#453=VECTOR('',#1572,10.);
#454=VECTOR('',#1573,10.);
#455=VECTOR('',#1576,10.);
#456=VECTOR('',#1577,10.);
#457=VECTOR('',#1578,10.);
#458=VECTOR('',#1581,10.);
#459=VECTOR('',#1582,10.);
#460=VECTOR('',#1583,10.);
#461=VECTOR('',#1586,10.);
#462=VECTOR('',#1587,10.);
#463=VECTOR('',#1590,10.);
#464=VECTOR('',#1591,10.);
#465=VECTOR('',#1592,10.);
#466=VECTOR('',#1593,10.);
#467=VECTOR('',#1596,10.);
#468=VECTOR('',#1597,10.);
#469=VECTOR('',#1598,10.);
#470=VECTOR('',#1601,10.);
#471=VECTOR('',#1602,10.);
#472=VECTOR('',#1603,10.);
#473=VECTOR('',#1606,10.);
#474=VECTOR('',#1607,10.);
#475=VECTOR('',#1608,10.);
#476=VECTOR('',#1611,10.);
#477=VECTOR('',#1612,10.);
#478=VECTOR('',#1613,10.);
#479=VECTOR('',#1616,10.);
#480=VECTOR('',#1617,10.);
#481=VECTOR('',#1618,10.);
#482=VECTOR('',#1621,10.);
#483=VECTOR('',#1622,10.);
#484=VECTOR('',#1623,10.);
#485=VECTOR('',#1628,10.);
#486=VECTOR('',#1631,10.);
#487=VECTOR('',#1634,10.);
#488=VECTOR('',#1635,10.);
#489=VECTOR('',#1636,10.);
#490=VECTOR('',#1641,10.);
#491=VECTOR('',#1646,10.);
#492=VECTOR('',#1647,10.);
#493=VECTOR('',#1648,10.);
#494=VECTOR('',#1649,10.);
#495=VECTOR('',#1650,10.);
#496=VECTOR('',#1653,10.);
#497=VECTOR('',#1654,10.);
#498=VECTOR('',#1655,10.);
#499=VECTOR('',#1660,10.);
#500=VECTOR('',#1665,10.);
#501=VECTOR('',#1666,10.);
#502=VECTOR('',#1667,10.);
#503=VECTOR('',#1678,10.);
#504=VECTOR('',#1681,10.);
#505=VECTOR('',#1684,10.);
#506=VECTOR('',#1685,10.);
#507=VECTOR('',#1686,10.);
#508=VECTOR('',#1693,10.);
#509=VECTOR('',#1696,10.);
#510=VECTOR('',#1697,10.);
#511=VECTOR('',#1698,10.);
#512=VECTOR('',#1705,10.);
#513=VECTOR('',#1708,10.);
#514=VECTOR('',#1709,10.);
#515=VECTOR('',#1710,10.);
#516=VECTOR('',#1717,10.);
#517=VECTOR('',#1720,10.);
#518=VECTOR('',#1721,10.);
#519=VERTEX_POINT('',#1732);
#520=VERTEX_POINT('',#1733);
#521=VERTEX_POINT('',#1735);
#522=VERTEX_POINT('',#1737);
#523=VERTEX_POINT('',#1741);
#524=VERTEX_POINT('',#1743);
#525=VERTEX_POINT('',#1747);
#526=VERTEX_POINT('',#1749);
#527=VERTEX_POINT('',#1756);
#528=VERTEX_POINT('',#1758);
#529=VERTEX_POINT('',#1762);
#530=VERTEX_POINT('',#1767);
#531=VERTEX_POINT('',#1773);
#532=VERTEX_POINT('',#1774);
#533=VERTEX_POINT('',#1776);
#534=VERTEX_POINT('',#1778);
#535=VERTEX_POINT('',#1782);
#536=VERTEX_POINT('',#1784);
#537=VERTEX_POINT('',#1788);
#538=VERTEX_POINT('',#1790);
#539=VERTEX_POINT('',#1797);
#540=VERTEX_POINT('',#1799);
#541=VERTEX_POINT('',#1803);
#542=VERTEX_POINT('',#1808);
#543=VERTEX_POINT('',#1814);
#544=VERTEX_POINT('',#1815);
#545=VERTEX_POINT('',#1817);
#546=VERTEX_POINT('',#1819);
#547=VERTEX_POINT('',#1823);
#548=VERTEX_POINT('',#1825);
#549=VERTEX_POINT('',#1829);
#550=VERTEX_POINT('',#1831);
#551=VERTEX_POINT('',#1838);
#552=VERTEX_POINT('',#1840);
#553=VERTEX_POINT('',#1844);
#554=VERTEX_POINT('',#1849);
#555=VERTEX_POINT('',#1855);
#556=VERTEX_POINT('',#1856);
#557=VERTEX_POINT('',#1858);
#558=VERTEX_POINT('',#1860);
#559=VERTEX_POINT('',#1864);
#560=VERTEX_POINT('',#1866);
#561=VERTEX_POINT('',#1870);
#562=VERTEX_POINT('',#1872);
#563=VERTEX_POINT('',#1879);
#564=VERTEX_POINT('',#1881);
#565=VERTEX_POINT('',#1885);
#566=VERTEX_POINT('',#1890);
#567=VERTEX_POINT('',#1896);
#568=VERTEX_POINT('',#1897);
#569=VERTEX_POINT('',#1899);
#570=VERTEX_POINT('',#1901);
#571=VERTEX_POINT('',#1905);
#572=VERTEX_POINT('',#1907);
#573=VERTEX_POINT('',#1911);
#574=VERTEX_POINT('',#1913);
#575=VERTEX_POINT('',#1920);
#576=VERTEX_POINT('',#1921);
#577=VERTEX_POINT('',#1923);
#578=VERTEX_POINT('',#1925);
#579=VERTEX_POINT('',#1929);
#580=VERTEX_POINT('',#1931);
#581=VERTEX_POINT('',#1935);
#582=VERTEX_POINT('',#1937);
#583=VERTEX_POINT('',#1944);
#584=VERTEX_POINT('',#1945);
#585=VERTEX_POINT('',#1947);
#586=VERTEX_POINT('',#1949);
#587=VERTEX_POINT('',#1953);
#588=VERTEX_POINT('',#1955);
#589=VERTEX_POINT('',#1959);
#590=VERTEX_POINT('',#1961);
#591=VERTEX_POINT('',#1965);
#592=VERTEX_POINT('',#1967);
#593=VERTEX_POINT('',#1971);
#594=VERTEX_POINT('',#1973);
#595=VERTEX_POINT('',#1977);
#596=VERTEX_POINT('',#1979);
#597=VERTEX_POINT('',#1983);
#598=VERTEX_POINT('',#1985);
#599=VERTEX_POINT('',#1989);
#600=VERTEX_POINT('',#1990);
#601=VERTEX_POINT('',#1992);
#602=VERTEX_POINT('',#1994);
#603=VERTEX_POINT('',#1998);
#604=VERTEX_POINT('',#2000);
#605=VERTEX_POINT('',#2004);
#606=VERTEX_POINT('',#2006);
#607=VERTEX_POINT('',#2011);
#608=VERTEX_POINT('',#2013);
#609=VERTEX_POINT('',#2018);
#610=VERTEX_POINT('',#2020);
#611=VERTEX_POINT('',#2024);
#612=VERTEX_POINT('',#2026);
#613=VERTEX_POINT('',#2030);
#614=VERTEX_POINT('',#2032);
#615=VERTEX_POINT('',#2039);
#616=VERTEX_POINT('',#2040);
#617=VERTEX_POINT('',#2042);
#618=VERTEX_POINT('',#2044);
#619=VERTEX_POINT('',#2048);
#620=VERTEX_POINT('',#2050);
#621=VERTEX_POINT('',#2054);
#622=VERTEX_POINT('',#2056);
#623=VERTEX_POINT('',#2060);
#624=VERTEX_POINT('',#2062);
#625=VERTEX_POINT('',#2066);
#626=VERTEX_POINT('',#2068);
#627=VERTEX_POINT('',#2072);
#628=VERTEX_POINT('',#2074);
#629=VERTEX_POINT('',#2078);
#630=VERTEX_POINT('',#2080);
#631=EDGE_CURVE('',#519,#520,#199,.T.);
#632=EDGE_CURVE('',#520,#521,#200,.T.);
#633=EDGE_CURVE('',#521,#522,#201,.T.);
#634=EDGE_CURVE('',#519,#522,#202,.T.);
#635=EDGE_CURVE('',#520,#523,#203,.T.);
#636=EDGE_CURVE('',#523,#524,#204,.T.);
#637=EDGE_CURVE('',#524,#521,#205,.T.);
#638=EDGE_CURVE('',#523,#525,#206,.T.);
#639=EDGE_CURVE('',#525,#526,#207,.T.);
#640=EDGE_CURVE('',#526,#524,#208,.T.);
#641=EDGE_CURVE('',#522,#526,#209,.T.);
#642=EDGE_CURVE('',#525,#519,#210,.T.);
#643=EDGE_CURVE('',#527,#522,#211,.T.);
#644=EDGE_CURVE('',#528,#527,#212,.T.);
#645=EDGE_CURVE('',#528,#526,#213,.T.);
#646=EDGE_CURVE('',#529,#521,#214,.T.);
#647=EDGE_CURVE('',#527,#529,#215,.T.);
#648=EDGE_CURVE('',#530,#528,#216,.T.);
#649=EDGE_CURVE('',#530,#524,#217,.T.);
#650=EDGE_CURVE('',#529,#530,#218,.T.);
#651=EDGE_CURVE('',#531,#532,#219,.T.);
#652=EDGE_CURVE('',#532,#533,#220,.T.);
#653=EDGE_CURVE('',#533,#534,#221,.T.);
#654=EDGE_CURVE('',#531,#534,#222,.T.);
#655=EDGE_CURVE('',#532,#535,#223,.T.);
#656=EDGE_CURVE('',#535,#536,#224,.T.);
#657=EDGE_CURVE('',#536,#533,#225,.T.);
#658=EDGE_CURVE('',#535,#537,#226,.T.);
#659=EDGE_CURVE('',#537,#538,#227,.T.);
#660=EDGE_CURVE('',#538,#536,#228,.T.);
#661=EDGE_CURVE('',#534,#538,#229,.T.);
#662=EDGE_CURVE('',#537,#531,#230,.T.);
#663=EDGE_CURVE('',#539,#534,#231,.T.);
#664=EDGE_CURVE('',#540,#539,#232,.T.);
#665=EDGE_CURVE('',#540,#538,#233,.T.);
#666=EDGE_CURVE('',#541,#533,#234,.T.);
#667=EDGE_CURVE('',#539,#541,#235,.T.);
#668=EDGE_CURVE('',#542,#540,#236,.T.);
#669=EDGE_CURVE('',#542,#536,#237,.T.);
#670=EDGE_CURVE('',#541,#542,#238,.T.);
#671=EDGE_CURVE('',#543,#544,#239,.T.);
#672=EDGE_CURVE('',#544,#545,#240,.T.);
#673=EDGE_CURVE('',#545,#546,#241,.T.);
#674=EDGE_CURVE('',#543,#546,#242,.T.);
#675=EDGE_CURVE('',#544,#547,#243,.T.);
#676=EDGE_CURVE('',#547,#548,#244,.T.);
#677=EDGE_CURVE('',#548,#545,#245,.T.);
#678=EDGE_CURVE('',#547,#549,#246,.T.);
#679=EDGE_CURVE('',#549,#550,#247,.T.);
#680=EDGE_CURVE('',#550,#548,#248,.T.);
#681=EDGE_CURVE('',#546,#550,#249,.T.);
#682=EDGE_CURVE('',#549,#543,#250,.T.);
#683=EDGE_CURVE('',#551,#546,#251,.T.);
#684=EDGE_CURVE('',#552,#551,#252,.T.);
#685=EDGE_CURVE('',#552,#550,#253,.T.);
#686=EDGE_CURVE('',#553,#545,#254,.T.);
#687=EDGE_CURVE('',#551,#553,#255,.T.);
#688=EDGE_CURVE('',#554,#548,#256,.T.);
#689=EDGE_CURVE('',#553,#554,#257,.T.);
#690=EDGE_CURVE('',#554,#552,#258,.T.);
#691=EDGE_CURVE('',#555,#556,#259,.T.);
#692=EDGE_CURVE('',#556,#557,#260,.T.);
#693=EDGE_CURVE('',#557,#558,#261,.T.);
#694=EDGE_CURVE('',#555,#558,#262,.T.);
#695=EDGE_CURVE('',#556,#559,#263,.T.);
#696=EDGE_CURVE('',#559,#560,#264,.T.);
#697=EDGE_CURVE('',#560,#557,#265,.T.);
#698=EDGE_CURVE('',#559,#561,#266,.T.);
#699=EDGE_CURVE('',#561,#562,#267,.T.);
#700=EDGE_CURVE('',#562,#560,#268,.T.);
#701=EDGE_CURVE('',#558,#562,#269,.T.);
#702=EDGE_CURVE('',#561,#555,#270,.T.);
#703=EDGE_CURVE('',#563,#558,#271,.T.);
#704=EDGE_CURVE('',#564,#563,#272,.T.);
#705=EDGE_CURVE('',#564,#562,#273,.T.);
#706=EDGE_CURVE('',#565,#557,#274,.T.);
#707=EDGE_CURVE('',#563,#565,#275,.T.);
#708=EDGE_CURVE('',#566,#560,#276,.T.);
#709=EDGE_CURVE('',#565,#566,#277,.T.);
#710=EDGE_CURVE('',#566,#564,#278,.T.);
#711=EDGE_CURVE('',#567,#568,#279,.T.);
#712=EDGE_CURVE('',#569,#567,#280,.T.);
#713=EDGE_CURVE('',#570,#569,#281,.T.);
#714=EDGE_CURVE('',#570,#568,#282,.T.);
#715=EDGE_CURVE('',#568,#571,#283,.T.);
#716=EDGE_CURVE('',#572,#570,#284,.T.);
#717=EDGE_CURVE('',#572,#571,#285,.T.);
#718=EDGE_CURVE('',#571,#573,#286,.T.);
#719=EDGE_CURVE('',#574,#572,#287,.T.);
#720=EDGE_CURVE('',#574,#573,#288,.T.);
#721=EDGE_CURVE('',#573,#567,#289,.T.);
#722=EDGE_CURVE('',#569,#574,#290,.T.);
#723=EDGE_CURVE('',#575,#576,#291,.T.);
#724=EDGE_CURVE('',#575,#577,#292,.T.);
#725=EDGE_CURVE('',#578,#577,#293,.T.);
#726=EDGE_CURVE('',#576,#578,#294,.T.);
#727=EDGE_CURVE('',#579,#575,#295,.T.);
#728=EDGE_CURVE('',#579,#580,#296,.T.);
#729=EDGE_CURVE('',#577,#580,#297,.T.);
#730=EDGE_CURVE('',#581,#579,#298,.T.);
#731=EDGE_CURVE('',#581,#582,#299,.T.);
#732=EDGE_CURVE('',#580,#582,#300,.T.);
#733=EDGE_CURVE('',#576,#581,#301,.T.);
#734=EDGE_CURVE('',#582,#578,#302,.T.);
#735=EDGE_CURVE('',#583,#584,#303,.T.);
#736=EDGE_CURVE('',#583,#585,#304,.T.);
#737=EDGE_CURVE('',#586,#585,#305,.T.);
#738=EDGE_CURVE('',#584,#586,#306,.T.);
#739=EDGE_CURVE('',#587,#583,#307,.T.);
#740=EDGE_CURVE('',#587,#588,#308,.T.);
#741=EDGE_CURVE('',#585,#588,#309,.T.);
#742=EDGE_CURVE('',#589,#587,#310,.T.);
#743=EDGE_CURVE('',#589,#590,#311,.T.);
#744=EDGE_CURVE('',#588,#590,#312,.T.);
#745=EDGE_CURVE('',#591,#589,#313,.T.);
#746=EDGE_CURVE('',#591,#592,#314,.T.);
#747=EDGE_CURVE('',#590,#592,#315,.T.);
#748=EDGE_CURVE('',#593,#591,#316,.T.);
#749=EDGE_CURVE('',#593,#594,#317,.T.);
#750=EDGE_CURVE('',#592,#594,#318,.T.);
#751=EDGE_CURVE('',#595,#593,#319,.T.);
#752=EDGE_CURVE('',#596,#595,#320,.T.);
#753=EDGE_CURVE('',#594,#596,#321,.T.);
#754=EDGE_CURVE('',#584,#597,#322,.T.);
#755=EDGE_CURVE('',#598,#586,#323,.T.);
#756=EDGE_CURVE('',#597,#598,#324,.T.);
#757=EDGE_CURVE('',#599,#600,#24,.T.);
#758=EDGE_CURVE('',#600,#601,#325,.T.);
#759=EDGE_CURVE('',#602,#601,#25,.T.);
#760=EDGE_CURVE('',#599,#602,#326,.T.);
#761=EDGE_CURVE('',#600,#603,#327,.T.);
#762=EDGE_CURVE('',#603,#604,#328,.T.);
#763=EDGE_CURVE('',#601,#604,#329,.T.);
#764=EDGE_CURVE('',#603,#605,#26,.T.);
#765=EDGE_CURVE('',#605,#606,#330,.T.);
#766=EDGE_CURVE('',#604,#606,#27,.T.);
#767=EDGE_CURVE('',#598,#599,#331,.T.);
#768=EDGE_CURVE('',#607,#602,#332,.T.);
#769=EDGE_CURVE('',#608,#607,#333,.T.);
#770=EDGE_CURVE('',#608,#596,#334,.T.);
#771=EDGE_CURVE('',#597,#595,#335,.T.);
#772=EDGE_CURVE('',#605,#609,#336,.T.);
#773=EDGE_CURVE('',#609,#610,#337,.T.);
#774=EDGE_CURVE('',#606,#610,#338,.T.);
#775=EDGE_CURVE('',#609,#611,#28,.T.);
#776=EDGE_CURVE('',#611,#612,#339,.T.);
#777=EDGE_CURVE('',#610,#612,#29,.T.);
#778=EDGE_CURVE('',#611,#613,#340,.T.);
#779=EDGE_CURVE('',#613,#614,#341,.T.);
#780=EDGE_CURVE('',#612,#614,#342,.T.);
#781=EDGE_CURVE('',#613,#608,#30,.T.);
#782=EDGE_CURVE('',#614,#607,#31,.T.);
#783=EDGE_CURVE('',#615,#616,#32,.T.);
#784=EDGE_CURVE('',#616,#617,#343,.T.);
#785=EDGE_CURVE('',#618,#617,#33,.T.);
#786=EDGE_CURVE('',#615,#618,#344,.T.);
#787=EDGE_CURVE('',#619,#615,#345,.T.);
#788=EDGE_CURVE('',#620,#618,#346,.T.);
#789=EDGE_CURVE('',#619,#620,#347,.T.);
#790=EDGE_CURVE('',#621,#619,#34,.T.);
#791=EDGE_CURVE('',#622,#620,#35,.T.);
#792=EDGE_CURVE('',#621,#622,#348,.T.);
#793=EDGE_CURVE('',#623,#621,#349,.T.);
#794=EDGE_CURVE('',#624,#622,#350,.T.);
#795=EDGE_CURVE('',#623,#624,#351,.T.);
#796=EDGE_CURVE('',#625,#623,#36,.T.);
#797=EDGE_CURVE('',#626,#624,#37,.T.);
#798=EDGE_CURVE('',#625,#626,#352,.T.);
#799=EDGE_CURVE('',#627,#625,#353,.T.);
#800=EDGE_CURVE('',#628,#626,#354,.T.);
#801=EDGE_CURVE('',#627,#628,#355,.T.);
#802=EDGE_CURVE('',#629,#627,#38,.T.);
#803=EDGE_CURVE('',#630,#628,#39,.T.);
#804=EDGE_CURVE('',#629,#630,#356,.T.);
#805=EDGE_CURVE('',#616,#629,#357,.T.);
#806=EDGE_CURVE('',#617,#630,#358,.T.);
#807=ORIENTED_EDGE('',*,*,#631,.T.);
#808=ORIENTED_EDGE('',*,*,#632,.T.);
#809=ORIENTED_EDGE('',*,*,#633,.T.);
#810=ORIENTED_EDGE('',*,*,#634,.F.);
#811=ORIENTED_EDGE('',*,*,#635,.T.);
#812=ORIENTED_EDGE('',*,*,#636,.T.);
#813=ORIENTED_EDGE('',*,*,#637,.T.);
#814=ORIENTED_EDGE('',*,*,#632,.F.);
#815=ORIENTED_EDGE('',*,*,#638,.T.);
#816=ORIENTED_EDGE('',*,*,#639,.T.);
#817=ORIENTED_EDGE('',*,*,#640,.T.);
#818=ORIENTED_EDGE('',*,*,#636,.F.);
#819=ORIENTED_EDGE('',*,*,#641,.T.);
#820=ORIENTED_EDGE('',*,*,#639,.F.);
#821=ORIENTED_EDGE('',*,*,#642,.T.);
#822=ORIENTED_EDGE('',*,*,#634,.T.);
#823=ORIENTED_EDGE('',*,*,#641,.F.);
#824=ORIENTED_EDGE('',*,*,#643,.F.);
#825=ORIENTED_EDGE('',*,*,#644,.F.);
#826=ORIENTED_EDGE('',*,*,#645,.T.);
#827=ORIENTED_EDGE('',*,*,#633,.F.);
#828=ORIENTED_EDGE('',*,*,#646,.F.);
#829=ORIENTED_EDGE('',*,*,#647,.F.);
#830=ORIENTED_EDGE('',*,*,#643,.T.);
#831=ORIENTED_EDGE('',*,*,#631,.F.);
#832=ORIENTED_EDGE('',*,*,#642,.F.);
#833=ORIENTED_EDGE('',*,*,#638,.F.);
#834=ORIENTED_EDGE('',*,*,#635,.F.);
#835=ORIENTED_EDGE('',*,*,#640,.F.);
#836=ORIENTED_EDGE('',*,*,#645,.F.);
#837=ORIENTED_EDGE('',*,*,#648,.F.);
#838=ORIENTED_EDGE('',*,*,#649,.T.);
#839=ORIENTED_EDGE('',*,*,#637,.F.);
#840=ORIENTED_EDGE('',*,*,#649,.F.);
#841=ORIENTED_EDGE('',*,*,#650,.F.);
#842=ORIENTED_EDGE('',*,*,#646,.T.);
#843=ORIENTED_EDGE('',*,*,#651,.T.);
#844=ORIENTED_EDGE('',*,*,#652,.T.);
#845=ORIENTED_EDGE('',*,*,#653,.T.);
#846=ORIENTED_EDGE('',*,*,#654,.F.);
#847=ORIENTED_EDGE('',*,*,#655,.T.);
#848=ORIENTED_EDGE('',*,*,#656,.T.);
#849=ORIENTED_EDGE('',*,*,#657,.T.);
#850=ORIENTED_EDGE('',*,*,#652,.F.);
#851=ORIENTED_EDGE('',*,*,#658,.T.);
#852=ORIENTED_EDGE('',*,*,#659,.T.);
#853=ORIENTED_EDGE('',*,*,#660,.T.);
#854=ORIENTED_EDGE('',*,*,#656,.F.);
#855=ORIENTED_EDGE('',*,*,#661,.T.);
#856=ORIENTED_EDGE('',*,*,#659,.F.);
#857=ORIENTED_EDGE('',*,*,#662,.T.);
#858=ORIENTED_EDGE('',*,*,#654,.T.);
#859=ORIENTED_EDGE('',*,*,#661,.F.);
#860=ORIENTED_EDGE('',*,*,#663,.F.);
#861=ORIENTED_EDGE('',*,*,#664,.F.);
#862=ORIENTED_EDGE('',*,*,#665,.T.);
#863=ORIENTED_EDGE('',*,*,#653,.F.);
#864=ORIENTED_EDGE('',*,*,#666,.F.);
#865=ORIENTED_EDGE('',*,*,#667,.F.);
#866=ORIENTED_EDGE('',*,*,#663,.T.);
#867=ORIENTED_EDGE('',*,*,#651,.F.);
#868=ORIENTED_EDGE('',*,*,#662,.F.);
#869=ORIENTED_EDGE('',*,*,#658,.F.);
#870=ORIENTED_EDGE('',*,*,#655,.F.);
#871=ORIENTED_EDGE('',*,*,#660,.F.);
#872=ORIENTED_EDGE('',*,*,#665,.F.);
#873=ORIENTED_EDGE('',*,*,#668,.F.);
#874=ORIENTED_EDGE('',*,*,#669,.T.);
#875=ORIENTED_EDGE('',*,*,#657,.F.);
#876=ORIENTED_EDGE('',*,*,#669,.F.);
#877=ORIENTED_EDGE('',*,*,#670,.F.);
#878=ORIENTED_EDGE('',*,*,#666,.T.);
#879=ORIENTED_EDGE('',*,*,#671,.T.);
#880=ORIENTED_EDGE('',*,*,#672,.T.);
#881=ORIENTED_EDGE('',*,*,#673,.T.);
#882=ORIENTED_EDGE('',*,*,#674,.F.);
#883=ORIENTED_EDGE('',*,*,#675,.T.);
#884=ORIENTED_EDGE('',*,*,#676,.T.);
#885=ORIENTED_EDGE('',*,*,#677,.T.);
#886=ORIENTED_EDGE('',*,*,#672,.F.);
#887=ORIENTED_EDGE('',*,*,#678,.T.);
#888=ORIENTED_EDGE('',*,*,#679,.T.);
#889=ORIENTED_EDGE('',*,*,#680,.T.);
#890=ORIENTED_EDGE('',*,*,#676,.F.);
#891=ORIENTED_EDGE('',*,*,#681,.T.);
#892=ORIENTED_EDGE('',*,*,#679,.F.);
#893=ORIENTED_EDGE('',*,*,#682,.T.);
#894=ORIENTED_EDGE('',*,*,#674,.T.);
#895=ORIENTED_EDGE('',*,*,#681,.F.);
#896=ORIENTED_EDGE('',*,*,#683,.F.);
#897=ORIENTED_EDGE('',*,*,#684,.F.);
#898=ORIENTED_EDGE('',*,*,#685,.T.);
#899=ORIENTED_EDGE('',*,*,#673,.F.);
#900=ORIENTED_EDGE('',*,*,#686,.F.);
#901=ORIENTED_EDGE('',*,*,#687,.F.);
#902=ORIENTED_EDGE('',*,*,#683,.T.);
#903=ORIENTED_EDGE('',*,*,#671,.F.);
#904=ORIENTED_EDGE('',*,*,#682,.F.);
#905=ORIENTED_EDGE('',*,*,#678,.F.);
#906=ORIENTED_EDGE('',*,*,#675,.F.);
#907=ORIENTED_EDGE('',*,*,#677,.F.);
#908=ORIENTED_EDGE('',*,*,#688,.F.);
#909=ORIENTED_EDGE('',*,*,#689,.F.);
#910=ORIENTED_EDGE('',*,*,#686,.T.);
#911=ORIENTED_EDGE('',*,*,#680,.F.);
#912=ORIENTED_EDGE('',*,*,#685,.F.);
#913=ORIENTED_EDGE('',*,*,#690,.F.);
#914=ORIENTED_EDGE('',*,*,#688,.T.);
#915=ORIENTED_EDGE('',*,*,#691,.T.);
#916=ORIENTED_EDGE('',*,*,#692,.T.);
#917=ORIENTED_EDGE('',*,*,#693,.T.);
#918=ORIENTED_EDGE('',*,*,#694,.F.);
#919=ORIENTED_EDGE('',*,*,#695,.T.);
#920=ORIENTED_EDGE('',*,*,#696,.T.);
#921=ORIENTED_EDGE('',*,*,#697,.T.);
#922=ORIENTED_EDGE('',*,*,#692,.F.);
#923=ORIENTED_EDGE('',*,*,#698,.T.);
#924=ORIENTED_EDGE('',*,*,#699,.T.);
#925=ORIENTED_EDGE('',*,*,#700,.T.);
#926=ORIENTED_EDGE('',*,*,#696,.F.);
#927=ORIENTED_EDGE('',*,*,#701,.T.);
#928=ORIENTED_EDGE('',*,*,#699,.F.);
#929=ORIENTED_EDGE('',*,*,#702,.T.);
#930=ORIENTED_EDGE('',*,*,#694,.T.);
#931=ORIENTED_EDGE('',*,*,#701,.F.);
#932=ORIENTED_EDGE('',*,*,#703,.F.);
#933=ORIENTED_EDGE('',*,*,#704,.F.);
#934=ORIENTED_EDGE('',*,*,#705,.T.);
#935=ORIENTED_EDGE('',*,*,#693,.F.);
#936=ORIENTED_EDGE('',*,*,#706,.F.);
#937=ORIENTED_EDGE('',*,*,#707,.F.);
#938=ORIENTED_EDGE('',*,*,#703,.T.);
#939=ORIENTED_EDGE('',*,*,#691,.F.);
#940=ORIENTED_EDGE('',*,*,#702,.F.);
#941=ORIENTED_EDGE('',*,*,#698,.F.);
#942=ORIENTED_EDGE('',*,*,#695,.F.);
#943=ORIENTED_EDGE('',*,*,#697,.F.);
#944=ORIENTED_EDGE('',*,*,#708,.F.);
#945=ORIENTED_EDGE('',*,*,#709,.F.);
#946=ORIENTED_EDGE('',*,*,#706,.T.);
#947=ORIENTED_EDGE('',*,*,#700,.F.);
#948=ORIENTED_EDGE('',*,*,#705,.F.);
#949=ORIENTED_EDGE('',*,*,#710,.F.);
#950=ORIENTED_EDGE('',*,*,#708,.T.);
#951=ORIENTED_EDGE('',*,*,#711,.F.);
#952=ORIENTED_EDGE('',*,*,#712,.F.);
#953=ORIENTED_EDGE('',*,*,#713,.F.);
#954=ORIENTED_EDGE('',*,*,#714,.T.);
#955=ORIENTED_EDGE('',*,*,#715,.F.);
#956=ORIENTED_EDGE('',*,*,#714,.F.);
#957=ORIENTED_EDGE('',*,*,#716,.F.);
#958=ORIENTED_EDGE('',*,*,#717,.T.);
#959=ORIENTED_EDGE('',*,*,#718,.F.);
#960=ORIENTED_EDGE('',*,*,#717,.F.);
#961=ORIENTED_EDGE('',*,*,#719,.F.);
#962=ORIENTED_EDGE('',*,*,#720,.T.);
#963=ORIENTED_EDGE('',*,*,#721,.F.);
#964=ORIENTED_EDGE('',*,*,#720,.F.);
#965=ORIENTED_EDGE('',*,*,#722,.F.);
#966=ORIENTED_EDGE('',*,*,#712,.T.);
#967=ORIENTED_EDGE('',*,*,#723,.F.);
#968=ORIENTED_EDGE('',*,*,#724,.T.);
#969=ORIENTED_EDGE('',*,*,#725,.F.);
#970=ORIENTED_EDGE('',*,*,#726,.F.);
#971=ORIENTED_EDGE('',*,*,#727,.F.);
#972=ORIENTED_EDGE('',*,*,#728,.T.);
#973=ORIENTED_EDGE('',*,*,#729,.F.);
#974=ORIENTED_EDGE('',*,*,#724,.F.);
#975=ORIENTED_EDGE('',*,*,#730,.F.);
#976=ORIENTED_EDGE('',*,*,#731,.T.);
#977=ORIENTED_EDGE('',*,*,#732,.F.);
#978=ORIENTED_EDGE('',*,*,#728,.F.);
#979=ORIENTED_EDGE('',*,*,#733,.F.);
#980=ORIENTED_EDGE('',*,*,#726,.T.);
#981=ORIENTED_EDGE('',*,*,#734,.F.);
#982=ORIENTED_EDGE('',*,*,#731,.F.);
#983=ORIENTED_EDGE('',*,*,#735,.F.);
#984=ORIENTED_EDGE('',*,*,#736,.T.);
#985=ORIENTED_EDGE('',*,*,#737,.F.);
#986=ORIENTED_EDGE('',*,*,#738,.F.);
#987=ORIENTED_EDGE('',*,*,#739,.F.);
#988=ORIENTED_EDGE('',*,*,#740,.T.);
#989=ORIENTED_EDGE('',*,*,#741,.F.);
#990=ORIENTED_EDGE('',*,*,#736,.F.);
#991=ORIENTED_EDGE('',*,*,#742,.F.);
#992=ORIENTED_EDGE('',*,*,#743,.T.);
#993=ORIENTED_EDGE('',*,*,#744,.F.);
#994=ORIENTED_EDGE('',*,*,#740,.F.);
#995=ORIENTED_EDGE('',*,*,#745,.F.);
#996=ORIENTED_EDGE('',*,*,#746,.T.);
#997=ORIENTED_EDGE('',*,*,#747,.F.);
#998=ORIENTED_EDGE('',*,*,#743,.F.);
#999=ORIENTED_EDGE('',*,*,#748,.F.);
#1000=ORIENTED_EDGE('',*,*,#749,.T.);
#1001=ORIENTED_EDGE('',*,*,#750,.F.);
#1002=ORIENTED_EDGE('',*,*,#746,.F.);
#1003=ORIENTED_EDGE('',*,*,#751,.F.);
#1004=ORIENTED_EDGE('',*,*,#752,.F.);
#1005=ORIENTED_EDGE('',*,*,#753,.F.);
#1006=ORIENTED_EDGE('',*,*,#749,.F.);
#1007=ORIENTED_EDGE('',*,*,#754,.F.);
#1008=ORIENTED_EDGE('',*,*,#738,.T.);
#1009=ORIENTED_EDGE('',*,*,#755,.F.);
#1010=ORIENTED_EDGE('',*,*,#756,.F.);
#1011=ORIENTED_EDGE('',*,*,#757,.T.);
#1012=ORIENTED_EDGE('',*,*,#758,.T.);
#1013=ORIENTED_EDGE('',*,*,#759,.F.);
#1014=ORIENTED_EDGE('',*,*,#760,.F.);
#1015=ORIENTED_EDGE('',*,*,#761,.T.);
#1016=ORIENTED_EDGE('',*,*,#762,.T.);
#1017=ORIENTED_EDGE('',*,*,#763,.F.);
#1018=ORIENTED_EDGE('',*,*,#758,.F.);
#1019=ORIENTED_EDGE('',*,*,#668,.T.);
#1020=ORIENTED_EDGE('',*,*,#664,.T.);
#1021=ORIENTED_EDGE('',*,*,#667,.T.);
#1022=ORIENTED_EDGE('',*,*,#670,.T.);
#1023=ORIENTED_EDGE('',*,*,#764,.T.);
#1024=ORIENTED_EDGE('',*,*,#765,.T.);
#1025=ORIENTED_EDGE('',*,*,#766,.F.);
#1026=ORIENTED_EDGE('',*,*,#762,.F.);
#1027=ORIENTED_EDGE('',*,*,#756,.T.);
#1028=ORIENTED_EDGE('',*,*,#767,.T.);
#1029=ORIENTED_EDGE('',*,*,#760,.T.);
#1030=ORIENTED_EDGE('',*,*,#768,.F.);
#1031=ORIENTED_EDGE('',*,*,#769,.F.);
#1032=ORIENTED_EDGE('',*,*,#770,.T.);
#1033=ORIENTED_EDGE('',*,*,#752,.T.);
#1034=ORIENTED_EDGE('',*,*,#771,.F.);
#1035=ORIENTED_EDGE('',*,*,#707,.T.);
#1036=ORIENTED_EDGE('',*,*,#709,.T.);
#1037=ORIENTED_EDGE('',*,*,#710,.T.);
#1038=ORIENTED_EDGE('',*,*,#704,.T.);
#1039=ORIENTED_EDGE('',*,*,#772,.T.);
#1040=ORIENTED_EDGE('',*,*,#773,.T.);
#1041=ORIENTED_EDGE('',*,*,#774,.F.);
#1042=ORIENTED_EDGE('',*,*,#765,.F.);
#1043=ORIENTED_EDGE('',*,*,#689,.T.);
#1044=ORIENTED_EDGE('',*,*,#690,.T.);
#1045=ORIENTED_EDGE('',*,*,#684,.T.);
#1046=ORIENTED_EDGE('',*,*,#687,.T.);
#1047=ORIENTED_EDGE('',*,*,#775,.T.);
#1048=ORIENTED_EDGE('',*,*,#776,.T.);
#1049=ORIENTED_EDGE('',*,*,#777,.F.);
#1050=ORIENTED_EDGE('',*,*,#773,.F.);
#1051=ORIENTED_EDGE('',*,*,#778,.T.);
#1052=ORIENTED_EDGE('',*,*,#779,.T.);
#1053=ORIENTED_EDGE('',*,*,#780,.F.);
#1054=ORIENTED_EDGE('',*,*,#776,.F.);
#1055=ORIENTED_EDGE('',*,*,#648,.T.);
#1056=ORIENTED_EDGE('',*,*,#644,.T.);
#1057=ORIENTED_EDGE('',*,*,#647,.T.);
#1058=ORIENTED_EDGE('',*,*,#650,.T.);
#1059=ORIENTED_EDGE('',*,*,#718,.T.);
#1060=ORIENTED_EDGE('',*,*,#721,.T.);
#1061=ORIENTED_EDGE('',*,*,#711,.T.);
#1062=ORIENTED_EDGE('',*,*,#715,.T.);
#1063=ORIENTED_EDGE('',*,*,#781,.T.);
#1064=ORIENTED_EDGE('',*,*,#769,.T.);
#1065=ORIENTED_EDGE('',*,*,#782,.F.);
#1066=ORIENTED_EDGE('',*,*,#779,.F.);
#1067=ORIENTED_EDGE('',*,*,#783,.T.);
#1068=ORIENTED_EDGE('',*,*,#784,.T.);
#1069=ORIENTED_EDGE('',*,*,#785,.F.);
#1070=ORIENTED_EDGE('',*,*,#786,.F.);
#1071=ORIENTED_EDGE('',*,*,#787,.T.);
#1072=ORIENTED_EDGE('',*,*,#786,.T.);
#1073=ORIENTED_EDGE('',*,*,#788,.F.);
#1074=ORIENTED_EDGE('',*,*,#789,.F.);
#1075=ORIENTED_EDGE('',*,*,#790,.T.);
#1076=ORIENTED_EDGE('',*,*,#789,.T.);
#1077=ORIENTED_EDGE('',*,*,#791,.F.);
#1078=ORIENTED_EDGE('',*,*,#792,.F.);
#1079=ORIENTED_EDGE('',*,*,#793,.T.);
#1080=ORIENTED_EDGE('',*,*,#792,.T.);
#1081=ORIENTED_EDGE('',*,*,#794,.F.);
#1082=ORIENTED_EDGE('',*,*,#795,.F.);
#1083=ORIENTED_EDGE('',*,*,#796,.T.);
#1084=ORIENTED_EDGE('',*,*,#795,.T.);
#1085=ORIENTED_EDGE('',*,*,#797,.F.);
#1086=ORIENTED_EDGE('',*,*,#798,.F.);
#1087=ORIENTED_EDGE('',*,*,#799,.T.);
#1088=ORIENTED_EDGE('',*,*,#798,.T.);
#1089=ORIENTED_EDGE('',*,*,#800,.F.);
#1090=ORIENTED_EDGE('',*,*,#801,.F.);
#1091=ORIENTED_EDGE('',*,*,#719,.T.);
#1092=ORIENTED_EDGE('',*,*,#716,.T.);
#1093=ORIENTED_EDGE('',*,*,#713,.T.);
#1094=ORIENTED_EDGE('',*,*,#722,.T.);
#1095=ORIENTED_EDGE('',*,*,#802,.T.);
#1096=ORIENTED_EDGE('',*,*,#801,.T.);
#1097=ORIENTED_EDGE('',*,*,#803,.F.);
#1098=ORIENTED_EDGE('',*,*,#804,.F.);
#1099=ORIENTED_EDGE('',*,*,#805,.T.);
#1100=ORIENTED_EDGE('',*,*,#804,.T.);
#1101=ORIENTED_EDGE('',*,*,#806,.F.);
#1102=ORIENTED_EDGE('',*,*,#784,.F.);
#1103=ORIENTED_EDGE('',*,*,#806,.T.);
#1104=ORIENTED_EDGE('',*,*,#803,.T.);
#1105=ORIENTED_EDGE('',*,*,#800,.T.);
#1106=ORIENTED_EDGE('',*,*,#797,.T.);
#1107=ORIENTED_EDGE('',*,*,#794,.T.);
#1108=ORIENTED_EDGE('',*,*,#791,.T.);
#1109=ORIENTED_EDGE('',*,*,#788,.T.);
#1110=ORIENTED_EDGE('',*,*,#785,.T.);
#1111=ORIENTED_EDGE('',*,*,#768,.T.);
#1112=ORIENTED_EDGE('',*,*,#759,.T.);
#1113=ORIENTED_EDGE('',*,*,#763,.T.);
#1114=ORIENTED_EDGE('',*,*,#766,.T.);
#1115=ORIENTED_EDGE('',*,*,#774,.T.);
#1116=ORIENTED_EDGE('',*,*,#777,.T.);
#1117=ORIENTED_EDGE('',*,*,#780,.T.);
#1118=ORIENTED_EDGE('',*,*,#782,.T.);
#1119=ORIENTED_EDGE('',*,*,#735,.T.);
#1120=ORIENTED_EDGE('',*,*,#754,.T.);
#1121=ORIENTED_EDGE('',*,*,#771,.T.);
#1122=ORIENTED_EDGE('',*,*,#751,.T.);
#1123=ORIENTED_EDGE('',*,*,#748,.T.);
#1124=ORIENTED_EDGE('',*,*,#745,.T.);
#1125=ORIENTED_EDGE('',*,*,#742,.T.);
#1126=ORIENTED_EDGE('',*,*,#739,.T.);
#1127=ORIENTED_EDGE('',*,*,#725,.T.);
#1128=ORIENTED_EDGE('',*,*,#729,.T.);
#1129=ORIENTED_EDGE('',*,*,#732,.T.);
#1130=ORIENTED_EDGE('',*,*,#734,.T.);
#1131=ORIENTED_EDGE('',*,*,#781,.F.);
#1132=ORIENTED_EDGE('',*,*,#778,.F.);
#1133=ORIENTED_EDGE('',*,*,#775,.F.);
#1134=ORIENTED_EDGE('',*,*,#772,.F.);
#1135=ORIENTED_EDGE('',*,*,#764,.F.);
#1136=ORIENTED_EDGE('',*,*,#761,.F.);
#1137=ORIENTED_EDGE('',*,*,#757,.F.);
#1138=ORIENTED_EDGE('',*,*,#767,.F.);
#1139=ORIENTED_EDGE('',*,*,#755,.T.);
#1140=ORIENTED_EDGE('',*,*,#737,.T.);
#1141=ORIENTED_EDGE('',*,*,#741,.T.);
#1142=ORIENTED_EDGE('',*,*,#744,.T.);
#1143=ORIENTED_EDGE('',*,*,#747,.T.);
#1144=ORIENTED_EDGE('',*,*,#750,.T.);
#1145=ORIENTED_EDGE('',*,*,#753,.T.);
#1146=ORIENTED_EDGE('',*,*,#770,.F.);
#1147=ORIENTED_EDGE('',*,*,#805,.F.);
#1148=ORIENTED_EDGE('',*,*,#783,.F.);
#1149=ORIENTED_EDGE('',*,*,#787,.F.);
#1150=ORIENTED_EDGE('',*,*,#790,.F.);
#1151=ORIENTED_EDGE('',*,*,#793,.F.);
#1152=ORIENTED_EDGE('',*,*,#796,.F.);
#1153=ORIENTED_EDGE('',*,*,#799,.F.);
#1154=ORIENTED_EDGE('',*,*,#802,.F.);
#1155=ORIENTED_EDGE('',*,*,#723,.T.);
#1156=ORIENTED_EDGE('',*,*,#733,.T.);
#1157=ORIENTED_EDGE('',*,*,#730,.T.);
#1158=ORIENTED_EDGE('',*,*,#727,.T.);
#1159=PLANE('',#1307);
#1160=PLANE('',#1308);
#1161=PLANE('',#1309);
#1162=PLANE('',#1310);
#1163=PLANE('',#1311);
#1164=PLANE('',#1312);
#1165=PLANE('',#1313);
#1166=PLANE('',#1314);
#1167=PLANE('',#1315);
#1168=PLANE('',#1316);
#1169=PLANE('',#1317);
#1170=PLANE('',#1318);
#1171=PLANE('',#1319);
#1172=PLANE('',#1320);
#1173=PLANE('',#1321);
#1174=PLANE('',#1322);
#1175=PLANE('',#1323);
#1176=PLANE('',#1324);
#1177=PLANE('',#1325);
#1178=PLANE('',#1326);
#1179=PLANE('',#1327);
#1180=PLANE('',#1328);
#1181=PLANE('',#1329);
#1182=PLANE('',#1330);
#1183=PLANE('',#1331);
#1184=PLANE('',#1332);
#1185=PLANE('',#1333);
#1186=PLANE('',#1334);
#1187=PLANE('',#1335);
#1188=PLANE('',#1336);
#1189=PLANE('',#1337);
#1190=PLANE('',#1338);
#1191=PLANE('',#1339);
#1192=PLANE('',#1340);
#1193=PLANE('',#1341);
#1194=PLANE('',#1342);
#1195=PLANE('',#1343);
#1196=PLANE('',#1344);
#1197=PLANE('',#1345);
#1198=PLANE('',#1346);
#1199=PLANE('',#1347);
#1200=PLANE('',#1348);
#1201=PLANE('',#1349);
#1202=PLANE('',#1350);
#1203=PLANE('',#1351);
#1204=PLANE('',#1352);
#1205=PLANE('',#1353);
#1206=PLANE('',#1354);
#1207=PLANE('',#1355);
#1208=PLANE('',#1356);
#1209=PLANE('',#1357);
#1210=PLANE('',#1361);
#1211=PLANE('',#1365);
#1212=PLANE('',#1366);
#1213=PLANE('',#1370);
#1214=PLANE('',#1377);
#1215=PLANE('',#1381);
#1216=PLANE('',#1385);
#1217=PLANE('',#1389);
#1218=PLANE('',#1390);
#1219=PLANE('',#1391);
#1220=PLANE('',#1392);
#1221=PLANE('',#1393);
#1222=ADVANCED_FACE('',(#48),#1159,.T.);
#1223=ADVANCED_FACE('',(#49),#1160,.T.);
#1224=ADVANCED_FACE('',(#50),#1161,.T.);
#1225=ADVANCED_FACE('',(#51),#1162,.T.);
#1226=ADVANCED_FACE('',(#52),#1163,.T.);
#1227=ADVANCED_FACE('',(#53),#1164,.T.);
#1228=ADVANCED_FACE('',(#54),#1165,.T.);
#1229=ADVANCED_FACE('',(#55),#1166,.T.);
#1230=ADVANCED_FACE('',(#56),#1167,.T.);
#1231=ADVANCED_FACE('',(#57),#1168,.T.);
#1232=ADVANCED_FACE('',(#58),#1169,.T.);
#1233=ADVANCED_FACE('',(#59),#1170,.T.);
#1234=ADVANCED_FACE('',(#60),#1171,.T.);
#1235=ADVANCED_FACE('',(#61),#1172,.T.);
#1236=ADVANCED_FACE('',(#62),#1173,.T.);
#1237=ADVANCED_FACE('',(#63),#1174,.T.);
#1238=ADVANCED_FACE('',(#64),#1175,.T.);
#1239=ADVANCED_FACE('',(#65),#1176,.T.);
#1240=ADVANCED_FACE('',(#66),#1177,.T.);
#1241=ADVANCED_FACE('',(#67),#1178,.T.);
#1242=ADVANCED_FACE('',(#68),#1179,.T.);
#1243=ADVANCED_FACE('',(#69),#1180,.T.);
#1244=ADVANCED_FACE('',(#70),#1181,.T.);
#1245=ADVANCED_FACE('',(#71),#1182,.T.);
#1246=ADVANCED_FACE('',(#72),#1183,.T.);
#1247=ADVANCED_FACE('',(#73),#1184,.T.);
#1248=ADVANCED_FACE('',(#74),#1185,.T.);
#1249=ADVANCED_FACE('',(#75),#1186,.T.);
#1250=ADVANCED_FACE('',(#76),#1187,.T.);
#1251=ADVANCED_FACE('',(#77),#1188,.T.);
#1252=ADVANCED_FACE('',(#78),#1189,.T.);
#1253=ADVANCED_FACE('',(#79),#1190,.T.);
#1254=ADVANCED_FACE('',(#80),#1191,.T.);
#1255=ADVANCED_FACE('',(#81),#1192,.T.);
#1256=ADVANCED_FACE('',(#82),#1193,.T.);
#1257=ADVANCED_FACE('',(#83),#1194,.T.);
#1258=ADVANCED_FACE('',(#84),#1195,.F.);
#1259=ADVANCED_FACE('',(#85),#1196,.F.);
#1260=ADVANCED_FACE('',(#86),#1197,.F.);
#1261=ADVANCED_FACE('',(#87),#1198,.F.);
#1262=ADVANCED_FACE('',(#88),#1199,.F.);
#1263=ADVANCED_FACE('',(#89),#1200,.F.);
#1264=ADVANCED_FACE('',(#90),#1201,.F.);
#1265=ADVANCED_FACE('',(#91),#1202,.F.);
#1266=ADVANCED_FACE('',(#92),#1203,.T.);
#1267=ADVANCED_FACE('',(#93),#1204,.T.);
#1268=ADVANCED_FACE('',(#94),#1205,.T.);
#1269=ADVANCED_FACE('',(#95),#1206,.T.);
#1270=ADVANCED_FACE('',(#96),#1207,.T.);
#1271=ADVANCED_FACE('',(#97),#1208,.T.);
#1272=ADVANCED_FACE('',(#98),#1209,.T.);
#1273=ADVANCED_FACE('',(#99),#40,.F.);
#1274=ADVANCED_FACE('',(#100,#15),#1210,.T.);
#1275=ADVANCED_FACE('',(#101),#41,.F.);
#1276=ADVANCED_FACE('',(#102,#16),#1211,.T.);
#1277=ADVANCED_FACE('',(#103,#17),#1212,.T.);
#1278=ADVANCED_FACE('',(#104),#42,.F.);
#1279=ADVANCED_FACE('',(#105,#18,#19),#1213,.T.);
#1280=ADVANCED_FACE('',(#106),#43,.F.);
#1281=ADVANCED_FACE('',(#107),#44,.T.);
#1282=ADVANCED_FACE('',(#108),#1214,.T.);
#1283=ADVANCED_FACE('',(#109),#45,.T.);
#1284=ADVANCED_FACE('',(#110),#1215,.T.);
#1285=ADVANCED_FACE('',(#111),#46,.T.);
#1286=ADVANCED_FACE('',(#112,#20),#1216,.T.);
#1287=ADVANCED_FACE('',(#113),#47,.T.);
#1288=ADVANCED_FACE('',(#114),#1217,.T.);
#1289=ADVANCED_FACE('',(#115,#21),#1218,.T.);
#1290=ADVANCED_FACE('',(#116,#22),#1219,.T.);
#1291=ADVANCED_FACE('',(#117),#1220,.T.);
#1292=ADVANCED_FACE('',(#118,#23),#1221,.F.);
#1293=CLOSED_SHELL('',(#1222,#1223,#1224,#1225,#1226,#1227,#1228,#1229,
#1230,#1231,#1232,#1233,#1234,#1235,#1236,#1237,#1238,#1239,#1240,#1241,
#1242,#1243,#1244,#1245,#1246,#1247,#1248,#1249,#1250,#1251,#1252,#1253,
#1254,#1255,#1256,#1257,#1258,#1259,#1260,#1261,#1262,#1263,#1264,#1265,
#1266,#1267,#1268,#1269,#1270,#1271,#1272,#1273,#1274,#1275,#1276,#1277,
#1278,#1279,#1280,#1281,#1282,#1283,#1284,#1285,#1286,#1287,#1288,#1289,
#1290,#1291,#1292));
#1294=DERIVED_UNIT_ELEMENT(#1296,1.);
#1295=DERIVED_UNIT_ELEMENT(#2095,-3.);
#1296=(
MASS_UNIT()
NAMED_UNIT(*)
SI_UNIT(.KILO.,.GRAM.)
);
#1297=DERIVED_UNIT((#1294,#1295));
#1298=MEASURE_REPRESENTATION_ITEM('density measure',
POSITIVE_RATIO_MEASURE(7850.),#1297);
#1299=PROPERTY_DEFINITION_REPRESENTATION(#1304,#1301);
#1300=PROPERTY_DEFINITION_REPRESENTATION(#1305,#1302);
#1301=REPRESENTATION('material name',(#1303),#2092);
#1302=REPRESENTATION('density',(#1298),#2092);
#1303=DESCRIPTIVE_REPRESENTATION_ITEM('Steel','Steel');
#1304=PROPERTY_DEFINITION('material property','material name',#2102);
#1305=PROPERTY_DEFINITION('material property','density of part',#2102);
#1306=AXIS2_PLACEMENT_3D('',#1730,#1394,#1395);
#1307=AXIS2_PLACEMENT_3D('',#1731,#1396,#1397);
#1308=AXIS2_PLACEMENT_3D('',#1740,#1402,#1403);
#1309=AXIS2_PLACEMENT_3D('',#1746,#1407,#1408);
#1310=AXIS2_PLACEMENT_3D('',#1752,#1412,#1413);
#1311=AXIS2_PLACEMENT_3D('',#1755,#1416,#1417);
#1312=AXIS2_PLACEMENT_3D('',#1761,#1421,#1422);
#1313=AXIS2_PLACEMENT_3D('',#1765,#1425,#1426);
#1314=AXIS2_PLACEMENT_3D('',#1766,#1427,#1428);
#1315=AXIS2_PLACEMENT_3D('',#1770,#1431,#1432);
#1316=AXIS2_PLACEMENT_3D('',#1772,#1434,#1435);
#1317=AXIS2_PLACEMENT_3D('',#1781,#1440,#1441);
#1318=AXIS2_PLACEMENT_3D('',#1787,#1445,#1446);
#1319=AXIS2_PLACEMENT_3D('',#1793,#1450,#1451);
#1320=AXIS2_PLACEMENT_3D('',#1796,#1454,#1455);
#1321=AXIS2_PLACEMENT_3D('',#1802,#1459,#1460);
#1322=AXIS2_PLACEMENT_3D('',#1806,#1463,#1464);
#1323=AXIS2_PLACEMENT_3D('',#1807,#1465,#1466);
#1324=AXIS2_PLACEMENT_3D('',#1811,#1469,#1470);
#1325=AXIS2_PLACEMENT_3D('',#1813,#1472,#1473);
#1326=AXIS2_PLACEMENT_3D('',#1822,#1478,#1479);
#1327=AXIS2_PLACEMENT_3D('',#1828,#1483,#1484);
#1328=AXIS2_PLACEMENT_3D('',#1834,#1488,#1489);
#1329=AXIS2_PLACEMENT_3D('',#1837,#1492,#1493);
#1330=AXIS2_PLACEMENT_3D('',#1843,#1497,#1498);
#1331=AXIS2_PLACEMENT_3D('',#1847,#1501,#1502);
#1332=AXIS2_PLACEMENT_3D('',#1848,#1503,#1504);
#1333=AXIS2_PLACEMENT_3D('',#1852,#1507,#1508);
#1334=AXIS2_PLACEMENT_3D('',#1854,#1510,#1511);
#1335=AXIS2_PLACEMENT_3D('',#1863,#1516,#1517);
#1336=AXIS2_PLACEMENT_3D('',#1869,#1521,#1522);
#1337=AXIS2_PLACEMENT_3D('',#1875,#1526,#1527);
#1338=AXIS2_PLACEMENT_3D('',#1878,#1530,#1531);
#1339=AXIS2_PLACEMENT_3D('',#1884,#1535,#1536);
#1340=AXIS2_PLACEMENT_3D('',#1888,#1539,#1540);
#1341=AXIS2_PLACEMENT_3D('',#1889,#1541,#1542);
#1342=AXIS2_PLACEMENT_3D('',#1893,#1545,#1546);
#1343=AXIS2_PLACEMENT_3D('',#1895,#1548,#1549);
#1344=AXIS2_PLACEMENT_3D('',#1904,#1554,#1555);
#1345=AXIS2_PLACEMENT_3D('',#1910,#1559,#1560);
#1346=AXIS2_PLACEMENT_3D('',#1916,#1564,#1565);
#1347=AXIS2_PLACEMENT_3D('',#1919,#1568,#1569);
#1348=AXIS2_PLACEMENT_3D('',#1928,#1574,#1575);
#1349=AXIS2_PLACEMENT_3D('',#1934,#1579,#1580);
#1350=AXIS2_PLACEMENT_3D('',#1940,#1584,#1585);
#1351=AXIS2_PLACEMENT_3D('',#1943,#1588,#1589);
#1352=AXIS2_PLACEMENT_3D('',#1952,#1594,#1595);
#1353=AXIS2_PLACEMENT_3D('',#1958,#1599,#1600);
#1354=AXIS2_PLACEMENT_3D('',#1964,#1604,#1605);
#1355=AXIS2_PLACEMENT_3D('',#1970,#1609,#1610);
#1356=AXIS2_PLACEMENT_3D('',#1976,#1614,#1615);
#1357=AXIS2_PLACEMENT_3D('',#1982,#1619,#1620);
#1358=AXIS2_PLACEMENT_3D('',#1988,#1624,#1625);
#1359=AXIS2_PLACEMENT_3D('',#1991,#1626,#1627);
#1360=AXIS2_PLACEMENT_3D('',#1995,#1629,#1630);
#1361=AXIS2_PLACEMENT_3D('',#1997,#1632,#1633);
#1362=AXIS2_PLACEMENT_3D('',#2003,#1637,#1638);
#1363=AXIS2_PLACEMENT_3D('',#2005,#1639,#1640);
#1364=AXIS2_PLACEMENT_3D('',#2008,#1642,#1643);
#1365=AXIS2_PLACEMENT_3D('',#2009,#1644,#1645);
#1366=AXIS2_PLACEMENT_3D('',#2017,#1651,#1652);
#1367=AXIS2_PLACEMENT_3D('',#2023,#1656,#1657);
#1368=AXIS2_PLACEMENT_3D('',#2025,#1658,#1659);
#1369=AXIS2_PLACEMENT_3D('',#2028,#1661,#1662);
#1370=AXIS2_PLACEMENT_3D('',#2029,#1663,#1664);
#1371=AXIS2_PLACEMENT_3D('',#2035,#1668,#1669);
#1372=AXIS2_PLACEMENT_3D('',#2036,#1670,#1671);
#1373=AXIS2_PLACEMENT_3D('',#2037,#1672,#1673);
#1374=AXIS2_PLACEMENT_3D('',#2038,#1674,#1675);
#1375=AXIS2_PLACEMENT_3D('',#2041,#1676,#1677);
#1376=AXIS2_PLACEMENT_3D('',#2045,#1679,#1680);
#1377=AXIS2_PLACEMENT_3D('',#2047,#1682,#1683);
#1378=AXIS2_PLACEMENT_3D('',#2053,#1687,#1688);
#1379=AXIS2_PLACEMENT_3D('',#2055,#1689,#1690);
#1380=AXIS2_PLACEMENT_3D('',#2057,#1691,#1692);
#1381=AXIS2_PLACEMENT_3D('',#2059,#1694,#1695);
#1382=AXIS2_PLACEMENT_3D('',#2065,#1699,#1700);
#1383=AXIS2_PLACEMENT_3D('',#2067,#1701,#1702);
#1384=AXIS2_PLACEMENT_3D('',#2069,#1703,#1704);
#1385=AXIS2_PLACEMENT_3D('',#2071,#1706,#1707);
#1386=AXIS2_PLACEMENT_3D('',#2077,#1711,#1712);
#1387=AXIS2_PLACEMENT_3D('',#2079,#1713,#1714);
#1388=AXIS2_PLACEMENT_3D('',#2081,#1715,#1716);
#1389=AXIS2_PLACEMENT_3D('',#2083,#1718,#1719);
#1390=AXIS2_PLACEMENT_3D('',#2086,#1722,#1723);
#1391=AXIS2_PLACEMENT_3D('',#2087,#1724,#1725);
#1392=AXIS2_PLACEMENT_3D('',#2088,#1726,#1727);
#1393=AXIS2_PLACEMENT_3D('',#2089,#1728,#1729);
#1394=DIRECTION('axis',(0.,0.,1.));
#1395=DIRECTION('refdir',(1.,0.,0.));
#1396=DIRECTION('center_axis',(0.,0.316227766016839,-0.948683298050514));
#1397=DIRECTION('ref_axis',(-1.,0.,0.));
#1398=DIRECTION('',(1.,0.,0.));
#1399=DIRECTION('',(0.301511344577763,-0.904534033733291,-0.301511344577764));
#1400=DIRECTION('',(-1.,0.,0.));
#1401=DIRECTION('',(-0.301511344577763,-0.904534033733291,-0.301511344577764));
#1402=DIRECTION('center_axis',(0.948683298050514,0.316227766016837,1.35727248165268E-31));
#1403=DIRECTION('ref_axis',(1.43069081583052E-31,0.,-1.));
#1404=DIRECTION('',(-1.43069081583052E-31,0.,1.));
#1405=DIRECTION('',(0.301511344577763,-0.904534033733291,0.301511344577764));
#1406=DIRECTION('',(1.43069081583052E-31,0.,-1.));
#1407=DIRECTION('center_axis',(0.,0.316227766016838,0.948683298050514));
#1408=DIRECTION('ref_axis',(1.,0.,0.));
#1409=DIRECTION('',(-1.,0.,0.));
#1410=DIRECTION('',(-0.301511344577763,-0.904534033733291,0.301511344577764));
#1411=DIRECTION('',(1.,0.,0.));
#1412=DIRECTION('center_axis',(-0.948683298050514,0.316227766016837,0.));
#1413=DIRECTION('ref_axis',(0.,0.,1.));
#1414=DIRECTION('',(0.,0.,1.));
#1415=DIRECTION('',(0.,0.,-1.));
#1416=DIRECTION('center_axis',(-1.,0.,0.));
#1417=DIRECTION('ref_axis',(0.,0.,1.));
#1418=DIRECTION('',(0.,1.,0.));
#1419=DIRECTION('',(0.,0.,-1.));
#1420=DIRECTION('',(0.,1.,0.));
#1421=DIRECTION('center_axis',(0.,0.,-1.));
#1422=DIRECTION('ref_axis',(-1.,1.78428700386186E-17,0.));
#1423=DIRECTION('',(0.,1.,0.));
#1424=DIRECTION('',(1.,-1.28865172501134E-16,0.));
#1425=DIRECTION('center_axis',(0.,1.,0.));
#1426=DIRECTION('ref_axis',(0.,0.,1.));
#1427=DIRECTION('center_axis',(0.,0.,1.));
#1428=DIRECTION('ref_axis',(1.,-1.28865172501134E-16,0.));
#1429=DIRECTION('',(-1.,1.28865172501134E-16,0.));
#1430=DIRECTION('',(0.,1.,0.));
#1431=DIRECTION('center_axis',(1.,0.,1.43069081583052E-31));
#1432=DIRECTION('ref_axis',(1.43069081583052E-31,1.11022302462516E-15,-1.));
#1433=DIRECTION('',(-1.43069081583052E-31,1.84366218777788E-47,1.));
#1434=DIRECTION('center_axis',(0.,-0.316227766016841,-0.948683298050513));
#1435=DIRECTION('ref_axis',(-1.,0.,0.));
#1436=DIRECTION('',(-1.,0.,0.));
#1437=DIRECTION('',(-0.301511344577765,0.90453403373329,-0.301511344577766));
#1438=DIRECTION('',(1.,0.,0.));
#1439=DIRECTION('',(0.301511344577765,0.90453403373329,-0.301511344577766));
#1440=DIRECTION('center_axis',(-0.948683298050513,-0.31622776601684,0.));
#1441=DIRECTION('ref_axis',(0.,0.,1.));
#1442=DIRECTION('',(0.,0.,1.));
#1443=DIRECTION('',(-0.301511344577765,0.90453403373329,0.301511344577766));
#1444=DIRECTION('',(0.,0.,-1.));
#1445=DIRECTION('center_axis',(0.,-0.316227766016841,0.948683298050513));
#1446=DIRECTION('ref_axis',(1.,0.,0.));
#1447=DIRECTION('',(1.,0.,0.));
#1448=DIRECTION('',(0.301511344577765,0.90453403373329,0.301511344577766));
#1449=DIRECTION('',(-1.,0.,0.));
#1450=DIRECTION('center_axis',(0.948683298050513,-0.31622776601684,0.));
#1451=DIRECTION('ref_axis',(0.,0.,-1.));
#1452=DIRECTION('',(0.,0.,1.));
#1453=DIRECTION('',(0.,0.,-1.));
#1454=DIRECTION('center_axis',(1.,0.,0.));
#1455=DIRECTION('ref_axis',(0.,0.,1.));
#1456=DIRECTION('',(0.,-1.,0.));
#1457=DIRECTION('',(0.,0.,-1.));
#1458=DIRECTION('',(0.,-1.,0.));
#1459=DIRECTION('center_axis',(0.,0.,-1.));
#1460=DIRECTION('ref_axis',(1.,6.34413156928661E-16,0.));
#1461=DIRECTION('',(0.,-1.,0.));
#1462=DIRECTION('',(-1.,-6.34413156928661E-16,0.));
#1463=DIRECTION('center_axis',(0.,-1.,0.));
#1464=DIRECTION('ref_axis',(0.,0.,-1.));
#1465=DIRECTION('center_axis',(0.,0.,1.));
#1466=DIRECTION('ref_axis',(-1.,-6.34413156928661E-16,0.));
#1467=DIRECTION('',(1.,6.34413156928661E-16,0.));
#1468=DIRECTION('',(0.,-1.,0.));
#1469=DIRECTION('center_axis',(-1.,0.,0.));
#1470=DIRECTION('ref_axis',(0.,0.,-1.));
#1471=DIRECTION('',(0.,0.,1.));
#1472=DIRECTION('center_axis',(-0.316227766016838,0.,-0.948683298050514));
#1473=DIRECTION('ref_axis',(-0.948683298050514,0.,0.316227766016838));
#1474=DIRECTION('',(0.,1.,0.));
#1475=DIRECTION('',(0.90453403373329,0.301511344577767,-0.301511344577763));
#1476=DIRECTION('',(0.,-1.,0.));
#1477=DIRECTION('',(0.90453403373329,-0.301511344577767,-0.301511344577763));
#1478=DIRECTION('center_axis',(-0.316227766016841,0.948683298050513,0.));
#1479=DIRECTION('ref_axis',(0.,0.,1.));
#1480=DIRECTION('',(0.,0.,1.));
#1481=DIRECTION('',(0.90453403373329,0.301511344577767,0.301511344577763));
#1482=DIRECTION('',(0.,0.,-1.));
#1483=DIRECTION('center_axis',(-0.316227766016838,0.,0.948683298050514));
#1484=DIRECTION('ref_axis',(0.948683298050514,0.,0.316227766016838));
#1485=DIRECTION('',(0.,-1.,0.));
#1486=DIRECTION('',(0.90453403373329,-0.301511344577767,0.301511344577763));
#1487=DIRECTION('',(0.,1.,0.));
#1488=DIRECTION('center_axis',(-0.316227766016841,-0.948683298050513,0.));
#1489=DIRECTION('ref_axis',(0.,0.,-1.));
#1490=DIRECTION('',(0.,0.,1.));
#1491=DIRECTION('',(0.,0.,-1.));
#1492=DIRECTION('center_axis',(0.,-1.,0.));
#1493=DIRECTION('ref_axis',(0.,0.,1.));
#1494=DIRECTION('',(-1.,0.,0.));
#1495=DIRECTION('',(0.,0.,-1.));
#1496=DIRECTION('',(-1.,0.,0.));
#1497=DIRECTION('center_axis',(0.,0.,-1.));
#1498=DIRECTION('ref_axis',(0.,-1.,0.));
#1499=DIRECTION('',(-1.,0.,0.));
#1500=DIRECTION('',(0.,1.,0.));
#1501=DIRECTION('center_axis',(-1.,0.,0.));
#1502=DIRECTION('ref_axis',(0.,0.,1.));
#1503=DIRECTION('center_axis',(0.,1.,0.));
#1504=DIRECTION('ref_axis',(0.,0.,-1.));
#1505=DIRECTION('',(-1.,0.,0.));
#1506=DIRECTION('',(0.,0.,1.));
#1507=DIRECTION('center_axis',(0.,0.,1.));
#1508=DIRECTION('ref_axis',(0.,1.,0.));
#1509=DIRECTION('',(0.,-1.,0.));
#1510=DIRECTION('center_axis',(0.316227766016838,0.,-0.948683298050514));
#1511=DIRECTION('ref_axis',(-0.948683298050514,0.,-0.316227766016838));
#1512=DIRECTION('',(0.,-1.,0.));
#1513=DIRECTION('',(-0.90453403373329,-0.301511344577767,-0.301511344577763));
#1514=DIRECTION('',(0.,1.,0.));
#1515=DIRECTION('',(-0.90453403373329,0.301511344577767,-0.301511344577763));
#1516=DIRECTION('center_axis',(0.316227766016842,-0.948683298050513,0.));
#1517=DIRECTION('ref_axis',(0.,0.,-1.));
#1518=DIRECTION('',(0.,0.,1.));
#1519=DIRECTION('',(-0.90453403373329,-0.301511344577767,0.301511344577763));
#1520=DIRECTION('',(0.,0.,-1.));
#1521=DIRECTION('center_axis',(0.316227766016838,0.,0.948683298050514));
#1522=DIRECTION('ref_axis',(0.948683298050514,0.,-0.316227766016838));
#1523=DIRECTION('',(0.,1.,0.));
#1524=DIRECTION('',(-0.90453403373329,0.301511344577767,0.301511344577763));
#1525=DIRECTION('',(0.,-1.,0.));
#1526=DIRECTION('center_axis',(0.316227766016842,0.948683298050513,0.));
#1527=DIRECTION('ref_axis',(0.,0.,1.));
#1528=DIRECTION('',(0.,0.,1.));
#1529=DIRECTION('',(0.,0.,-1.));
#1530=DIRECTION('center_axis',(0.,1.,0.));
#1531=DIRECTION('ref_axis',(0.,0.,1.));
#1532=DIRECTION('',(1.,0.,0.));
#1533=DIRECTION('',(0.,0.,-1.));
#1534=DIRECTION('',(1.,0.,0.));
#1535=DIRECTION('center_axis',(0.,0.,-1.));
#1536=DIRECTION('ref_axis',(0.,1.,0.));
#1537=DIRECTION('',(1.,0.,0.));
#1538=DIRECTION('',(0.,-1.,0.));
#1539=DIRECTION('center_axis',(1.,0.,0.));
#1540=DIRECTION('ref_axis',(0.,0.,-1.));
#1541=DIRECTION('center_axis',(0.,-1.,0.));
#1542=DIRECTION('ref_axis',(0.,0.,-1.));
#1543=DIRECTION('',(1.,0.,0.));
#1544=DIRECTION('',(0.,0.,1.));
#1545=DIRECTION('center_axis',(0.,0.,1.));
#1546=DIRECTION('ref_axis',(0.,-1.,0.));
#1547=DIRECTION('',(0.,1.,0.));
#1548=DIRECTION('center_axis',(1.,0.,0.));
#1549=DIRECTION('ref_axis',(0.,0.,-1.));
#1550=DIRECTION('',(0.,0.,1.));
#1551=DIRECTION('',(0.,1.,0.));
#1552=DIRECTION('',(0.,0.,-1.));
#1553=DIRECTION('',(0.,1.,0.));
#1554=DIRECTION('center_axis',(0.,0.,1.));
#1555=DIRECTION('ref_axis',(1.,0.,0.));
#1556=DIRECTION('',(-1.,1.28865172501134E-16,0.));
#1557=DIRECTION('',(1.,-1.33821525289639E-16,0.));
#1558=DIRECTION('',(0.,1.,0.));
#1559=DIRECTION('center_axis',(-1.,0.,0.));
#1560=DIRECTION('ref_axis',(0.,0.,1.));
#1561=DIRECTION('',(0.,0.,-1.));
#1562=DIRECTION('',(0.,0.,1.));
#1563=DIRECTION('',(0.,1.,0.));
#1564=DIRECTION('center_axis',(0.,0.,-1.));
#1565=DIRECTION('ref_axis',(-1.,0.,0.));
#1566=DIRECTION('',(1.,-1.28865172501134E-16,0.));
#1567=DIRECTION('',(-1.,1.33821525289639E-16,0.));
#1568=DIRECTION('center_axis',(1.,0.,0.));
#1569=DIRECTION('ref_axis',(0.,1.,0.));
#1570=DIRECTION('',(0.,1.,0.));
#1571=DIRECTION('',(0.,0.,1.));
#1572=DIRECTION('',(0.,-1.,0.));
#1573=DIRECTION('',(0.,0.,1.));
#1574=DIRECTION('center_axis',(0.,-1.,0.));
#1575=DIRECTION('ref_axis',(1.,0.,0.));
#1576=DIRECTION('',(1.,0.,0.));
#1577=DIRECTION('',(0.,0.,1.));
#1578=DIRECTION('',(-1.,0.,0.));
#1579=DIRECTION('center_axis',(-1.,0.,0.));
#1580=DIRECTION('ref_axis',(0.,-1.,0.));
#1581=DIRECTION('',(0.,-1.,0.));
#1582=DIRECTION('',(0.,0.,1.));
#1583=DIRECTION('',(0.,1.,0.));
#1584=DIRECTION('center_axis',(0.,1.,0.));
#1585=DIRECTION('ref_axis',(-1.,0.,0.));
#1586=DIRECTION('',(-1.,0.,0.));
#1587=DIRECTION('',(1.,0.,0.));
#1588=DIRECTION('center_axis',(1.,0.,0.));
#1589=DIRECTION('ref_axis',(0.,1.,0.));
#1590=DIRECTION('',(0.,-1.,0.));
#1591=DIRECTION('',(0.,0.,1.));
#1592=DIRECTION('',(0.,1.,0.));
#1593=DIRECTION('',(0.,0.,1.));
#1594=DIRECTION('center_axis',(0.,-1.,0.));
#1595=DIRECTION('ref_axis',(1.,0.,0.));
#1596=DIRECTION('',(-1.,0.,0.));
#1597=DIRECTION('',(0.,0.,1.));
#1598=DIRECTION('',(1.,0.,0.));
#1599=DIRECTION('center_axis',(-1.,0.,0.));
#1600=DIRECTION('ref_axis',(0.,-1.,0.));
#1601=DIRECTION('',(0.,1.,0.));
#1602=DIRECTION('',(0.,0.,1.));
#1603=DIRECTION('',(0.,-1.,0.));
#1604=DIRECTION('center_axis',(0.,1.,0.));
#1605=DIRECTION('ref_axis',(-1.,0.,0.));
#1606=DIRECTION('',(1.,0.,0.));
#1607=DIRECTION('',(0.,0.,1.));
#1608=DIRECTION('',(-1.,0.,0.));
#1609=DIRECTION('center_axis',(1.,0.,0.));
#1610=DIRECTION('ref_axis',(0.,1.,0.));
#1611=DIRECTION('',(0.,-1.,0.));
#1612=DIRECTION('',(0.,0.,1.));
#1613=DIRECTION('',(0.,1.,0.));
#1614=DIRECTION('center_axis',(0.,1.,0.));
#1615=DIRECTION('ref_axis',(-1.,0.,0.));
#1616=DIRECTION('',(1.,0.,0.));
#1617=DIRECTION('',(0.,0.,-1.));
#1618=DIRECTION('',(-1.,0.,0.));
#1619=DIRECTION('center_axis',(0.,-1.,0.));
#1620=DIRECTION('ref_axis',(1.,0.,0.));
#1621=DIRECTION('',(-1.,0.,0.));
#1622=DIRECTION('',(1.,0.,0.));
#1623=DIRECTION('',(0.,0.,1.));
#1624=DIRECTION('center_axis',(0.,0.,1.));
#1625=DIRECTION('ref_axis',(-2.22044604925031E-15,1.,0.));
#1626=DIRECTION('center_axis',(0.,0.,-1.));
#1627=DIRECTION('ref_axis',(-2.22044604925031E-15,1.,0.));
#1628=DIRECTION('',(0.,0.,1.));
#1629=DIRECTION('center_axis',(0.,0.,-1.));
#1630=DIRECTION('ref_axis',(-2.22044604925031E-15,1.,0.));
#1631=DIRECTION('',(0.,0.,1.));
#1632=DIRECTION('center_axis',(6.34413156928661E-16,-1.,0.));
#1633=DIRECTION('ref_axis',(1.,6.34413156928661E-16,0.));
#1634=DIRECTION('',(1.,6.34413156928661E-16,0.));
#1635=DIRECTION('',(0.,0.,1.));
#1636=DIRECTION('',(1.,6.34413156928661E-16,0.));
#1637=DIRECTION('center_axis',(0.,0.,1.));
#1638=DIRECTION('ref_axis',(1.,0.,0.));
#1639=DIRECTION('center_axis',(0.,0.,-1.));
#1640=DIRECTION('ref_axis',(1.,0.,0.));
#1641=DIRECTION('',(0.,0.,1.));
#1642=DIRECTION('center_axis',(0.,0.,-1.));
#1643=DIRECTION('ref_axis',(1.,0.,0.));
#1644=DIRECTION('center_axis',(1.,0.,0.));
#1645=DIRECTION('ref_axis',(0.,1.,0.));
#1646=DIRECTION('',(0.,1.,0.));
#1647=DIRECTION('',(0.,1.,0.));
#1648=DIRECTION('',(0.,0.,1.));
#1649=DIRECTION('',(0.,1.,0.));
#1650=DIRECTION('',(0.,-1.,0.));
#1651=DIRECTION('center_axis',(-1.,0.,0.));
#1652=DIRECTION('ref_axis',(0.,-1.,0.));
#1653=DIRECTION('',(0.,-1.,0.));
#1654=DIRECTION('',(0.,0.,1.));
#1655=DIRECTION('',(0.,-1.,0.));
#1656=DIRECTION('center_axis',(0.,0.,1.));
#1657=DIRECTION('ref_axis',(3.55271367880049E-15,-1.,0.));
#1658=DIRECTION('center_axis',(0.,0.,-1.));
#1659=DIRECTION('ref_axis',(3.55271367880049E-15,-1.,0.));
#1660=DIRECTION('',(0.,0.,1.));
#1661=DIRECTION('center_axis',(0.,0.,-1.));
#1662=DIRECTION('ref_axis',(3.55271367880049E-15,-1.,0.));
#1663=DIRECTION('center_axis',(1.28865172501134E-16,1.,0.));
#1664=DIRECTION('ref_axis',(-1.,1.28865172501134E-16,0.));
#1665=DIRECTION('',(-1.,1.28865172501134E-16,0.));
#1666=DIRECTION('',(0.,0.,1.));
#1667=DIRECTION('',(-1.,1.28865172501134E-16,0.));
#1668=DIRECTION('center_axis',(0.,0.,1.));
#1669=DIRECTION('ref_axis',(-1.,-1.33226762955019E-15,0.));
#1670=DIRECTION('center_axis',(0.,0.,-1.));
#1671=DIRECTION('ref_axis',(-1.,-1.33226762955019E-15,0.));
#1672=DIRECTION('center_axis',(0.,0.,-1.));
#1673=DIRECTION('ref_axis',(-1.,-1.33226762955019E-15,0.));
#1674=DIRECTION('center_axis',(0.,0.,1.));
#1675=DIRECTION('ref_axis',(-1.58603289232165E-15,1.,0.));
#1676=DIRECTION('center_axis',(0.,0.,1.));
#1677=DIRECTION('ref_axis',(-1.58603289232165E-15,1.,0.));
#1678=DIRECTION('',(0.,0.,1.));
#1679=DIRECTION('center_axis',(0.,0.,1.));
#1680=DIRECTION('ref_axis',(-1.58603289232165E-15,1.,0.));
#1681=DIRECTION('',(0.,0.,1.));
#1682=DIRECTION('center_axis',(-6.34413156928661E-16,1.,0.));
#1683=DIRECTION('ref_axis',(-1.,-6.34413156928661E-16,0.));
#1684=DIRECTION('',(-1.,-6.34413156928661E-16,0.));
#1685=DIRECTION('',(-1.,-6.34413156928661E-16,0.));
#1686=DIRECTION('',(0.,0.,1.));
#1687=DIRECTION('center_axis',(0.,0.,1.));
#1688=DIRECTION('ref_axis',(1.,0.,0.));
#1689=DIRECTION('center_axis',(0.,0.,1.));
#1690=DIRECTION('ref_axis',(1.,0.,0.));
#1691=DIRECTION('center_axis',(0.,0.,1.));
#1692=DIRECTION('ref_axis',(1.,0.,0.));
#1693=DIRECTION('',(0.,0.,1.));
#1694=DIRECTION('center_axis',(1.,-9.97953280561939E-17,0.));
#1695=DIRECTION('ref_axis',(9.97953280561939E-17,1.,0.));
#1696=DIRECTION('',(9.97953280561939E-17,1.,0.));
#1697=DIRECTION('',(9.97953280561939E-17,1.,0.));
#1698=DIRECTION('',(0.,0.,1.));
#1699=DIRECTION('center_axis',(0.,0.,1.));
#1700=DIRECTION('ref_axis',(2.53765262771464E-15,-1.,0.));
#1701=DIRECTION('center_axis',(0.,0.,1.));
#1702=DIRECTION('ref_axis',(2.53765262771464E-15,-1.,0.));
#1703=DIRECTION('center_axis',(0.,0.,1.));
#1704=DIRECTION('ref_axis',(2.53765262771464E-15,-1.,0.));
#1705=DIRECTION('',(0.,0.,1.));
#1706=DIRECTION('center_axis',(-1.33821525289639E-16,-1.,0.));
#1707=DIRECTION('ref_axis',(1.,-1.33821525289639E-16,0.));
#1708=DIRECTION('',(1.,-1.33821525289639E-16,0.));
#1709=DIRECTION('',(1.,-1.33821525289639E-16,0.));
#1710=DIRECTION('',(0.,0.,1.));
#1711=DIRECTION('center_axis',(0.,0.,1.));
#1712=DIRECTION('ref_axis',(-1.,-9.51619735392991E-16,0.));
#1713=DIRECTION('center_axis',(0.,0.,1.));
#1714=DIRECTION('ref_axis',(-1.,-9.51619735392991E-16,0.));
#1715=DIRECTION('center_axis',(0.,0.,1.));
#1716=DIRECTION('ref_axis',(-1.,-9.51619735392991E-16,0.));
#1717=DIRECTION('',(0.,0.,1.));
#1718=DIRECTION('center_axis',(-1.,7.79651000439015E-17,0.));
#1719=DIRECTION('ref_axis',(-7.79651000439015E-17,-1.,0.));
#1720=DIRECTION('',(-7.79651000439015E-17,-1.,0.));
#1721=DIRECTION('',(-7.79651000439015E-17,-1.,0.));
#1722=DIRECTION('center_axis',(0.,0.,1.));
#1723=DIRECTION('ref_axis',(1.,0.,0.));
#1724=DIRECTION('center_axis',(0.,0.,1.));
#1725=DIRECTION('ref_axis',(1.,0.,0.));
#1726=DIRECTION('center_axis',(0.,0.,1.));
#1727=DIRECTION('ref_axis',(1.,0.,0.));
#1728=DIRECTION('center_axis',(0.,0.,1.));
#1729=DIRECTION('ref_axis',(1.,0.,0.));
#1730=CARTESIAN_POINT('',(0.,0.,0.));
#1731=CARTESIAN_POINT('Origin',(69.5,4.75000000000005,13.25));
#1732=CARTESIAN_POINT('',(55.,5.50000000000005,13.5));
#1733=CARTESIAN_POINT('',(74.,5.50000000000005,13.5));
#1734=CARTESIAN_POINT('',(69.5,5.50000000000005,13.5));
#1735=CARTESIAN_POINT('',(74.5,4.00000000000005,13.));
#1736=CARTESIAN_POINT('',(74.,5.50000000000005,13.5));
#1737=CARTESIAN_POINT('',(54.5,4.00000000000005,13.));
#1738=CARTESIAN_POINT('',(69.5,4.00000000000005,13.));
#1739=CARTESIAN_POINT('',(55.,5.50000000000005,13.5));
#1740=CARTESIAN_POINT('Origin',(74.25,4.75000000000005,14.5));
#1741=CARTESIAN_POINT('',(74.,5.50000000000005,14.5));
#1742=CARTESIAN_POINT('',(74.,5.50000000000005,14.5));
#1743=CARTESIAN_POINT('',(74.5,4.00000000000005,15.));
#1744=CARTESIAN_POINT('',(74.,5.50000000000005,14.5));
#1745=CARTESIAN_POINT('',(74.5,4.00000000000005,14.5));
#1746=CARTESIAN_POINT('Origin',(59.5,4.75000000000005,14.75));
#1747=CARTESIAN_POINT('',(55.,5.50000000000005,14.5));
#1748=CARTESIAN_POINT('',(59.5,5.50000000000005,14.5));
#1749=CARTESIAN_POINT('',(54.5,4.00000000000005,15.));
#1750=CARTESIAN_POINT('',(55.,5.50000000000005,14.5));
#1751=CARTESIAN_POINT('',(59.5,4.00000000000005,15.));
#1752=CARTESIAN_POINT('Origin',(54.75,4.75000000000005,13.5));
#1753=CARTESIAN_POINT('',(54.5,4.00000000000005,13.5));
#1754=CARTESIAN_POINT('',(55.,5.50000000000005,13.5));
#1755=CARTESIAN_POINT('Origin',(54.5,3.50000000000005,13.));
#1756=CARTESIAN_POINT('',(54.5,3.50000000000005,13.));
#1757=CARTESIAN_POINT('',(54.5,3.50000000000005,13.));
#1758=CARTESIAN_POINT('',(54.5,3.50000000000005,15.));
#1759=CARTESIAN_POINT('',(54.5,3.50000000000005,6.5));
#1760=CARTESIAN_POINT('',(54.5,3.50000000000005,15.));
#1761=CARTESIAN_POINT('Origin',(74.5,3.50000000000005,13.));
#1762=CARTESIAN_POINT('',(74.5,3.50000000000005,13.));
#1763=CARTESIAN_POINT('',(74.5,3.50000000000005,13.));
#1764=CARTESIAN_POINT('',(97.5,3.50000000000004,13.));
#1765=CARTESIAN_POINT('Origin',(64.5,5.50000000000005,14.));
#1766=CARTESIAN_POINT('Origin',(54.5,3.50000000000005,15.));
#1767=CARTESIAN_POINT('',(74.5,3.50000000000005,15.));
#1768=CARTESIAN_POINT('',(87.5,3.50000000000005,15.));
#1769=CARTESIAN_POINT('',(74.5,3.50000000000005,15.));
#1770=CARTESIAN_POINT('Origin',(74.5,3.50000000000005,15.));
#1771=CARTESIAN_POINT('',(74.5,3.50000000000005,7.5));
#1772=CARTESIAN_POINT('Origin',(59.5,190.25,13.25));
#1773=CARTESIAN_POINT('',(74.,189.5,13.5));
#1774=CARTESIAN_POINT('',(55.,189.5,13.5));
#1775=CARTESIAN_POINT('',(59.5,189.5,13.5));
#1776=CARTESIAN_POINT('',(54.5,191.,13.));
#1777=CARTESIAN_POINT('',(55.,189.5,13.5));
#1778=CARTESIAN_POINT('',(74.5,191.,13.));
#1779=CARTESIAN_POINT('',(59.5,191.,13.));
#1780=CARTESIAN_POINT('',(74.,189.5,13.5));
#1781=CARTESIAN_POINT('Origin',(54.75,190.25,14.5));
#1782=CARTESIAN_POINT('',(55.,189.5,14.5));
#1783=CARTESIAN_POINT('',(55.,189.5,14.5));
#1784=CARTESIAN_POINT('',(54.5,191.,15.));
#1785=CARTESIAN_POINT('',(55.,189.5,14.5));
#1786=CARTESIAN_POINT('',(54.5,191.,14.5));
#1787=CARTESIAN_POINT('Origin',(69.5,190.25,14.75));
#1788=CARTESIAN_POINT('',(74.,189.5,14.5));
#1789=CARTESIAN_POINT('',(69.5,189.5,14.5));
#1790=CARTESIAN_POINT('',(74.5,191.,15.));
#1791=CARTESIAN_POINT('',(74.,189.5,14.5));
#1792=CARTESIAN_POINT('',(69.5,191.,15.));
#1793=CARTESIAN_POINT('Origin',(74.25,190.25,13.5));
#1794=CARTESIAN_POINT('',(74.5,191.,13.5));
#1795=CARTESIAN_POINT('',(74.,189.5,13.5));
#1796=CARTESIAN_POINT('Origin',(74.5,191.5,13.));
#1797=CARTESIAN_POINT('',(74.5,191.5,13.));
#1798=CARTESIAN_POINT('',(74.5,191.5,13.));
#1799=CARTESIAN_POINT('',(74.5,191.5,15.));
#1800=CARTESIAN_POINT('',(74.5,191.5,6.5));
#1801=CARTESIAN_POINT('',(74.5,191.5,15.));
#1802=CARTESIAN_POINT('Origin',(54.5,191.5,13.));
#1803=CARTESIAN_POINT('',(54.5,191.5,13.));
#1804=CARTESIAN_POINT('',(54.5,191.5,13.));
#1805=CARTESIAN_POINT('',(31.5,191.5,13.));
#1806=CARTESIAN_POINT('Origin',(64.5,189.5,14.));
#1807=CARTESIAN_POINT('Origin',(74.5,191.5,15.));
#1808=CARTESIAN_POINT('',(54.5,191.5,15.));
#1809=CARTESIAN_POINT('',(41.5,191.5,15.));
#1810=CARTESIAN_POINT('',(54.5,191.5,15.));
#1811=CARTESIAN_POINT('Origin',(54.5,191.5,15.));
#1812=CARTESIAN_POINT('',(54.5,191.5,7.5));
#1813=CARTESIAN_POINT('Origin',(124.25,102.5,13.25));
#1814=CARTESIAN_POINT('',(123.5,88.,13.5));
#1815=CARTESIAN_POINT('',(123.5,107.,13.5));
#1816=CARTESIAN_POINT('',(123.5,102.5,13.5));
#1817=CARTESIAN_POINT('',(125.,107.5,13.));
#1818=CARTESIAN_POINT('',(123.5,107.,13.5));
#1819=CARTESIAN_POINT('',(125.,87.5,13.));
#1820=CARTESIAN_POINT('',(125.,102.5,13.));
#1821=CARTESIAN_POINT('',(123.5,88.,13.5));
#1822=CARTESIAN_POINT('Origin',(124.25,107.25,14.5));
#1823=CARTESIAN_POINT('',(123.5,107.,14.5));
#1824=CARTESIAN_POINT('',(123.5,107.,14.5));
#1825=CARTESIAN_POINT('',(125.,107.5,15.));
#1826=CARTESIAN_POINT('',(123.5,107.,14.5));
#1827=CARTESIAN_POINT('',(125.,107.5,14.5));
#1828=CARTESIAN_POINT('Origin',(124.25,92.5,14.75));
#1829=CARTESIAN_POINT('',(123.5,88.,14.5));
#1830=CARTESIAN_POINT('',(123.5,92.5,14.5));
#1831=CARTESIAN_POINT('',(125.,87.5,15.));
#1832=CARTESIAN_POINT('',(123.5,88.,14.5));
#1833=CARTESIAN_POINT('',(125.,92.5,15.));
#1834=CARTESIAN_POINT('Origin',(124.25,87.75,13.5));
#1835=CARTESIAN_POINT('',(125.,87.5,13.5));
#1836=CARTESIAN_POINT('',(123.5,88.,13.5));
#1837=CARTESIAN_POINT('Origin',(125.5,87.5,13.));
#1838=CARTESIAN_POINT('',(125.5,87.5,13.));
#1839=CARTESIAN_POINT('',(125.5,87.5,13.));
#1840=CARTESIAN_POINT('',(125.5,87.5,15.));
#1841=CARTESIAN_POINT('',(125.5,87.5,6.5));
#1842=CARTESIAN_POINT('',(125.5,87.5,15.));
#1843=CARTESIAN_POINT('Origin',(125.5,107.5,13.));
#1844=CARTESIAN_POINT('',(125.5,107.5,13.));
#1845=CARTESIAN_POINT('',(125.5,107.5,13.));
#1846=CARTESIAN_POINT('',(125.5,147.,13.));
#1847=CARTESIAN_POINT('Origin',(123.5,97.5,14.));
#1848=CARTESIAN_POINT('Origin',(125.5,107.5,15.));
#1849=CARTESIAN_POINT('',(125.5,107.5,15.));
#1850=CARTESIAN_POINT('',(125.5,107.5,15.));
#1851=CARTESIAN_POINT('',(125.5,107.5,7.5));
#1852=CARTESIAN_POINT('Origin',(125.5,87.5,15.));
#1853=CARTESIAN_POINT('',(125.5,137.,15.));
#1854=CARTESIAN_POINT('Origin',(4.75000000000003,92.5,13.25));
#1855=CARTESIAN_POINT('',(5.50000000000003,107.,13.5));
#1856=CARTESIAN_POINT('',(5.50000000000003,88.,13.5));
#1857=CARTESIAN_POINT('',(5.50000000000003,92.5,13.5));
#1858=CARTESIAN_POINT('',(4.00000000000003,87.5,13.));
#1859=CARTESIAN_POINT('',(5.50000000000003,88.,13.5));
#1860=CARTESIAN_POINT('',(4.00000000000003,107.5,13.));
#1861=CARTESIAN_POINT('',(4.00000000000003,92.5,13.));
#1862=CARTESIAN_POINT('',(5.50000000000003,107.,13.5));
#1863=CARTESIAN_POINT('Origin',(4.75000000000003,87.75,14.5));
#1864=CARTESIAN_POINT('',(5.50000000000003,88.,14.5));
#1865=CARTESIAN_POINT('',(5.50000000000003,88.,14.5));
#1866=CARTESIAN_POINT('',(4.00000000000003,87.5,15.));
#1867=CARTESIAN_POINT('',(5.50000000000003,88.,14.5));
#1868=CARTESIAN_POINT('',(4.00000000000003,87.5,14.5));
#1869=CARTESIAN_POINT('Origin',(4.75000000000003,102.5,14.75));
#1870=CARTESIAN_POINT('',(5.50000000000003,107.,14.5));
#1871=CARTESIAN_POINT('',(5.50000000000003,102.5,14.5));
#1872=CARTESIAN_POINT('',(4.00000000000003,107.5,15.));
#1873=CARTESIAN_POINT('',(5.50000000000003,107.,14.5));
#1874=CARTESIAN_POINT('',(4.00000000000003,102.5,15.));
#1875=CARTESIAN_POINT('Origin',(4.75000000000003,107.25,13.5));
#1876=CARTESIAN_POINT('',(4.00000000000003,107.5,13.5));
#1877=CARTESIAN_POINT('',(5.50000000000003,107.,13.5));
#1878=CARTESIAN_POINT('Origin',(3.50000000000003,107.5,13.));
#1879=CARTESIAN_POINT('',(3.50000000000003,107.5,13.));
#1880=CARTESIAN_POINT('',(3.50000000000003,107.5,13.));
#1881=CARTESIAN_POINT('',(3.50000000000003,107.5,15.));
#1882=CARTESIAN_POINT('',(3.50000000000003,107.5,6.5));
#1883=CARTESIAN_POINT('',(3.50000000000003,107.5,15.));
#1884=CARTESIAN_POINT('Origin',(3.50000000000003,87.5,13.));
#1885=CARTESIAN_POINT('',(3.50000000000003,87.5,13.));
#1886=CARTESIAN_POINT('',(3.50000000000003,87.5,13.));
#1887=CARTESIAN_POINT('',(3.50000000000003,48.,13.));
#1888=CARTESIAN_POINT('Origin',(5.50000000000003,97.5,14.));
#1889=CARTESIAN_POINT('Origin',(3.50000000000003,87.5,15.));
#1890=CARTESIAN_POINT('',(3.50000000000003,87.5,15.));
#1891=CARTESIAN_POINT('',(3.50000000000003,87.5,15.));
#1892=CARTESIAN_POINT('',(3.50000000000003,87.5,7.5));
#1893=CARTESIAN_POINT('Origin',(3.50000000000003,107.5,15.));
#1894=CARTESIAN_POINT('',(3.50000000000003,58.,15.));
#1895=CARTESIAN_POINT('Origin',(69.,0.,11.5));
#1896=CARTESIAN_POINT('',(69.,3.50000000000005,8.));
#1897=CARTESIAN_POINT('',(69.,3.50000000000005,11.5));
#1898=CARTESIAN_POINT('',(69.,3.50000000000005,5.75));
#1899=CARTESIAN_POINT('',(69.,1.50000000000005,8.));
#1900=CARTESIAN_POINT('',(69.,0.,8.));
#1901=CARTESIAN_POINT('',(69.,1.50000000000005,11.5));
#1902=CARTESIAN_POINT('',(69.,1.50000000000005,5.75));
#1903=CARTESIAN_POINT('',(69.,0.,11.5));
#1904=CARTESIAN_POINT('Origin',(60.,0.,11.5));
#1905=CARTESIAN_POINT('',(60.,3.50000000000005,11.5));
#1906=CARTESIAN_POINT('',(90.25,3.50000000000005,11.5));
#1907=CARTESIAN_POINT('',(60.,1.50000000000005,11.5));
#1908=CARTESIAN_POINT('',(34.25,1.50000000000005,11.5));
#1909=CARTESIAN_POINT('',(60.,0.,11.5));
#1910=CARTESIAN_POINT('Origin',(60.,0.,8.));
#1911=CARTESIAN_POINT('',(60.,3.50000000000005,8.));
#1912=CARTESIAN_POINT('',(60.,3.50000000000005,4.));
#1913=CARTESIAN_POINT('',(60.,1.50000000000005,8.));
#1914=CARTESIAN_POINT('',(60.,1.50000000000005,4.));
#1915=CARTESIAN_POINT('',(60.,0.,8.));
#1916=CARTESIAN_POINT('Origin',(69.,0.,8.));
#1917=CARTESIAN_POINT('',(94.75,3.50000000000005,8.));
#1918=CARTESIAN_POINT('',(38.75,1.50000000000005,8.));
#1919=CARTESIAN_POINT('Origin',(112.96,16.4,0.));
#1920=CARTESIAN_POINT('',(112.96,16.4,0.));
#1921=CARTESIAN_POINT('',(112.96,178.6,0.));
#1922=CARTESIAN_POINT('',(112.96,101.325,0.));
#1923=CARTESIAN_POINT('',(112.96,16.4,2.));
#1924=CARTESIAN_POINT('',(112.96,16.4,0.));
#1925=CARTESIAN_POINT('',(112.96,178.6,2.));
#1926=CARTESIAN_POINT('',(112.96,56.95,2.));
#1927=CARTESIAN_POINT('',(112.96,178.6,0.));
#1928=CARTESIAN_POINT('Origin',(16.04,16.4,0.));
#1929=CARTESIAN_POINT('',(16.04,16.4,0.));
#1930=CARTESIAN_POINT('',(12.145,16.4,0.));
#1931=CARTESIAN_POINT('',(16.04,16.4,2.));
#1932=CARTESIAN_POINT('',(16.04,16.4,0.));
#1933=CARTESIAN_POINT('',(38.7,16.4,2.));
#1934=CARTESIAN_POINT('Origin',(16.04,178.6,0.));
#1935=CARTESIAN_POINT('',(16.04,178.6,0.));
#1936=CARTESIAN_POINT('',(16.04,182.425,0.));
#1937=CARTESIAN_POINT('',(16.04,178.6,2.));
#1938=CARTESIAN_POINT('',(16.04,178.6,0.));
#1939=CARTESIAN_POINT('',(16.04,138.05,2.));
#1940=CARTESIAN_POINT('Origin',(112.96,178.6,0.));
#1941=CARTESIAN_POINT('',(60.605,178.6,0.));
#1942=CARTESIAN_POINT('',(87.16,178.6,2.));
#1943=CARTESIAN_POINT('Origin',(5.36000000000001,112.500005343463,0.));
#1944=CARTESIAN_POINT('',(5.36000000000001,183.,2.));
#1945=CARTESIAN_POINT('',(5.36000000000001,112.500005343463,2.));
#1946=CARTESIAN_POINT('',(5.36000000000001,183.,2.));
#1947=CARTESIAN_POINT('',(5.36000000000001,183.,3.2));
#1948=CARTESIAN_POINT('',(5.36000000000001,183.,0.));
#1949=CARTESIAN_POINT('',(5.36000000000001,112.500005343463,3.2));
#1950=CARTESIAN_POINT('',(5.36000000000001,183.,3.2));
#1951=CARTESIAN_POINT('',(5.36000000000001,112.500005343463,0.));
#1952=CARTESIAN_POINT('Origin',(5.36000000000001,183.,0.));
#1953=CARTESIAN_POINT('',(117.36,183.,2.));
#1954=CARTESIAN_POINT('',(117.36,183.,2.));
#1955=CARTESIAN_POINT('',(117.36,183.,3.2));
#1956=CARTESIAN_POINT('',(117.36,183.,0.));
#1957=CARTESIAN_POINT('',(117.36,183.,3.2));
#1958=CARTESIAN_POINT('Origin',(117.36,183.,0.));
#1959=CARTESIAN_POINT('',(117.36,12.,2.));
#1960=CARTESIAN_POINT('',(117.36,12.,2.));
#1961=CARTESIAN_POINT('',(117.36,12.,3.2));
#1962=CARTESIAN_POINT('',(117.36,12.,0.));
#1963=CARTESIAN_POINT('',(117.36,12.,3.2));
#1964=CARTESIAN_POINT('Origin',(117.36,12.,0.));
#1965=CARTESIAN_POINT('',(5.36000000000001,12.,2.));
#1966=CARTESIAN_POINT('',(5.36000000000001,12.,2.));
#1967=CARTESIAN_POINT('',(5.36000000000001,12.,3.2));
#1968=CARTESIAN_POINT('',(5.36000000000001,12.,0.));
#1969=CARTESIAN_POINT('',(5.36000000000001,12.,3.2));
#1970=CARTESIAN_POINT('Origin',(5.36000000000001,12.,0.));
#1971=CARTESIAN_POINT('',(5.36000000000001,82.4712683241909,2.));
#1972=CARTESIAN_POINT('',(5.36000000000001,183.,2.));
#1973=CARTESIAN_POINT('',(5.36000000000001,82.4712683241909,3.2));
#1974=CARTESIAN_POINT('',(5.36000000000001,82.4712683241909,0.));
#1975=CARTESIAN_POINT('',(5.36000000000001,183.,3.2));
#1976=CARTESIAN_POINT('Origin',(5.36000000000001,82.4712683241909,0.));
#1977=CARTESIAN_POINT('',(3.50000000000003,82.4712683241909,2.));
#1978=CARTESIAN_POINT('',(5.36000000000001,82.4712683241909,2.));
#1979=CARTESIAN_POINT('',(3.50000000000003,82.4712683241909,3.2));
#1980=CARTESIAN_POINT('',(3.50000000000003,82.4712683241909,0.));
#1981=CARTESIAN_POINT('',(5.36000000000001,82.4712683241909,3.2));
#1982=CARTESIAN_POINT('Origin',(3.50000000000003,112.500005343463,0.));
#1983=CARTESIAN_POINT('',(3.50000000000003,112.500005343463,2.));
#1984=CARTESIAN_POINT('',(1.50000000000003,112.500005343463,2.));
#1985=CARTESIAN_POINT('',(3.50000000000003,112.500005343463,3.2));
#1986=CARTESIAN_POINT('',(1.50000000000003,112.500005343463,3.2));
#1987=CARTESIAN_POINT('',(3.50000000000003,112.500005343463,0.));
#1988=CARTESIAN_POINT('Origin',(8.50000000000004,186.5,0.));
#1989=CARTESIAN_POINT('',(3.50000000000004,186.5,3.2));
#1990=CARTESIAN_POINT('',(8.50000000000003,191.5,3.2));
#1991=CARTESIAN_POINT('Origin',(8.50000000000004,186.5,3.2));
#1992=CARTESIAN_POINT('',(8.50000000000003,191.5,17.5));
#1993=CARTESIAN_POINT('',(8.50000000000003,191.5,0.));
#1994=CARTESIAN_POINT('',(3.50000000000004,186.5,17.5));
#1995=CARTESIAN_POINT('Origin',(8.50000000000004,186.5,17.5));
#1996=CARTESIAN_POINT('',(3.50000000000004,186.5,0.));
#1997=CARTESIAN_POINT('Origin',(8.50000000000003,191.5,0.));
#1998=CARTESIAN_POINT('',(120.5,191.5,3.2));
#1999=CARTESIAN_POINT('',(36.5,191.5,3.2));
#2000=CARTESIAN_POINT('',(120.5,191.5,17.5));
#2001=CARTESIAN_POINT('',(120.5,191.5,0.));
#2002=CARTESIAN_POINT('',(120.5,191.5,17.5));
#2003=CARTESIAN_POINT('Origin',(120.5,186.5,0.));
#2004=CARTESIAN_POINT('',(125.5,186.5,3.2));
#2005=CARTESIAN_POINT('Origin',(120.5,186.5,3.2));
#2006=CARTESIAN_POINT('',(125.5,186.5,17.5));
#2007=CARTESIAN_POINT('',(125.5,186.5,0.));
#2008=CARTESIAN_POINT('Origin',(120.5,186.5,17.5));
#2009=CARTESIAN_POINT('Origin',(3.50000000000003,8.50000000000005,0.));
#2010=CARTESIAN_POINT('',(3.50000000000003,53.,3.2));
#2011=CARTESIAN_POINT('',(3.50000000000003,8.50000000000005,17.5));
#2012=CARTESIAN_POINT('',(3.50000000000003,186.5,17.5));
#2013=CARTESIAN_POINT('',(3.50000000000003,8.50000000000005,3.2));
#2014=CARTESIAN_POINT('',(3.50000000000003,8.50000000000005,0.));
#2015=CARTESIAN_POINT('',(3.50000000000003,53.,3.2));
#2016=CARTESIAN_POINT('',(3.50000000000003,186.5,2.));
#2017=CARTESIAN_POINT('Origin',(125.5,186.5,0.));
#2018=CARTESIAN_POINT('',(125.5,8.50000000000006,3.2));
#2019=CARTESIAN_POINT('',(125.5,142.,3.2));
#2020=CARTESIAN_POINT('',(125.5,8.50000000000005,17.5));
#2021=CARTESIAN_POINT('',(125.5,8.50000000000006,0.));
#2022=CARTESIAN_POINT('',(125.5,8.50000000000006,17.5));
#2023=CARTESIAN_POINT('Origin',(120.5,8.50000000000006,0.));
#2024=CARTESIAN_POINT('',(120.5,3.50000000000004,3.2));
#2025=CARTESIAN_POINT('Origin',(120.5,8.50000000000006,3.2));
#2026=CARTESIAN_POINT('',(120.5,3.50000000000005,17.5));
#2027=CARTESIAN_POINT('',(120.5,3.50000000000004,0.));
#2028=CARTESIAN_POINT('Origin',(120.5,8.50000000000006,17.5));
#2029=CARTESIAN_POINT('Origin',(120.5,3.50000000000004,0.));
#2030=CARTESIAN_POINT('',(8.50000000000003,3.50000000000006,3.2));
#2031=CARTESIAN_POINT('',(92.5,3.50000000000004,3.2));
#2032=CARTESIAN_POINT('',(8.50000000000003,3.50000000000005,17.5));
#2033=CARTESIAN_POINT('',(8.50000000000003,3.50000000000006,0.));
#2034=CARTESIAN_POINT('',(8.50000000000003,3.50000000000006,17.5));
#2035=CARTESIAN_POINT('Origin',(8.50000000000003,8.50000000000006,0.));
#2036=CARTESIAN_POINT('Origin',(8.50000000000003,8.50000000000006,3.2));
#2037=CARTESIAN_POINT('Origin',(8.50000000000003,8.50000000000006,17.5));
#2038=CARTESIAN_POINT('Origin',(8.50000000000004,186.5,0.));
#2039=CARTESIAN_POINT('',(8.50000000000003,193.5,0.));
#2040=CARTESIAN_POINT('',(1.50000000000005,186.5,0.));
#2041=CARTESIAN_POINT('Origin',(8.50000000000004,186.5,0.));
#2042=CARTESIAN_POINT('',(1.50000000000005,186.5,17.5));
#2043=CARTESIAN_POINT('',(1.50000000000005,186.5,0.));
#2044=CARTESIAN_POINT('',(8.50000000000003,193.5,17.5));
#2045=CARTESIAN_POINT('Origin',(8.50000000000004,186.5,17.5));
#2046=CARTESIAN_POINT('',(8.50000000000003,193.5,0.));
#2047=CARTESIAN_POINT('Origin',(120.5,193.5,0.));
#2048=CARTESIAN_POINT('',(120.5,193.5,0.));
#2049=CARTESIAN_POINT('',(120.5,193.5,0.));
#2050=CARTESIAN_POINT('',(120.5,193.5,17.5));
#2051=CARTESIAN_POINT('',(120.5,193.5,17.5));
#2052=CARTESIAN_POINT('',(120.5,193.5,0.));
#2053=CARTESIAN_POINT('Origin',(120.5,186.5,0.));
#2054=CARTESIAN_POINT('',(127.5,186.5,0.));
#2055=CARTESIAN_POINT('Origin',(120.5,186.5,0.));
#2056=CARTESIAN_POINT('',(127.5,186.5,17.5));
#2057=CARTESIAN_POINT('Origin',(120.5,186.5,17.5));
#2058=CARTESIAN_POINT('',(127.5,186.5,0.));
#2059=CARTESIAN_POINT('Origin',(127.5,8.50000000000006,0.));
#2060=CARTESIAN_POINT('',(127.5,8.50000000000006,0.));
#2061=CARTESIAN_POINT('',(127.5,8.50000000000006,0.));
#2062=CARTESIAN_POINT('',(127.5,8.50000000000005,17.5));
#2063=CARTESIAN_POINT('',(127.5,8.50000000000006,17.5));
#2064=CARTESIAN_POINT('',(127.5,8.50000000000006,0.));
#2065=CARTESIAN_POINT('Origin',(120.5,8.50000000000006,0.));
#2066=CARTESIAN_POINT('',(120.5,1.50000000000004,0.));
#2067=CARTESIAN_POINT('Origin',(120.5,8.50000000000006,0.));
#2068=CARTESIAN_POINT('',(120.5,1.50000000000006,17.5));
#2069=CARTESIAN_POINT('Origin',(120.5,8.50000000000006,17.5));
#2070=CARTESIAN_POINT('',(120.5,1.50000000000004,0.));
#2071=CARTESIAN_POINT('Origin',(8.50000000000002,1.50000000000006,0.));
#2072=CARTESIAN_POINT('',(8.50000000000002,1.50000000000006,0.));
#2073=CARTESIAN_POINT('',(8.50000000000002,1.50000000000006,0.));
#2074=CARTESIAN_POINT('',(8.50000000000002,1.50000000000006,17.5));
#2075=CARTESIAN_POINT('',(8.50000000000002,1.50000000000006,17.5));
#2076=CARTESIAN_POINT('',(8.50000000000002,1.50000000000006,0.));
#2077=CARTESIAN_POINT('Origin',(8.50000000000003,8.50000000000006,0.));
#2078=CARTESIAN_POINT('',(1.50000000000003,8.50000000000005,0.));
#2079=CARTESIAN_POINT('Origin',(8.50000000000003,8.50000000000006,0.));
#2080=CARTESIAN_POINT('',(1.50000000000003,8.50000000000005,17.5));
#2081=CARTESIAN_POINT('Origin',(8.50000000000003,8.50000000000006,17.5));
#2082=CARTESIAN_POINT('',(1.50000000000003,8.50000000000005,0.));
#2083=CARTESIAN_POINT('Origin',(1.50000000000004,186.5,0.));
#2084=CARTESIAN_POINT('',(1.50000000000004,186.5,0.));
#2085=CARTESIAN_POINT('',(1.50000000000004,186.5,17.5));
#2086=CARTESIAN_POINT('Origin',(64.5,97.5,17.5));
#2087=CARTESIAN_POINT('Origin',(61.36,97.5,2.));
#2088=CARTESIAN_POINT('Origin',(8.25,186.25,3.2));
#2089=CARTESIAN_POINT('Origin',(8.25,186.25,0.));
#2090=UNCERTAINTY_MEASURE_WITH_UNIT(LENGTH_MEASURE(0.01),#2094,
'DISTANCE_ACCURACY_VALUE',
'Maximum model space distance between geometric entities at asserted c
onnectivities');
#2091=UNCERTAINTY_MEASURE_WITH_UNIT(LENGTH_MEASURE(0.01),#2094,
'DISTANCE_ACCURACY_VALUE',
'Maximum model space distance between geometric entities at asserted c
onnectivities');
#2092=(
GEOMETRIC_REPRESENTATION_CONTEXT(3)
GLOBAL_UNCERTAINTY_ASSIGNED_CONTEXT((#2090))
GLOBAL_UNIT_ASSIGNED_CONTEXT((#2094,#2096,#2097))
REPRESENTATION_CONTEXT('','3D')
);
#2093=(
GEOMETRIC_REPRESENTATION_CONTEXT(3)
GLOBAL_UNCERTAINTY_ASSIGNED_CONTEXT((#2091))
GLOBAL_UNIT_ASSIGNED_CONTEXT((#2094,#2096,#2097))
REPRESENTATION_CONTEXT('','3D')
);
#2094=(
LENGTH_UNIT()
NAMED_UNIT(*)
SI_UNIT(.MILLI.,.METRE.)
);
#2095=(
LENGTH_UNIT()
NAMED_UNIT(*)
SI_UNIT($,.METRE.)
);
#2096=(
NAMED_UNIT(*)
PLANE_ANGLE_UNIT()
SI_UNIT($,.RADIAN.)
);
#2097=(
NAMED_UNIT(*)
SI_UNIT($,.STERADIAN.)
SOLID_ANGLE_UNIT()
);
#2098=SHAPE_DEFINITION_REPRESENTATION(#2099,#2100);
#2099=PRODUCT_DEFINITION_SHAPE('',$,#2102);
#2100=SHAPE_REPRESENTATION('',(#1306),#2092);
#2101=PRODUCT_DEFINITION_CONTEXT('part definition',#2106,'design');
#2102=PRODUCT_DEFINITION('Front Cover_small','Front Cover_small v13',#2103,
#2101);
#2103=PRODUCT_DEFINITION_FORMATION('',$,#2108);
#2104=PRODUCT_RELATED_PRODUCT_CATEGORY('Front Cover_small v13',
'Front Cover_small v13',(#2108));
#2105=APPLICATION_PROTOCOL_DEFINITION('international standard',
'ap242_managed_model_based_3d_engineering',2011,#2106);
#2106=APPLICATION_CONTEXT('Managed model based 3d engineering');
#2107=PRODUCT_CONTEXT('part definition',#2106,'mechanical');
#2108=PRODUCT('Front Cover_small','Front Cover_small v13',$,(#2107));
#2109=PRESENTATION_STYLE_ASSIGNMENT((#2110));
#2110=SURFACE_STYLE_USAGE(.BOTH.,#2111);
#2111=SURFACE_SIDE_STYLE('',(#2112));
#2112=SURFACE_STYLE_FILL_AREA(#2113);
#2113=FILL_AREA_STYLE('Steel - Satin',(#2114));
#2114=FILL_AREA_STYLE_COLOUR('Steel - Satin',#2115);
#2115=COLOUR_RGB('Steel - Satin',0.627450980392157,0.627450980392157,0.627450980392157);
ENDSEC;
END-ISO-10303-21;
